<?xml version="1.0" encoding="UTF-8"?>
<svg width="34px" height="38px" viewBox="0 0 34 38" version="1.1" xmlns="http://www.w3.org/2000/svg" xmlns:xlink="http://www.w3.org/1999/xlink">
    <!-- Generator: Sketch 54.1 (76490) - https://sketchapp.com -->
    <title>Shape</title>
    <desc>Created with Sketch.</desc>
    <g id="Page-1" stroke="none" stroke-width="1" fill="none" fill-rule="evenodd">
        <path d="M18.0626969,26.9043968 L18.0626969,29.6882567 C19.9434338,30.1757458 21.25355,31.8565347 21.2499975,33.7773438 C21.2499975,36.1097248 19.3475799,38 17,38 C14.6524196,38 12.750002,36.1097248 12.750002,33.7773438 C12.7464496,31.8565347 14.0565658,30.1757458 15.9373027,29.6882567 L15.9373027,26.9231433 C15.6320935,24.2595737 13.990606,23.010586 10.6253985,23.010586 C6.39833097,23.010586 3.85702999,20.8437995 3.26163496,16.77424 C1.34434394,16.3137379 -0.00396985348,14.615613 8.78177526e-06,12.6664063 C8.78177526e-06,10.3348065 1.90242638,8.44453123 4.25000653,8.44453123 C6.59758668,8.44453123 8.50000428,10.3348065 8.50000428,12.6664063 C8.50362032,14.5480342 7.24584199,16.2047282 5.41628498,16.7281547 C5.90968007,19.588563 7.56777222,20.8992579 10.6253985,20.8992579 C12.8867927,20.8992579 14.6753498,21.425723 15.9373027,22.45522 L15.9373027,8.3109622 C14.0562805,7.82339984 12.7460892,6.14219355 12.750002,4.22109396 C12.750002,1.89027524 14.6524196,0 17,0 C19.3475799,0 21.2499975,1.89027524 21.2499975,4.22187506 C21.2539103,6.14297465 19.943719,7.82418095 18.0626969,8.3117433 L18.0626969,22.4536578 C19.3246497,21.4249419 21.1124162,20.8992579 23.3730197,20.8992579 C26.4306459,20.8992579 28.0887381,19.588563 28.5813425,16.7273736 C26.7530078,16.2031648 25.4964269,14.5470924 25.4999953,12.6664063 C25.4999953,10.3348065 27.4024129,8.44453123 29.749993,8.44453123 C32.0975732,8.44453123 33.9999908,10.3340254 33.9999908,12.6664063 C34.0040706,14.6165925 32.6545135,16.315371 30.7359925,16.7750211 C30.1398068,20.8445806 27.5992965,23.010586 23.3730197,23.010586 C20.0157191,23.010586 18.3734409,24.2533248 18.0626969,26.9043968 Z M16.9999998,6.33320315 C18.1639061,6.33320315 19.1127428,5.39040885 19.1127428,4.22187506 C19.1127428,3.05334128 18.1639061,2.11132808 16.9999998,2.11132808 C15.8360934,2.11132808 14.8872567,3.05334128 14.8872567,4.22187506 C14.8872567,5.39040885 15.8360934,6.33320315 16.9999998,6.33320315 Z M29.749993,14.7769533 C30.9138994,14.7769533 31.8627361,13.8349401 31.8627361,12.6664063 C31.8627361,11.4978725 30.9138994,10.5558593 29.749993,10.5558593 C28.5860867,10.5558593 27.63725,11.4978725 27.63725,12.6664063 C27.63725,13.8349401 28.5860867,14.7777344 29.749993,14.7777344 L29.749993,14.7769533 Z M4.25000653,14.7769533 C5.41391289,14.7769533 6.3627496,13.8349401 6.3627496,12.6664063 C6.3627496,11.4978725 5.41391289,10.5558593 4.25000653,10.5558593 C3.08610017,10.5558593 2.13726346,11.4978725 2.13726346,12.6664063 C2.13726346,13.8349401 3.08610017,14.7777344 4.25000653,14.7777344 L4.25000653,14.7769533 Z M16.9999998,35.889453 C18.1639061,35.889453 19.1127428,34.9466587 19.1127428,33.7781249 C19.1127428,32.6095912 18.1639061,31.667578 16.9999998,31.667578 C15.8360934,31.667578 14.8872567,32.6095912 14.8872567,33.7781249 C14.8872567,34.9466587 15.8360934,35.889453 16.9999998,35.889453 Z" id="Shape" fill="#FFFFFF" fill-rule="nonzero"></path>
    </g>
</svg>