<?xml version="1.0" encoding="UTF-8"?>
<svg width="72px" height="52px" viewBox="0 0 72 52" version="1.1" xmlns="http://www.w3.org/2000/svg" xmlns:xlink="http://www.w3.org/1999/xlink">
    <!-- Generator: Sketch 54.1 (76490) - https://sketchapp.com -->
    <title>2-micro</title>
    <desc>Created with Sketch.</desc>
    <g id="Page-1" stroke="none" stroke-width="1" fill="none" fill-rule="evenodd">
        <g id="2-micro" fill="#006371" fill-rule="nonzero">
            <rect id="Rectangle" opacity="0.202404204" x="37.96" y="33.14" width="16.77" height="4.73"></rect>
            <path d="M65.91,46.15 L37.24,46.15 C36.6877153,46.15 36.24,46.5977153 36.24,47.15 L36.24,51.15 L66.91,51.15 L66.91,47.15 C66.91,46.5977153 66.4622847,46.15 65.91,46.15 Z" id="Path" opacity="0.202404204"></path>
            <polygon id="Path" opacity="0.202404204" points="14.99 40.06 12.2 51.03 17.78 51.03 14.99 40.06"></polygon>
            <polygon id="Path" opacity="0.202404204" points="63.3 0.85 12.65 0.85 9.77 7.29 66.23 7.4"></polygon>
            <path d="M25.05,12.66 L27.17,13.55 C28.0118431,13.8994489 28.9581569,13.8994489 29.8,13.55 L31.92,12.66 C32.7597742,12.3003203 33.7102258,12.3003203 34.55,12.66 L36.67,13.55 C37.5118431,13.8994489 38.4581569,13.8994489 39.3,13.55 L41.42,12.66 C42.2597742,12.3003203 43.2102258,12.3003203 44.05,12.66 L46.17,13.55 C47.0151965,13.9000118 47.9648035,13.9000118 48.81,13.55 L50.92,12.66 C51.7631421,12.2998058 52.7168579,12.2998058 53.56,12.66 L55.67,13.55 C56.5151965,13.9000118 57.4648035,13.9000118 58.31,13.55 L60.19,12.76 C61.1625964,12.344499 62.2740625,12.411187 63.19,12.94 L64.47,13.68 C64.9596791,13.778714 65.467835,13.6530401 65.8550529,13.3374575 C66.2422707,13.0218749 66.467886,12.5495254 66.47,12.05 L66.47,8.61 C66.397035,8.62039382 66.322965,8.62039382 66.25,8.61 L66.25,8.61 L9.49999186,8.54 L9.49999186,8.54 L9.5,12.06 C9.49843298,12.560816 9.72305476,13.0355707 10.1112716,13.3519674 C10.4994884,13.6683641 11.0097995,13.7925797 11.5,13.69 L12.8,12.95 C13.7152635,12.4210075 14.8253116,12.3507045 15.8,12.76 L17.7,13.56 C18.5418431,13.9094489 19.4881569,13.9094489 20.33,13.56 L22.46,12.67 C23.2868463,12.3184388 24.2204637,12.3148341 25.05,12.66 L25.05,12.66 Z" id="Path" opacity="0.202404204"></path>
            <rect id="Rectangle" opacity="0.202404204" x="21.16" y="17.87" width="33.9" height="5.6"></rect>
            <path d="M70.72,50.52 L67.53,50.52 L67.53,47.15 C67.5300169,46.2536667 66.8063164,45.525499 65.91,45.52 L61.69,45.52 L61.69,13.45 C61.6888942,13.335815 61.6541073,13.224497 61.59,13.13 C62.0458158,13.1358878 62.4928418,13.2562409 62.89,13.48 L64.17,14.22 C64.2246376,14.2552878 64.285877,14.2791031 64.35,14.29 C65.0235467,14.4404867 65.7288168,14.270631 66.26,13.83 C66.7974486,13.3953541 67.109822,12.7412077 67.11,12.05 L67.11,8 C67.1251368,7.91399426 67.1251368,7.82600574 67.11,7.74 L63.87,0.6 C63.7705297,0.374251217 63.5466896,0.228951475 63.3,0.23 L12.65,0.23 C12.4025335,0.226280472 12.1773469,0.372454232 12.08,0.6 L8.89,7.72 C8.84691204,7.80685159 8.82628334,7.90311885 8.83,8 L8.83,12.07 C8.82872999,12.7615351 9.14138646,13.4162745 9.68,13.85 C10.211877,14.2892444 10.916467,14.4589362 11.59,14.31 C11.657914,14.3017549 11.7229698,14.277787 11.78,14.24 L13.07,13.5 C13.4487534,13.282933 13.8738902,13.1595062 14.31,13.14 C14.2748233,13.22245 14.2545103,13.3104731 14.25,13.4 L14.25,39.43 L7.88,39.43 C7.59343852,39.4297016 7.3427774,39.6228339 7.27,39.9 L4.58,50.52 L1.28,50.52 C1.03783285,50.4893068 0.799730167,50.6012703 0.668904416,50.8073568 C0.538078665,51.0134432 0.538078665,51.2765568 0.668904416,51.4826432 C0.799730167,51.6887297 1.03783285,51.8006932 1.28,51.77 L70.72,51.77 C70.9621672,51.8006932 71.2002698,51.6887297 71.3310956,51.4826432 C71.4619213,51.2765568 71.4619213,51.0134432 71.3310956,50.8073568 C71.2002698,50.6012703 70.9621672,50.4893068 70.72,50.52 Z M12.45,12.4 L11.25,13.08 C10.9706035,13.1200302 10.6873016,13.0401245 10.47,12.86 C10.2191218,12.666948 10.0744663,12.3665096 10.08,12.05 L10.08,8.11 L13.08,1.48 L62.89,1.48 L65.89,8.11 L65.89,12.05 C65.8979184,12.3647677 65.7571241,12.6648819 65.51,12.86 C65.2902279,13.042901 65.0026754,13.122979 64.72,13.08 L63.54,12.4 C62.456556,11.7863955 61.151081,11.7052642 60,12.18 L58.06,13 C57.372564,13.2894728 56.597436,13.2894728 55.91,13 L53.8,12.11 C52.8012907,11.6955495 51.6787093,11.6955495 50.68,12.11 L48.56,13 C47.8761574,13.2900809 47.1038426,13.2900809 46.42,13 L44.3,12.11 C43.3028738,11.6876792 42.1771262,11.6876792 41.18,12.11 L39.06,13 C38.372564,13.2894728 37.597436,13.2894728 36.91,13 L34.79,12.11 C33.7957728,11.6904975 32.6742272,11.6904975 31.68,12.11 L29.56,13 C28.872564,13.2894728 28.097436,13.2894728 27.41,13 L25.29,12.11 C24.2928738,11.6876792 23.1671262,11.6876792 22.17,12.11 L20.05,13 C19.362564,13.2894728 18.587436,13.2894728 17.9,13 L16,12.18 C15.5059937,11.9732835 14.9755085,11.8678665 14.44,11.87 C13.7414103,11.8671205 13.0546162,12.0500355 12.45,12.4 L12.45,12.4 Z M16.98,50.4 L13,50.4 L15,42.57 L16.98,50.4 Z M8.36,40.68 L14.18,40.68 L11.72,50.41 L5.89,50.41 L8.36,40.68 Z M15.6,39.9 C15.5787936,39.8370221 15.5447416,39.7791336 15.5,39.73 L15.5,39.73 L15.5,13.38 C15.5,13.38 15.5,13.38 15.5,13.32 L15.5,13.32 L17.4,14.12 C18.3955751,14.5327867 19.5144249,14.5327867 20.51,14.12 L22.64,13.22 C23.3258367,12.9398982 24.0941633,12.9398982 24.78,13.22 L26.9,14.12 C27.8987093,14.5344505 29.0212907,14.5344505 30.02,14.12 L32.14,13.23 C32.8293903,12.950371 33.6006097,12.950371 34.29,13.23 L36.41,14.13 C37.4062245,14.539512 38.5237755,14.539512 39.52,14.13 L41.65,13.23 C42.3358367,12.9498982 43.1041633,12.9498982 43.79,13.23 L45.91,14.13 C46.9087093,14.5444505 48.0312907,14.5444505 49.03,14.13 L51.15,13.24 C51.8393903,12.960371 52.6106097,12.960371 53.3,13.24 L55.41,14.13 C56.4071262,14.5523208 57.5328738,14.5523208 58.53,14.13 L60.41,13.34 L60.41,13.34 C60.4064285,13.3832597 60.4064285,13.4267403 60.41,13.47 L60.41,45.52 L37.24,45.52 C36.8076971,45.52 36.3931002,45.6917316 36.0874159,45.9974159 C35.7817316,46.3031002 35.61,46.7176971 35.61,47.15 L35.61,50.52 L33.05,50.52 L33.05,28.58 C33.0673165,27.7426885 32.4163835,27.0430463 31.58,27 L22,27 C21.1475299,27.0431339 20.4903615,27.7673602 20.53,28.62 L20.53,50.52 L18.29,50.52 L15.6,39.9 Z M31.8,50.52 L21.8,50.52 L21.8,28.58 C21.8,28.35 21.93,28.21 22.02,28.21 L31.59,28.21 C31.68,28.21 31.81,28.35 31.81,28.58 L31.8,50.52 Z M36.86,50.52 L36.86,47.15 C36.86,46.9401318 37.0301318,46.77 37.24,46.77 L65.91,46.77 C66.1159528,46.7754217 66.2800714,46.9439758 66.28,47.15 L66.28,50.52 L36.86,50.52 Z" id="Shape"></path>
            <path d="M29.39,36.25 C29.0459721,36.2554614 28.7699567,36.5359287 28.77,36.88 L28.77,40.7 C28.8098981,41.0147933 29.0776883,41.2507851 29.395,41.2507851 C29.7123117,41.2507851 29.9801019,41.0147933 30.02,40.7 L30.02,36.88 C30.02,36.7129136 29.9536252,36.5526706 29.8354773,36.4345227 C29.7173294,36.3163748 29.5570864,36.25 29.39,36.25 L29.39,36.25 Z" id="Path" opacity="0.4039016"></path>
            <path d="M55.34,28.58 C55.3182887,27.7009578 54.5993103,26.9997319 53.72,27 L39,27 C38.5686193,26.9973371 38.1539923,27.1668389 37.8480171,27.4709369 C37.5420419,27.775035 37.3699918,28.188611 37.37,28.62 L37.37,37.29 L36.85,37.29 C36.1856213,37.2899773 35.6454907,37.825644 35.64,38.49 L35.64,41.15 C35.64,41.8182645 36.1817355,42.36 36.85,42.36 L55.85,42.36 C56.5182645,42.36 57.06,41.8182645 57.06,41.15 L57.06,38.45 C57.0545093,37.785644 56.5143787,37.2499773 55.85,37.25 L55.33,37.25 L55.34,28.58 Z M38.59,28.58 C38.5899635,28.4801125 38.6303153,28.3844537 38.7018818,28.3147705 C38.7734484,28.2450873 38.8701489,28.2073003 38.97,28.21 L53.72,28.21 C53.9243454,28.21 54.09,28.3756546 54.09,28.58 L54.09,37.25 L38.59,37.25 L38.59,28.58 Z M55.86,41.07 L36.86,41.07 L36.86,38.46 L55.86,38.46 L55.86,41.07 Z" id="Shape"></path>
            <path d="M21.16,24.09 L55.06,24.09 C55.4024165,24.09 55.68,23.8124165 55.68,23.47 L55.68,17.87 C55.6800433,17.5259287 55.4040279,17.2454614 55.06,17.24 L21.16,17.24 C20.8159721,17.2454614 20.5399567,17.5259287 20.54,17.87 L20.54,23.47 C20.54,23.8124165 20.8175835,24.09 21.16,24.09 Z M21.79,18.49 L54.43,18.49 L54.43,22.84 L21.79,22.84 L21.79,18.49 Z" id="Shape"></path>
        </g>
    </g>
</svg>