<?xml version="1.0" encoding="UTF-8"?>
<svg width="60px" height="98px" viewBox="0 0 60 98" version="1.1" xmlns="http://www.w3.org/2000/svg" xmlns:xlink="http://www.w3.org/1999/xlink">
    <!-- Generator: Sketch 54.1 (76490) - https://sketchapp.com -->
    <title>5-corporate</title>
    <desc>Created with Sketch.</desc>
    <g id="Page-1" stroke="none" stroke-width="1" fill="none" fill-rule="evenodd">
        <g id="5-corporate" fill="#006371" fill-rule="nonzero">
            <rect id="Rectangle" opacity="0.198218936" x="10.4" y="14" width="9.44" height="4.42"></rect>
            <rect id="Rectangle" opacity="0.198218936" x="12.33" y="33.05" width="5.64" height="3.83"></rect>
            <rect id="Rectangle" opacity="0.198218936" x="21.97" y="33.05" width="5.64" height="3.83"></rect>
            <rect id="Rectangle" opacity="0.198218936" x="31.61" y="33.05" width="5.64" height="3.83"></rect>
            <rect id="Rectangle" opacity="0.198218936" x="41.26" y="33.05" width="5.64" height="3.83"></rect>
            <rect id="Rectangle" opacity="0.198218936" x="12.33" y="45.33" width="5.64" height="3.83"></rect>
            <rect id="Rectangle" opacity="0.198218936" x="21.97" y="45.33" width="5.64" height="3.83"></rect>
            <rect id="Rectangle" opacity="0.198218936" x="31.61" y="45.33" width="5.64" height="3.83"></rect>
            <rect id="Rectangle" opacity="0.198218936" x="41.26" y="45.33" width="5.64" height="3.83"></rect>
            <rect id="Rectangle" opacity="0.198218936" x="12.33" y="57.62" width="5.64" height="3.83"></rect>
            <rect id="Rectangle" opacity="0.198218936" x="21.97" y="57.62" width="5.64" height="3.83"></rect>
            <rect id="Rectangle" opacity="0.198218936" x="31.61" y="57.62" width="5.64" height="3.83"></rect>
            <rect id="Rectangle" opacity="0.198218936" x="41.26" y="57.62" width="5.64" height="3.83"></rect>
            <rect id="Rectangle" opacity="0.198218936" x="6.93" y="21.2" width="46.13" height="4.08"></rect>
            <polygon id="Path" opacity="0.198218936" points="25.22 78.41 13.06 78.41 13.06 81.97 25.22 81.97 25.22 92.01 35.02 92.01 35.02 81.97 46.77 81.97 46.77 78.41 35.02 78.41"></polygon>
            <path d="M22.28,70.87 C22.2854614,71.2140279 22.5659287,71.4900433 22.91,71.49 L37.15,71.49 C37.3921672,71.5206932 37.6302698,71.4087297 37.7610956,71.2026432 C37.8919213,70.9965568 37.8919213,70.7334432 37.7610956,70.5273568 C37.6302698,70.3212703 37.3921672,70.2093068 37.15,70.24 L22.91,70.24 C22.5620606,70.24 22.28,70.5220606 22.28,70.87 L22.28,70.87 Z" id="Path" opacity="0.198218936"></path>
            <path d="M20.3,73.73 C20.3,74.0724165 20.5775835,74.35 20.92,74.35 L39.14,74.35 C39.4547933,74.3101019 39.6907851,74.0423117 39.6907851,73.725 C39.6907851,73.4076883 39.4547933,73.1398981 39.14,73.1 L20.92,73.1 C20.5759721,73.1054614 20.2999567,73.3859287 20.3,73.73 L20.3,73.73 Z" id="Path" opacity="0.198218936"></path>
            <path d="M30.49,6.76 L42.59,6.76 C42.9047933,6.72010189 43.1407851,6.45231166 43.1407851,6.135 C43.1407851,5.81768834 42.9047933,5.54989811 42.59,5.51 L30.49,5.51 C30.1752067,5.54989811 29.9392149,5.81768834 29.9392149,6.135 C29.9392149,6.45231166 30.1752067,6.72010189 30.49,6.76 Z" id="Path" opacity="0.198218936"></path>
            <path d="M28.81,9.67 L44.27,9.67 C44.5121672,9.70069319 44.7502698,9.58872966 44.8810956,9.38264321 C45.0119213,9.17655676 45.0119213,8.91344324 44.8810956,8.70735679 C44.7502698,8.50127034 44.5121672,8.38930681 44.27,8.42 L28.81,8.42 C28.5678328,8.38930681 28.3297302,8.50127034 28.1989044,8.70735679 C28.0680787,8.91344324 28.0680787,9.17655676 28.1989044,9.38264321 C28.3297302,9.58872966 28.5678328,9.70069319 28.81,9.67 Z" id="Path" opacity="0.198218936"></path>
            <path d="M58.86,96 L53.72,96 L53.72,22.45 L54.59,22.45 C55.4863164,22.444501 56.2100169,21.7163333 56.21,20.82 L56.21,19 C56.2100169,18.1036667 55.4863164,17.375499 54.59,17.37 L47.71,17.37 L47.71,14.59 L49.6,14.59 C49.7670864,14.59 49.9273294,14.5236252 50.0454773,14.4054773 C50.1636252,14.2873294 50.23,14.1270864 50.23,13.96 L50.23,1.38 C50.2245386,1.03597208 49.9440713,0.759956652 49.6,0.76 L23.6,0.76 C23.4355658,0.76 23.2778664,0.825321241 23.1615938,0.941593796 C23.0453212,1.05786635 22.98,1.21556578 22.98,1.38 L22.98,14 C22.9799567,14.3440713 23.2559721,14.6245386 23.6,14.63 L25.49,14.63 L25.49,17.41 L20.49,17.41 L20.49,13.8 C20.4900433,13.4559287 20.2140279,13.1754614 19.87,13.17 L10.4,13.17 C10.0520606,13.17 9.77,13.4520606 9.77,13.8 L9.77,17.37 L5.41,17.37 C4.51368355,17.375499 3.78998313,18.1036667 3.79,19 L3.79,20.82 C3.78998313,21.7163333 4.51368355,22.444501 5.41,22.45 L6.28,22.45 L6.28,96 L1.14,96 C0.897832846,95.9693068 0.659730167,96.0812703 0.528904416,96.2873568 C0.398078665,96.4934432 0.398078665,96.7565568 0.528904416,96.9626432 C0.659730167,97.1687297 0.897832846,97.2806932 1.14,97.25 L58.86,97.25 C59.1021672,97.2806932 59.3402698,97.1687297 59.4710956,96.9626432 C59.6019213,96.7565568 59.6019213,96.4934432 59.4710956,96.2873568 C59.3402698,96.0812703 59.1021672,95.9693068 58.86,96 Z M24.19,2 L49,2 L49,13.34 L24.19,13.34 L24.19,2 Z M26.7,14.59 L46.46,14.59 L46.46,17.37 L26.7,17.37 L26.7,14.59 Z M11,14.42 L19.19,14.42 L19.19,17.42 L11,17.42 L11,14.42 Z M5,20.82 L5,19 C4.99992865,18.7939758 5.16404715,18.6254217 5.37,18.62 L54.59,18.62 C54.6958711,18.6116151 54.8004202,18.6479175 54.8783124,18.7201103 C54.9562046,18.7923031 55.0003315,18.8937979 55,19 L55,20.82 C55.0000714,21.0260242 54.8359528,21.1945783 54.63,21.2 L5.41,21.2 C5.3041289,21.2083849 5.19957979,21.1720825 5.12168758,21.0998897 C5.04379536,21.0276969 4.99966848,20.9262021 5,20.82 Z M46.27,77.49 L13.73,77.49 L13.73,67.49 L46.27,67.49 L46.27,77.49 Z M34.39,96 L25.68,96 L25.68,78.74 L34.39,78.74 L34.39,96 Z M13.73,78.74 L24.43,78.74 L24.43,96 L13.73,96 L13.73,78.74 Z M35.64,96 L35.64,78.74 L46.27,78.74 L46.27,96 L35.64,96 Z M52.47,96 L47.52,96 L47.52,66.89 C47.52,66.5475835 47.2424165,66.27 46.9,66.27 L13.1,66.27 C12.7575835,66.27 12.48,66.5475835 12.48,66.89 L12.48,96 L7.48,96 L7.48,22.45 L52.47,22.45 L52.47,96 Z" id="Shape"></path>
            <path d="M12.33,37.5 L18,37.5 C18.3479394,37.5 18.63,37.2179394 18.63,36.87 L18.63,28.87 C18.63,28.5220606 18.3479394,28.24 18,28.24 L12.33,28.24 C11.9859721,28.2454614 11.7099567,28.5259287 11.71,28.87 L11.71,36.87 C11.7099567,37.2140713 11.9859721,37.4945386 12.33,37.5 L12.33,37.5 Z M12.96,29.5 L17.35,29.5 L17.35,36.27 L13,36.27 L12.96,29.5 Z" id="Shape"></path>
            <path d="M22,37.5 L27.64,37.5 C27.8070864,37.5 27.9673294,37.4336252 28.0854773,37.3154773 C28.2036252,37.1973294 28.27,37.0370864 28.27,36.87 L28.27,28.87 C28.27,28.5220606 27.9879394,28.24 27.64,28.24 L22,28.24 C21.6559721,28.2454614 21.3799567,28.5259287 21.38,28.87 L21.38,36.87 C21.3799567,37.2140713 21.6559721,37.4945386 22,37.5 Z M22.63,29.5 L27,29.5 L27,36.27 L22.6,36.27 L22.63,29.5 Z" id="Shape"></path>
            <path d="M31.61,37.5 L37.26,37.5 C37.6040279,37.4945386 37.8800433,37.2140713 37.88,36.87 L37.88,28.87 C37.8800433,28.5259287 37.6040279,28.2454614 37.26,28.24 L31.61,28.24 C31.2659721,28.2454614 30.9899567,28.5259287 30.99,28.87 L30.99,36.87 C30.9899567,37.2140713 31.2659721,37.4945386 31.61,37.5 Z M32.24,29.5 L36.63,29.5 L36.63,36.27 L32.24,36.27 L32.24,29.5 Z" id="Shape"></path>
            <path d="M41.26,37.5 L46.9,37.5 C47.2440279,37.4945386 47.5200433,37.2140713 47.52,36.87 L47.52,28.87 C47.5200433,28.5259287 47.2440279,28.2454614 46.9,28.24 L41.26,28.24 C40.9120606,28.24 40.63,28.5220606 40.63,28.87 L40.63,36.87 C40.63,37.0370864 40.6963748,37.1973294 40.8145227,37.3154773 C40.9326706,37.4336252 41.0929136,37.5 41.26,37.5 Z M41.88,29.5 L46.27,29.5 L46.27,36.27 L41.88,36.27 L41.88,29.5 Z" id="Shape"></path>
            <path d="M12.33,49.79 L18,49.79 C18.3479394,49.79 18.63,49.5079394 18.63,49.16 L18.63,41.16 C18.63,40.9929136 18.5636252,40.8326706 18.4454773,40.7145227 C18.3273294,40.5963748 18.1670864,40.53 18,40.53 L12.33,40.53 C11.9859721,40.5354614 11.7099567,40.8159287 11.71,41.16 L11.71,49.16 C11.7099567,49.5040713 11.9859721,49.7845386 12.33,49.79 L12.33,49.79 Z M12.96,41.79 L17.35,41.79 L17.35,48.56 L13,48.56 L12.96,41.79 Z" id="Shape"></path>
            <path d="M22,49.79 L27.64,49.79 C27.8070864,49.79 27.9673294,49.7236252 28.0854773,49.6054773 C28.2036252,49.4873294 28.27,49.3270864 28.27,49.16 L28.27,41.16 C28.27,40.9929136 28.2036252,40.8326706 28.0854773,40.7145227 C27.9673294,40.5963748 27.8070864,40.53 27.64,40.53 L22,40.53 C21.6559721,40.5354614 21.3799567,40.8159287 21.38,41.16 L21.38,49.16 C21.3799567,49.5040713 21.6559721,49.7845386 22,49.79 L22,49.79 Z M22.63,41.79 L27,41.79 L27,48.56 L22.6,48.56 L22.63,41.79 Z" id="Shape"></path>
            <path d="M31.61,49.79 L37.26,49.79 C37.6040279,49.7845386 37.8800433,49.5040713 37.88,49.16 L37.88,41.16 C37.8800433,40.8159287 37.6040279,40.5354614 37.26,40.53 L31.61,40.53 C31.2659721,40.5354614 30.9899567,40.8159287 30.99,41.16 L30.99,49.16 C30.9899567,49.5040713 31.2659721,49.7845386 31.61,49.79 Z M32.24,41.79 L36.63,41.79 L36.63,48.56 L32.24,48.56 L32.24,41.79 Z" id="Shape"></path>
            <path d="M41.26,49.79 L46.9,49.79 C47.2440279,49.7845386 47.5200433,49.5040713 47.52,49.16 L47.52,41.16 C47.5200433,40.8159287 47.2440279,40.5354614 46.9,40.53 L41.26,40.53 C40.9120606,40.53 40.63,40.8120606 40.63,41.16 L40.63,49.16 C40.63,49.3270864 40.6963748,49.4873294 40.8145227,49.6054773 C40.9326706,49.7236252 41.0929136,49.79 41.26,49.79 Z M41.88,41.79 L46.27,41.79 L46.27,48.56 L41.88,48.56 L41.88,41.79 Z" id="Shape"></path>
            <path d="M12.33,62.08 L18,62.08 C18.3479394,62.08 18.63,61.7979394 18.63,61.45 L18.63,53.45 C18.63,53.2829136 18.5636252,53.1226706 18.4454773,53.0045227 C18.3273294,52.8863748 18.1670864,52.82 18,52.82 L12.33,52.82 C11.9859721,52.8254614 11.7099567,53.1059287 11.71,53.45 L11.71,61.45 C11.7099567,61.7940713 11.9859721,62.0745386 12.33,62.08 L12.33,62.08 Z M12.96,54.08 L17.35,54.08 L17.35,60.85 L13,60.85 L12.96,54.08 Z" id="Shape"></path>
            <path d="M22,62.08 L27.64,62.08 C27.8070864,62.08 27.9673294,62.0136252 28.0854773,61.8954773 C28.2036252,61.7773294 28.27,61.6170864 28.27,61.45 L28.27,53.45 C28.27,53.2829136 28.2036252,53.1226706 28.0854773,53.0045227 C27.9673294,52.8863748 27.8070864,52.82 27.64,52.82 L22,52.82 C21.6559721,52.8254614 21.3799567,53.1059287 21.38,53.45 L21.38,61.45 C21.3799567,61.7940713 21.6559721,62.0745386 22,62.08 L22,62.08 Z M22.63,54.08 L27,54.08 L27,60.85 L22.6,60.85 L22.63,54.08 Z" id="Shape"></path>
            <path d="M31.61,62.08 L37.26,62.08 C37.6040279,62.0745386 37.8800433,61.7940713 37.88,61.45 L37.88,53.45 C37.8800433,53.1059287 37.6040279,52.8254614 37.26,52.82 L31.61,52.82 C31.2659721,52.8254614 30.9899567,53.1059287 30.99,53.45 L30.99,61.45 C30.9899567,61.7940713 31.2659721,62.0745386 31.61,62.08 Z M32.24,54.08 L36.63,54.08 L36.63,60.85 L32.24,60.85 L32.24,54.08 Z" id="Shape"></path>
            <path d="M41.26,62.08 L46.9,62.08 C47.2440279,62.0745386 47.5200433,61.7940713 47.52,61.45 L47.52,53.45 C47.5200433,53.1059287 47.2440279,52.8254614 46.9,52.82 L41.26,52.82 C40.9120606,52.82 40.63,53.1020606 40.63,53.45 L40.63,61.45 C40.63,61.6170864 40.6963748,61.7773294 40.8145227,61.8954773 C40.9326706,62.0136252 41.0929136,62.08 41.26,62.08 Z M41.88,54.08 L46.27,54.08 L46.27,60.85 L41.88,60.85 L41.88,54.08 Z" id="Shape"></path>
            <path d="M22,85.81 C21.6559721,85.8154614 21.3799567,86.0959287 21.38,86.44 L21.38,89.77 C21.4198981,90.0847933 21.6876883,90.3207851 22.005,90.3207851 C22.3223117,90.3207851 22.5901019,90.0847933 22.63,89.77 L22.63,86.44 C22.63,86.0920606 22.3479394,85.81 22,85.81 Z" id="Path" opacity="0.400692894"></path>
            <path d="M38.11,85.81 C37.7620606,85.81 37.48,86.0920606 37.48,86.44 L37.48,89.77 C37.5198981,90.0847933 37.7876883,90.3207851 38.105,90.3207851 C38.4223117,90.3207851 38.6901019,90.0847933 38.73,89.77 L38.73,86.44 C38.7300433,86.0959287 38.4540279,85.8154614 38.11,85.81 L38.11,85.81 Z" id="Path" opacity="0.400692894"></path>
        </g>
    </g>
</svg>