<?xml version="1.0" encoding="UTF-8"?>
<svg width="72px" height="80px" viewBox="0 0 72 80" version="1.1" xmlns="http://www.w3.org/2000/svg" xmlns:xlink="http://www.w3.org/1999/xlink">
    <!-- Generator: Sketch 54.1 (76490) - https://sketchapp.com -->
    <title>4-venture</title>
    <desc>Created with Sketch.</desc>
    <g id="Page-1" stroke="none" stroke-width="1" fill="none" fill-rule="evenodd">
        <g id="4-venture" fill="#006371" fill-rule="nonzero">
            <rect id="Rectangle" opacity="0.1976609" x="13.38" y="72.93" width="8.31" height="6.11"></rect>
            <rect id="Rectangle" opacity="0.1976609" x="50.88" y="72.93" width="8.31" height="6.11"></rect>
            <path d="M41.79,23.7 C41.8832276,23.6992943 41.9752479,23.6788453 42.06,23.64 L47.39,21.11 C47.701315,20.9574793 47.8309107,20.5820986 47.68,20.27 C47.6087377,20.1211589 47.481079,20.0068682 47.3252931,19.952437 C47.1695073,19.8980058 46.9984496,19.9079257 46.85,19.98 L41.52,22.51 C41.3711589,22.5812623 41.2568682,22.708921 41.202437,22.8647069 C41.1480058,23.0204927 41.1579257,23.1915504 41.23,23.34 C41.3289594,23.5602619 41.5485331,23.7014164 41.79,23.7 Z" id="Path" opacity="0.1976609"></path>
            <path d="M40.23,26.84 C40.3289594,27.0602619 40.5485331,27.2014164 40.79,27.2 C40.8832276,27.1992943 40.9752479,27.1788453 41.06,27.14 L51.06,22.39 C51.3707804,22.2372684 51.5037151,21.8650514 51.36,21.55 C51.2074793,21.238685 50.8320986,21.1090893 50.52,21.26 L40.52,26 C40.3685393,26.0711896 40.252291,26.2005864 40.1976762,26.3587811 C40.1430614,26.5169757 40.1547192,26.6905305 40.23,26.84 Z" id="Path" opacity="0.1976609"></path>
            <path d="M24.78,41.71 C24.8732276,41.7092943 24.9652479,41.6888453 25.05,41.65 L30.37,39.12 C30.5206101,39.0505631 30.6371229,38.9236804 30.6934977,38.76771 C30.7498725,38.6117396 30.7414095,38.4396849 30.67,38.29 C30.6005631,38.1393899 30.4736804,38.0228771 30.31771,37.9665023 C30.1617396,37.9101275 29.9896849,37.9185905 29.84,37.99 L24.51,40.52 C24.2339913,40.6372966 24.081505,40.9353306 24.1478626,41.2277959 C24.2142203,41.5202612 24.4803965,41.7233044 24.78,41.71 L24.78,41.71 Z" id="Path" opacity="0.1976609"></path>
            <path d="M47.85,40 L42.53,42.53 C42.2562432,42.6468566 42.1041604,42.9417677 42.1676954,43.2325624 C42.2312304,43.523357 42.4924521,43.7279663 42.79,43.72 C42.8832276,43.7192943 42.9752479,43.6988453 43.06,43.66 L48.39,41.13 C48.6181482,41.05035 48.7806323,40.8472177 48.808227,40.6071464 C48.8358218,40.367075 48.7236639,40.1323743 48.5195376,40.0030369 C48.3154112,39.8736996 48.0552912,39.8725197 47.85,40 L47.85,40 Z" id="Path" opacity="0.1976609"></path>
            <path d="M23.21,44.86 C23.3172654,45.0762246 23.5386407,45.2121568 23.78,45.21 C23.8732276,45.2092943 23.9652479,45.1888453 24.05,45.15 L34.05,40.4 C34.3228671,40.2305569 34.424573,39.8829617 34.2860816,39.5931557 C34.1475902,39.3033496 33.8132479,39.1641315 33.51,39.27 L23.51,44 C23.3554043,44.073426 23.2366581,44.2057126 23.1802871,44.3673095 C23.1239161,44.5289063 23.1346172,44.7063489 23.21,44.86 Z" id="Path" opacity="0.1976609"></path>
            <rect id="Rectangle" opacity="0.1976609" x="18.13" y="46.35" width="36.67" height="4.17"></rect>
            <rect id="Rectangle" opacity="0.1976609" x="18.13" y="28.33" width="36.67" height="4.17"></rect>
            <rect id="Rectangle" opacity="0.1976609" x="19.07" y="1.83" width="13.54" height="4"></rect>
            <rect id="Rectangle" opacity="0.1976609" x="22.05" y="56.09" width="28.75" height="3"></rect>
            <rect id="Rectangle" opacity="0.1976609" x="13.38" y="10.07" width="46.13" height="4.08"></rect>
            <circle id="Oval" opacity="0.1976609" cx="4.77" cy="58.21" r="4"></circle>
            <rect id="Rectangle" opacity="0.1976609" x="60.09" y="35.31" width="7.33" height="5.5"></rect>
            <path d="M71.23,78.3 L60.16,78.3 L60.16,62.53 L64.84,62.53 L64.84,68.1 C64.8093068,68.3421672 64.9212703,68.5802698 65.1273568,68.7110956 C65.3334432,68.8419213 65.5965568,68.8419213 65.8026432,68.7110956 C66.0087297,68.5802698 66.1206932,68.3421672 66.09,68.1 L66.09,41.44 L67.42,41.44 C67.7640279,41.4345386 68.0400433,41.1540713 68.04,40.81 L68.04,35.31 C68.04,35.1455658 67.9746788,34.9878664 67.8584062,34.8715938 C67.7421336,34.7553212 67.5844342,34.69 67.42,34.69 L66.09,34.69 L66.09,5.83 C66.035473,2.94509903 63.7109004,0.6189679 60.8260367,0.562507379 C57.9411729,0.506046858 55.5273645,2.73944174 55.36,5.62 L33.24,5.62 L33.24,1.83 C33.2345386,1.48597208 32.9540713,1.20995665 32.61,1.21 L19.07,1.21 C18.7259287,1.20995665 18.4454614,1.48597208 18.44,1.83 L18.44,5.62 L11.85,5.62 C10.9536836,5.62549898 10.2299831,6.35366668 10.23,7.25 L10.23,9.07 C10.2299831,9.96633332 10.9536836,10.694501 11.85,10.7 L12.72,10.7 L12.72,78.28 L5.4,78.28 L5.4,62.77 C7.81321452,62.4412329 9.55915432,60.2990877 9.39439333,57.8691605 C9.22963235,55.4392334 7.21050654,53.5523781 4.775,53.5523781 C2.33949346,53.5523781 0.32036765,55.4392334 0.155606666,57.8691605 C-0.00915431854,60.2990877 1.73678548,62.4412329 4.15,62.77 L4.15,78.28 L1.78,78.28 C1.46520669,78.3198981 1.2292149,78.5876883 1.2292149,78.905 C1.2292149,79.2223117 1.46520669,79.4901019 1.78,79.53 L71.23,79.53 C71.5447933,79.4901019 71.7807851,79.2223117 71.7807851,78.905 C71.7807851,78.5876883 71.5447933,78.3198981 71.23,78.28 L71.23,78.3 Z M1.4,58.21 C1.39595597,56.841106 2.2179806,55.6049388 3.48190407,55.0792159 C4.74582754,54.5534931 6.20204774,54.8420354 7.17000617,55.8099938 C8.1379646,56.7779523 8.42650692,58.2341725 7.90078407,59.4980959 C7.37506121,60.7620194 6.13889397,61.584044 4.77,61.58 C2.91107987,61.5745083 1.40549168,60.0689201 1.4,58.21 Z M64.84,24 L60.16,24 L60.16,20 L64.84,20 L64.84,24 Z M60.16,52 L64.84,52 L64.84,56 L60.16,56 L60.16,52 Z M64.84,50.75 L60.16,50.75 L60.16,46.75 L64.84,46.75 L64.84,50.75 Z M60.16,25.26 L64.84,25.26 L64.84,29.26 L60.16,29.26 L60.16,25.26 Z M64.84,18.77 L60.16,18.77 L60.16,14.77 L64.84,14.77 L64.84,18.77 Z M60.16,61.28 L60.16,57.28 L64.84,57.28 L64.84,61.28 L60.16,61.28 Z M64.84,45.55 L60.16,45.55 L60.16,41.44 L64.84,41.44 L64.84,45.55 Z M66.84,40.19 L60.16,40.19 L60.16,35.94 L66.79,35.94 L66.84,40.19 Z M60.21,34.69 L60.21,30.51 L64.89,30.51 L64.89,34.69 L60.21,34.69 Z M60.77,1.69 C63.0470298,1.69551341 64.8900067,3.54296353 64.89,5.82 L64.89,13.52 L60.16,13.52 L60.16,10.7 L61,10.7 C61.8963164,10.694501 62.6200169,9.96633332 62.62,9.07 L62.62,7.25 C62.6200169,6.35366668 61.8963164,5.62549898 61,5.62 L56.61,5.62 C56.7215283,3.42917454 58.5263514,1.70778611 60.72,1.7 L60.77,1.69 Z M19.77,2.45 L32,2.45 L32,5.62 L19.69,5.62 L19.77,2.45 Z M11.56,9.06 L11.56,7.25 C11.5599286,7.04397581 11.7240472,6.87542168 11.93,6.87 L61,6.87 C61.0998875,6.86996351 61.1955463,6.91031525 61.2652295,6.9818818 C61.3349127,7.05344835 61.3726997,7.15014894 61.37,7.25 L61.37,9.07 C61.3726997,9.16985106 61.3349127,9.26655165 61.2652295,9.3381182 C61.1955463,9.40968475 61.0998875,9.45003649 61,9.45 L11.85,9.45 C11.6440472,9.44457832 11.4799286,9.27602419 11.48,9.07 L11.56,9.06 Z M14,10.7 L58.91,10.7 L58.91,78.29 L51.44,78.29 L51.44,55.91 C51.44,55.5675835 51.1624165,55.29 50.82,55.29 L22.07,55.29 C21.7259287,55.2899567 21.4454614,55.5659721 21.44,55.91 L21.44,78.28 L14,78.28 L14,10.7 Z M50.19,56.54 L50.19,78.29 L37.07,78.29 L37.07,56.54 L50.19,56.54 Z M35.82,78.29 L22.69,78.29 L22.69,56.54 L35.82,56.54 L35.82,78.29 Z" id="Shape"></path>
            <path d="M40.16,69.56 L47,69.56 C47.3147933,69.5201019 47.5507851,69.2523117 47.5507851,68.935 C47.5507851,68.6176883 47.3147933,68.3498981 47,68.31 L40.16,68.31 C39.9178328,68.2793068 39.6797302,68.3912703 39.5489044,68.5973568 C39.4180787,68.8034432 39.4180787,69.0665568 39.5489044,69.2726432 C39.6797302,69.4787297 39.9178328,69.5906932 40.16,69.56 Z" id="Path" opacity="0.395949591"></path>
            <path d="M25.91,69.56 L32.73,69.56 C33.0447933,69.5201019 33.2807851,69.2523117 33.2807851,68.935 C33.2807851,68.6176883 33.0447933,68.3498981 32.73,68.31 L25.91,68.31 C25.6678328,68.2793068 25.4297302,68.3912703 25.2989044,68.5973568 C25.1680787,68.8034432 25.1680787,69.0665568 25.2989044,69.2726432 C25.4297302,69.4787297 25.6678328,69.5906932 25.91,69.56 Z" id="Path" opacity="0.395949591"></path>
            <path d="M54.51,50.51 C54.8524165,50.51 55.13,50.2324165 55.13,49.89 L55.13,35.8 C55.13,35.4575835 54.8524165,35.18 54.51,35.18 L18.38,35.18 C18.0359287,35.1799567 17.7554614,35.4559721 17.75,35.8 L17.75,49.89 C17.7554614,50.2340279 18.0359287,50.5100433 18.38,50.51 L54.51,50.51 Z M35.82,49.26 L28,49.26 L28,36.43 L35.79,36.43 L35.82,49.26 Z M37.07,36.43 L44.85,36.43 L44.85,49.26 L37.07,49.26 L37.07,36.43 Z M53.88,49.26 L46.1,49.26 L46.1,36.43 L53.88,36.43 L53.88,49.26 Z M19,36.43 L26.78,36.43 L26.78,49.26 L19,49.26 L19,36.43 Z" id="Shape"></path>
            <path d="M18.38,32.5 L54.51,32.5 C54.8524165,32.5 55.13,32.2224165 55.13,31.88 L55.13,17.79 C55.1300433,17.4459287 54.8540279,17.1654614 54.51,17.16 L18.38,17.16 C18.0320606,17.16 17.75,17.4420606 17.75,17.79 L17.75,31.88 C17.7554614,32.2240279 18.0359287,32.5000433 18.38,32.5 Z M35.82,31.25 L28,31.25 L28,18.41 L35.79,18.41 L35.82,31.25 Z M37.07,18.41 L44.85,18.41 L44.85,31.25 L37.07,31.25 L37.07,18.41 Z M53.88,31.25 L46.1,31.25 L46.1,18.41 L53.88,18.41 L53.88,31.25 Z M19,18.41 L26.78,18.41 L26.78,31.25 L19,31.25 L19,18.41 Z" id="Shape"></path>
        </g>
    </g>
</svg>