<?xml version="1.0" encoding="UTF-8"?>
<svg width="72px" height="44px" viewBox="0 0 72 44" version="1.1" xmlns="http://www.w3.org/2000/svg" xmlns:xlink="http://www.w3.org/1999/xlink">
    <!-- Generator: Sketch 54.1 (76490) - https://sketchapp.com -->
    <title>1-starteer</title>
    <desc>Created with Sketch.</desc>
    <g id="Page-1" stroke="none" stroke-width="1" fill="none" fill-rule="evenodd">
        <g id="1-starteer" fill="#006371" fill-rule="nonzero">
            <path d="M53.11,9.74 L53.11,2.24 C53.0990771,1.55194415 52.5381425,0.999913305 51.85,1 L39.37,1 C39.0340874,0.999989421 38.7120766,1.13411087 38.4754912,1.37257395 C38.2389058,1.61103702 38.107334,1.93409795 38.11,2.27 L38.11,9.77 C38.1262935,10.4541355 38.6856706,11.000194 39.37,11 L51.85,11 C52.5458788,11 53.11,10.4358788 53.11,9.74 Z M46.69,5.14 L48.92,2.91 C49.1647256,2.67118402 49.5552744,2.67118402 49.8,2.91 C50.0400362,3.15811268 50.0400362,3.55188732 49.8,3.8 L47.57,6 C47.4564571,6.12247175 47.2970069,6.19207844 47.13,6.19207844 C46.9629931,6.19207844 46.8035429,6.12247175 46.69,6 C46.4535549,5.76208883 46.4535549,5.37791117 46.69,5.14 L46.69,5.14 Z M50.47,6 L47.67,8.8 C47.5564571,8.92247175 47.3970069,8.99207844 47.23,8.99207844 C47.0629931,8.99207844 46.9035429,8.92247175 46.79,8.8 C46.551184,8.5552744 46.551184,8.1647256 46.79,7.92 L49.59,5.12 C49.8347256,4.88118402 50.2252744,4.88118402 50.47,5.12 C50.5897929,5.2350264 50.6575074,5.39392347 50.6575074,5.56 C50.6575074,5.72607653 50.5897929,5.8849736 50.47,6 L50.47,6 Z" id="Shape" opacity="0.19921875"></path>
            <rect id="Rectangle" opacity="0.19921875" x="56.7" y="13.8" width="6.23" height="4.17"></rect>
            <path d="M22,40.85 L22,40.71 C22,37.3962915 19.3137085,34.71 16,34.71 L12.88,34.71 C12.8612982,34.0684246 12.6714087,33.4435153 12.33,32.9 L12.33,30.53 L10.93,31.59 C10.5478179,31.3931398 10.1355057,31.2613351 9.71,31.2 L9.65,31.2 C9.50805775,31.1730002 9.36435038,31.15629 9.22,31.15 C8.64083914,31.1536615 8.07121326,31.2977837 7.56,31.57 L6.19,30.57 L6.19,32.8 C5.34919118,34.0446393 5.34919118,35.6753607 6.19,36.92 L6.19,40.69 L5.73,40.69 C4.84082155,40.69 4.12,41.4108216 4.12,42.3 L4.12,43 L25.6,43 L24.74,40.83 L22,40.85 Z" id="Path" opacity="0.19921875"></path>
            <rect id="Rectangle" opacity="0.19921875" x="60.13" y="22.49" width="4.48" height="20.51"></rect>
            <path d="M50.73,14.61 L45.94,14.6099828 C47.5471486,14.61 48.85,15.9128514 48.85,17.52 L53.65,17.52 C53.6500046,16.7464843 53.3420438,16.0047949 52.7941482,15.4587756 C52.2462527,14.9127564 51.5035112,14.6073419 50.73,14.61 Z" id="Path" opacity="0.19921875"></path>
            <path d="M34.89,25.47 L34.89,15.47 C34.89,14.4814103 34.0885897,13.68 33.1,13.68 L21.91,13.68 C20.9214103,13.68 20.12,14.4814103 20.12,15.47 L20.12,25.48 C20.1181591,25.9513312 20.1718627,26.4212377 20.28,26.88 L21.22,31.68 L36,31.68 L35,26.87 C34.9135732,26.4085833 34.8766972,25.9392526 34.89,25.47 L34.89,25.47 Z" id="Path" opacity="0.19921875"></path>
            <path d="M55.76,25.32 L53.47,25.32 C53.1552067,25.3598981 52.9192149,25.6276883 52.9192149,25.945 C52.9192149,26.2623117 53.1552067,26.5301019 53.47,26.57 L55.76,26.57 C56.0747933,26.5301019 56.3107851,26.2623117 56.3107851,25.945 C56.3107851,25.6276883 56.0747933,25.3598981 55.76,25.32 L55.76,25.32 Z" id="Path" opacity="0.195893787"></path>
            <path d="M55.76,32.14 L53.47,32.14 C53.1552067,32.1798981 52.9192149,32.4476883 52.9192149,32.765 C52.9192149,33.0823117 53.1552067,33.3501019 53.47,33.39 L55.76,33.39 C56.0747933,33.3501019 56.3107851,33.0823117 56.3107851,32.765 C56.3107851,32.4476883 56.0747933,32.1798981 55.76,32.14 L55.76,32.14 Z" id="Path" opacity="0.195893787"></path>
            <path d="M55.76,39 L53.47,39 C53.1552067,39.0398981 52.9192149,39.3076883 52.9192149,39.625 C52.9192149,39.9423117 53.1552067,40.2101019 53.47,40.25 L55.76,40.25 C56.0747933,40.2101019 56.3107851,39.9423117 56.3107851,39.625 C56.3107851,39.3076883 56.0747933,39.0398981 55.76,39 L55.76,39 Z" id="Path" opacity="0.195893787"></path>
            <path d="M70.72,42.4 L65.23,42.4 L65.23,23.11 L66.54,23.11 C66.8840713,23.1100433 67.1645386,22.8340279 67.17,22.49 L67.17,18 C67.17,17.6520606 66.8879394,17.37 66.54,17.37 L63.54,17.37 L63.54,13.8 C63.54,13.4575835 63.2624165,13.18 62.92,13.18 L60.46,13.18 C60.5795116,11.6985817 61.8137792,10.5555803 63.3,10.55 C63.6147933,10.5101019 63.8507851,10.2423117 63.8507851,9.925 C63.8507851,9.60768834 63.6147933,9.33989811 63.3,9.3 C62.2305606,9.30207404 61.2042574,9.72192535 60.44,10.47 L60.44,10.14 C60.4380688,9.00181343 61.1089225,7.97003262 62.15,7.51 C62.3034831,7.44641325 62.4243914,7.32297618 62.484788,7.16820993 C62.5451845,7.01344368 62.5398439,6.84073875 62.47,6.69 C62.4042074,6.53838727 62.2806046,6.41931814 62.1266402,6.35923447 C61.9726758,6.29915081 61.8010946,6.30302618 61.65,6.37 C60.8847428,6.71290137 60.2426856,7.28168038 59.81,8 C59.3842522,7.28706038 58.7534796,6.71901658 58,6.37 C57.6823059,6.23553684 57.3152051,6.37706968 57.17,6.69 C57.1030262,6.84109464 57.0991508,7.01267581 57.1592345,7.16664021 C57.2193181,7.32060461 57.3383873,7.44420742 57.49,7.51 C58.5349896,7.96701719 59.2101889,8.99944403 59.21,10.14 L59.21,10.47 C58.4457426,9.72192535 57.4194394,9.30207404 56.35,9.3 C56.1078328,9.26930681 55.8697302,9.38127034 55.7389044,9.58735679 C55.6080787,9.79344324 55.6080787,10.0565568 55.7389044,10.2626432 C55.8697302,10.4687297 56.1078328,10.5806932 56.35,10.55 C57.8342605,10.5559881 59.0654366,11.7001553 59.18,13.18 L56.7,13.18 C56.3575835,13.18 56.08,13.4575835 56.08,13.8 L56.08,17.35 L54.25,17.35 C54.1493532,15.4771845 52.6055014,14.0078937 50.73,14 L48.14,14 L48.14,11.62 L51.85,11.62 C52.8899254,11.6200146 53.7344977,10.7799108 53.74,9.74 L53.74,2.24 C53.74,1.19618182 52.8938182,0.35 51.85,0.35 L39.37,0.35 C38.3261818,0.35 37.48,1.19618182 37.48,2.24 L37.48,9.74 C37.4855023,10.7799108 38.3300746,11.6200146 39.37,11.62 L43.08,11.62 L43.08,14 L40.49,14 C38.6261091,14.0236495 37.0998974,15.4886378 37,17.35 L35.51,17.35 L35.51,15.43 C35.5126577,14.7881744 35.2602394,14.1715812 34.8082756,13.7158666 C34.3563117,13.260152 33.7418256,13.0026467 33.1,13 L21.91,13 C20.5773778,13.0055068 19.4999886,14.0873664 19.5,15.42 L19.5,17.34 L14.77,17.34 C14.4259721,17.3454614 14.1499567,17.6259287 14.15,17.97 L14.15,22.48 C14.15,22.8224165 14.4275835,23.1 14.77,23.1 L15.82,23.1 L15.82,34.1 L13.44,34.1 C13.3702221,33.622116 13.221531,33.1591458 13,32.73 L13,30.53 C12.9963259,30.2949454 12.8620864,30.0814894 12.6518215,29.976357 C12.4415566,29.8712245 12.1902481,29.8919065 12,30.03 L10.89,30.87 C10.5284546,30.7218499 10.1482064,30.6242641 9.76,30.58 L9.66,30.58 C8.97944547,30.5002051 8.28986249,30.6001946 7.66,30.87 L6.57,30 C6.36636364,29.88 6.11363636,29.88 5.91,30 C5.70088972,30.1084275 5.56973284,30.3244505 5.57,30.56 L5.57,32.56 C4.71666667,33.9314286 4.71666667,35.6685714 5.57,37.04 L5.57,40.04 C4.40185125,40.1284917 3.4970663,41.0985256 3.49,42.27 L3.49,42.41 L1.28,42.41 C1.03783285,42.3793068 0.799730167,42.4912703 0.668904416,42.6973568 C0.538078665,42.9034432 0.538078665,43.1665568 0.668904416,43.3726432 C0.799730167,43.5787297 1.03783285,43.6906932 1.28,43.66 L70.72,43.66 C70.9621672,43.6906932 71.2002698,43.5787297 71.3310956,43.3726432 C71.4619213,43.1665568 71.4619213,42.9034432 71.3310956,42.6973568 C71.2002698,42.4912703 70.9621672,42.3793068 70.72,42.41 L70.72,42.4 Z M64,42.4 L60.76,42.4 L60.76,23.11 L64,23.11 L64,42.4 Z M36,38.48 L34.17,38.48 L34.17,34.87 L42.27,34.87 C42.9123872,34.8694581 43.5224484,34.5881724 43.94,34.1 C44.3516212,33.6046943 44.5301435,32.9561847 44.43,32.32 C44.2651085,31.4360036 43.5810311,30.7400637 42.7,30.56 L43.77,27.56 C43.9235928,27.0985633 43.8471121,26.5914916 43.5642528,26.1958842 C43.2813935,25.8002769 42.826312,25.5639048 42.34,25.56 L35.51,25.56 L35.51,23.11 L48.51,23.11 L48.51,42.4 L40.06,42.4 C40.0162179,40.1986151 38.2015659,38.4465374 36,38.48 Z M31.23,34.87 L32.89,34.87 L32.89,38.48 L31.26,38.48 L31.23,34.87 Z M36.45,30.49 L35.63,26.8 L42.31,26.8 C42.3998812,26.7976113 42.4854417,26.8385316 42.54,26.91 C42.5792675,26.9887075 42.5792675,27.0812925 42.54,27.16 L41.33,30.49 L36.45,30.49 Z M59.45,35.54 L49.72,35.54 L49.72,30 L59.51,30 L59.45,35.54 Z M49.66,36.79 L59.45,36.79 L59.45,42.37 L49.72,42.37 L49.66,36.79 Z M59.45,28.7 L49.72,28.7 L49.72,23.11 L59.51,23.11 L59.45,28.7 Z M57.33,14.43 L62.33,14.43 L62.33,17.35 L57.33,17.35 L57.33,14.43 Z M53,17.35 L49.78,17.35 C49.7424738,16.5679975 49.4431001,15.8213243 48.93,15.2299945 L50.73,15.23 C51.9273697,15.2273832 52.9208813,16.1552442 53,17.35 Z M38.73,9.74 L38.73,2.24 C38.73,1.88653776 39.0165378,1.6 39.37,1.6 L51.85,1.6 C52.2034622,1.6 52.49,1.88653776 52.49,2.24 L52.49,9.74 C52.49,10.0934622 52.2034622,10.38 51.85,10.38 L39.37,10.38 C39.0165378,10.38 38.73,10.0934622 38.73,9.74 Z M44.33,11.62 L46.89,11.62 L46.89,14 L44.33,14 L44.33,11.62 Z M40.49,15.23 L46.25,15.23 C47.4473652,15.2319249 48.4411141,16.155937 48.53,17.35 L38.22,17.35 C38.2991187,16.1552442 39.2926303,15.2273832 40.49,15.23 Z M65.92,18.6 L65.92,21.86 L35.51,21.86 L35.51,18.6 L65.92,18.6 Z M20.75,15.43 C20.7499765,14.787712 21.2677355,14.2654896 21.91,14.26 L33.1,14.26 C33.7422645,14.2654896 34.2600235,14.787712 34.26,15.43 L34.26,25.43 C34.2586865,25.9579964 34.3156989,26.4845224 34.43,27 L35.37,31.25 C35.4315854,31.5372123 35.6862647,31.7417908 35.98,31.74 L42.18,31.74 C42.6566599,31.7283504 43.0752458,32.0548474 43.18,32.52 C43.2338556,32.7953691 43.1562014,33.080101 42.97,33.29 C42.7925853,33.4980177 42.5333954,33.6184862 42.26,33.62 L23.35,33.62 C22.8029633,33.6234214 22.3278875,33.2441942 22.21,32.71 L20.89,26.71 C20.7935167,26.2936513 20.7465248,25.8673677 20.75,25.44 L20.75,15.43 Z M15.4,18.6 L19.5,18.6 L19.5,21.86 L15.4,21.86 L15.4,18.6 Z M19.5,23.11 L19.5,25.48 C19.498196,25.9915091 19.5552375,26.501528 19.67,27 L21,33 C21.241065,34.1086185 22.2254965,34.8969979 23.36,34.89 L30,34.89 L30,38.5 L28.14,38.5 C26.8059583,38.4946611 25.5570586,39.1547403 24.81,40.26 L22.57,40.26 C22.3210805,37.2390622 20.0579337,34.7701748 17.07,34.26 L17.07,23.11 L19.5,23.11 Z M4.74,42.26 C4.74,41.7077153 5.18771525,41.26 5.74,41.26 L6.2,41.26 C6.54793939,41.26 6.83,40.9779394 6.83,40.63 L6.83,36.88 C6.83011729,36.7548098 6.7917132,36.6326149 6.72,36.53 C6.00657877,35.5016162 6.00657877,34.1383838 6.72,33.11 C6.7917132,33.0073851 6.83011729,32.8851902 6.83,32.76 L6.83,31.76 L7.19,32.04 C7.3863825,32.1787883 7.64208241,32.2016868 7.86,32.1 C8.34714588,31.82926 8.90548515,31.7141026 9.46,31.77 L9.64,31.77 C9.98985183,31.8215838 10.328161,31.9332258 10.64,32.1 C10.8562159,32.2108827 11.1169261,32.1875355 11.31,32.04 L11.71,31.74 L11.71,32.9 C11.7089928,33.016195 11.7401409,33.1304049 11.8,33.23 C12.08016,33.6813397 12.2354512,34.198977 12.25,34.73 C12.2660261,35.066171 12.5434474,35.3303818 12.88,35.33 L16,35.33 C18.971292,35.33 21.38,37.738708 21.38,40.71 L21.38,40.85 C21.3799567,41.1940713 21.6559721,41.4745386 22,41.48 L24.29,41.48 C24.2118745,41.7810475 24.1649604,42.0893404 24.15,42.4 L10.78,42.4 L10.78,42.26 C10.78,41.7077153 11.2277153,41.26 11.78,41.26 L13.66,41.26 C13.9021672,41.2906932 14.1402698,41.1787297 14.2710956,40.9726432 C14.4019213,40.7665568 14.4019213,40.5034432 14.2710956,40.2973568 C14.1402698,40.0912703 13.9021672,39.9793068 13.66,40.01 L11.77,40.01 C11.1768365,40.00734 10.6070549,40.241111 10.1866834,40.6596058 C9.76631201,41.0781006 9.52999404,41.6468305 9.53,42.24 L9.53,42.38 L4.74,42.38 L4.74,42.26 Z M25.36,42.4 C25.4291189,40.912299 26.6507216,39.7390331 28.14,39.73 L36,39.73 C37.4913307,39.7339654 38.7158618,40.9100439 38.78,42.4 L25.36,42.4 Z" id="Shape"></path>
        </g>
    </g>
</svg>