<?xml version="1.0" encoding="UTF-8" standalone="no"?>
<svg xmlns="http://www.w3.org/2000/svg" height="291px" width="1158px" version="1.1" xmlns:xlink="http://www.w3.org/1999/xlink" viewBox="0 0 1158 291"><!-- Generator: Sketch 54.1 (76490) - https://sketchapp.com -->
 <title>Illustration</title>
 <desc>Created with Sketch.</desc>
 <defs>
  <rect id="path-1" y="0" x="0" height="305.23" width="1240"/>
  <linearGradient id="linearGradient-3" y1="-15.689%" x2="91.151%" x1="8.4979%" y2="100%">
   <stop stop-color="#00A9AA" offset="0"/>
   <stop stop-color="#1FAD9D" offset="1"/>
  </linearGradient>
  <linearGradient id="linearGradient-9" y1="-28.175%" x2="43.141%" x1="57.696%" y2="92.933%">
   <stop stop-color="#00A9AA" offset="0"/>
   <stop stop-color="#00A9AA" offset="1"/>
  </linearGradient>
  <linearGradient id="linearGradient-10" y1="9.0489%" x2="43.141%" x1="84.042%" y2="92.933%">
   <stop stop-color="#209049" offset="0"/>
   <stop stop-color="#29A596" offset="1"/>
  </linearGradient>
  <linearGradient id="linearGradient-12" y1="-28.175%" x2="43.141%" x1="57.696%" y2="92.933%">
   <stop stop-color="#00A9AA" offset="0"/>
   <stop stop-color="#007071" offset="1"/>
  </linearGradient>
  <linearGradient id="linearGradient-13" y1="-28.175%" x2="43.413%" x1="57.696%" y2="90.677%">
   <stop stop-color="#BAFFB5" offset="0"/>
   <stop stop-color="#2BBAA9" offset="1"/>
  </linearGradient>
  <linearGradient id="linearGradient-14" y1="-28.175%" x2="43.413%" x1="57.696%" y2="90.677%">
   <stop stop-color="#BAFFB5" offset="0"/>
   <stop stop-color="#3CD8C5" offset="1"/>
  </linearGradient>
  <linearGradient id="linearGradient-16" y1="9.323%" x2="42.128%" x1="89.072%" y2="92.646%">
   <stop stop-color="#00A9AA" offset="0"/>
   <stop stop-color="#004344" offset="1"/>
  </linearGradient>
  <linearGradient id="linearGradient-18" y1="9.0489%" x2="43.141%" x1="84.042%" y2="92.933%">
   <stop stop-color="#00A9AA" offset="0"/>
   <stop stop-color="#00A9AA" offset="1"/>
  </linearGradient>
  <path id="path-20" d="m0.53235 0.34083c12.984 10.715 24.362 13.32 34.134 7.8155-0.038 0.4247 0.032 0.8654-0.082 1.2777-3.761 13.604 3 25.177 20.284 34.72-14.682 11.161-27.726 12.91-39.132 5.245-11.407-7.665-16.475-24.017-15.204-49.058z"/>
  <path id="path-22" d="m0.53235 0.34083c12.984 10.715 24.362 13.32 34.134 7.8155-0.038 0.4247 0.032 0.8654-0.082 1.2777-3.761 13.604 3 25.177 20.284 34.72-14.682 11.161-27.726 12.91-39.132 5.245-11.407-7.665-16.475-24.017-15.204-49.058z"/>
  <path id="path-24" d="m0.6175 0.54511c10.992 7.8855 22.248 9.6779 33.766 5.3766-4.964 12.609-1.767 22.59 9.592 29.942-11.716 8.997-22.125 10.407-31.227 4.228-9.1018-6.179-13.146-19.361-12.132-39.547z"/>
  <path id="path-26" d="m0.6175 0.54511c10.992 7.8855 22.248 9.6779 33.766 5.3766-4.964 12.609-1.767 22.59 9.592 29.942-11.716 8.997-22.125 10.407-31.227 4.228-9.1018-6.179-13.146-19.361-12.132-39.547z"/>
  <linearGradient id="linearGradient-29" y1="-28.175%" x2="43.334%" x1="57.696%" y2="91.333%">
   <stop stop-color="#007071" offset="0"/>
   <stop stop-color="#14AD9B" offset="1"/>
  </linearGradient>
  <linearGradient id="linearGradient-30" y1="-28.175%" x2="43.334%" x1="57.696%" y2="91.333%">
   <stop stop-color="#298123" offset="0"/>
   <stop stop-color="#0F9A89" offset="1"/>
  </linearGradient>
 </defs>
 <g id="Home" fill-rule="evenodd" fill="none">
  <g id="Launch" transform="translate(-154 -5377)">
   <g id="Footer" transform="translate(0 4657)">
    <g id="Illustration/Management" transform="translate(100 335)">
     <g transform="translate(0 370)">
      <mask id="mask-2" fill="white">
       <use xlink:href="#path-1"/>
      </mask>
      <g id="Innovative" mask="url(#mask-2)" fill-rule="evenodd">
       <g transform="translate(54.051 5.2991)">
        <path id="path-2" opacity=".096540" d="m0 236.21c27.867-40.25 55.733-60.38 83.6-60.38 41.8 0 65.46 31.95 96.08 14.02s213.42-143.52 322.41-104.69c113 40.25 232.86 15.4 359.58-74.562l270.03 65.428c-137.38 103.57-231.13 164.48-281.27 182.73-167.3 60.87-315.63 35.25-381.23-10.49-87.11-60.75-241.12 44.84-293.84 24.74-52.72-20.09-62.21-35.28-87.565-41.62-16.904-4.22-42.123 4.9-75.658 27.37l-12.137-22.55z" fill-rule="evenodd" fill="#007071"/>
        <g id="Group-64" fill-rule="evenodd" transform="translate(119.71 105.23)" fill="none">
         <g id="Group-21-Clipped" opacity="0.4" transform="translate(663.45 43.453)">
          <g id="Group-21">
           <g id="Group" transform="translate(80.872 71.994) rotate(-25) translate(-65.71 -48.222)">
            <g id="Group-19" transform="translate(40.663 31.42)">
             <path id="Path-31" fill-rule="nonzero" fill="#00A9AA" d="m4.129 49.446c19.8-27.596 40.658-40.876 62.576-39.838 6.043 0.2865 12.382 0.875 19.016 1.766-1.955 17.636-25.048 7.787-23.296 13.148 2.419 7.402-2.645 22.463-17.486 13.578-14.841-8.886-10.072 21.635-25.441 16.49-10.246-3.429-15.369-5.144-15.369-5.144z" transform="translate(44.925 32.365) rotate(-13) translate(-44.925 -32.365)"/>
             <path id="Combined-Shape" fill-rule="nonzero" fill="#1C9486" d="m38.938 15.176c0.336 0.797 0.63 1.823 0.872 3.123 1.526 8.204-8.483 21.524-30.028 39.96l-0.7653-0.074c8.2733-19.819 18.247-34.155 29.921-43.009z"/>
             <path id="Path-33" stroke="#0D6574" stroke-width="1.8802" d="m55.221 27.238c-7.947-3.911-16.794-3.582-26.541 0.989"/>
             <path id="Path-33-Copy" stroke="#0D6574" stroke-width="1.8802" d="m71.432 12.397c-7.948-3.9109-16.795-3.5811-26.541 0.99"/>
             <path id="Path-34" stroke="#0D6574" stroke-width="1.8802" d="m48.178 10.777c-18.005 13.889-28.963 29.589-32.873 47.101"/>
            </g>
            <g id="Group-7-Copy-4" transform="translate(45.241 48.222) scale(-1 1) translate(-44.512 -48.222)">
             <path id="Combined-Shape" fill-rule="nonzero" fill="#00A9AA" d="m5.5046 65.378c7.8324-22.676 15.145-35.314 21.939-37.914 10.192-3.899 6.232 14.184 10.755 10.851s8.816-17.852 16.993-17.852 0.169 13.633 5.137 10.427c4.967-3.206 15.112-16.915 22.031-7.325s-11.838 14.449-12.505 18.541c-0.668 4.091 8.705 2.432 7.021 8.59-1.684 6.159-18.693 7.298-21.684 10.87s12.971 2.979 3.187 11.347c-6.524 5.579-24.148 3.067-52.874-7.535zm46.279-26.14c2.34-5.98 2.925-9.014 1.755-9.104-1.17-0.089-1.755 2.946-1.755 9.104z" transform="translate(44.697 48.006) rotate(-60) translate(-44.697 -48.006)"/>
             <path id="Path-117" stroke="#0D6574" stroke-width="1.8802" d="m5.3504 68.488c31.404-7.285 55.239-20.374 71.504-39.268" transform="translate(41.102 48.854) rotate(-60) translate(-41.102 -48.854)"/>
             <path id="Path-118" stroke="#0D6574" stroke-width="1.8802" d="m35.453 76.167c2.824-4.348 4.186-11.183 4.085-20.505" transform="translate(37.498 65.915) rotate(-60) translate(-37.498 -65.915)"/>
             <path id="Path-119" stroke="#0D6574" stroke-width="1.8802" d="m45.247 34.286c8.309-0.458 13.951 0.974 16.926 4.297" transform="translate(53.71 36.393) rotate(-60) translate(-53.71 -36.393)"/>
             <path id="Path-120" stroke="#0D6574" stroke-width="1.8802" d="m41.686 19.962l0.159-6.774" transform="translate(41.765 16.575) rotate(-60) translate(-41.765 -16.575)"/>
            </g>
           </g>
          </g>
         </g>
         <g id="Rectangle-76-Clipped" fill-rule="nonzero" fill="#0D6574" transform="translate(304.17)">
          <path id="Rectangle-76" d="m12.031 0.49733h209.28c6.06 0 10.98 4.9159 10.98 10.98v173.56c0 6.06-4.92 10.98-10.98 10.98h-209.28c-6.0626 0-10.978-4.92-10.978-10.98l-0.0004-173.56c0-6.0668 4.9158-10.983 10.979-10.983z"/>
         </g>
         <g id="Rectangle-82-Clipped" opacity="0.2" fill-rule="nonzero" fill="url(#linearGradient-3)" transform="translate(321.13 43.453)">
          <path id="Rectangle-82" d="m3.8718 0.061174h191.08c1.97 0 3.56 1.5943 3.56 3.561v59.359c0 1.966-1.59 3.561-3.56 3.561h-191.08c-1.9649 0-3.5592-1.595-3.5592-3.561l-0.00002-59.359c0-1.9665 1.5943-3.5608 3.561-3.5608z"/>
         </g>
         <g id="Rectangle-79-Copy-Clipped" opacity="0.9" fill-rule="nonzero" fill="#004344" transform="translate(485.4 73.128)">
          <path id="Rectangle-79-Copy" transform="translate(28.406 17.955) rotate(-13) translate(-28.406 -17.955)" d="m11.588 8.3079l42.907-2.3737-5.405 24.042-37.502-2.074c-5.2007-0.288-9.2702-4.589-9.2702-9.797 0-5.209 4.0695-9.5094 9.2702-9.7971z"/>
         </g>
         <g id="Oval-33-Copy-2-Clipped" fill-rule="nonzero" fill="#004344" transform="translate(446.19 83.726)">
          <path id="Oval-33-Copy-2" d="m4.1382 28.879l4.2052-3.203c2.3396 3.084 5.9686 4.927 9.9076 4.927 6.868 0 12.435-5.577 12.435-12.457s-5.567-12.457-12.435-12.457c-6.095 0.0004-11.265 4.423-12.264 10.375l-5.2088-0.876c1.4237-8.4904 8.7878-14.79 17.473-14.79 9.785-0.00003 17.718 7.9461 17.718 17.748 0 9.802-7.933 17.748-17.718 17.748-5.608 0-10.784-2.63-14.113-7.015z"/>
         </g>
         <g id="Oval-34-Copy-Clipped" fill-rule="nonzero" fill="#004344" transform="translate(472.68 93.265)">
          <ellipse id="Oval-34-Copy" cy="6.2012" cx="6.7153" rx="6.0061" ry="6.0163"/>
         </g>
         <g id="Rectangle-80-Copy-Clipped" fill-rule="nonzero" fill="#004344" transform="translate(475.86 90.085)">
          <path id="Rectangle-80-Copy" transform="translate(12.284 6.7096) rotate(-11) translate(-12.284 -6.7096)" d="m3.6105 4.4496l16.88-1.4001c1.551-0.1288 2.914 1.0248 3.042 2.5764 0.007 0.0764 0.01 0.1531 0.01 0.2298l0.002 1.7015c0.002 1.557-1.259 2.8208-2.816 2.8228h-0.003-16.881c-1.5574 0-2.8196-1.2626-2.8196-2.8195v-0.3014c0-1.4667 1.1245-2.6883 2.5861-2.8095z"/>
         </g>
         <g id="Rectangle-81-Copy-Clipped" opacity="0.4" fill-rule="nonzero" fill="url(#linearGradient-3)" transform="translate(452.55 128.24)">
          <path id="Rectangle-81-Copy" transform="translate(33.088 23.383) rotate(-1) translate(-33.088 -23.383)" d="m3.7695 1.2731h58.638c1.802 0 3.263 1.4615 3.263 3.2643v37.692c0 1.803-1.461 3.264-3.264 3.264h-58.638c-1.8023 0-3.2638-1.461-3.2638-3.264l0.00003-37.692c0-1.8024 1.4615-3.2639 3.2643-3.2639z"/>
         </g>
         <g id="Rectangle-81-Copy-3-Clipped" opacity="0.4" fill-rule="nonzero" fill="url(#linearGradient-3)" transform="translate(322.19 128.24)">
          <path id="Rectangle-81-Copy-3" transform="translate(55.81 23.774) rotate(-1) translate(-55.81 -23.774)" d="m4.1378 1.6639h103.34c1.81 0 3.27 1.4615 3.27 3.2643v37.692c0 1.803-1.46 3.264-3.27 3.264h-103.34c-1.805 0-3.2665-1.461-3.2665-3.264l0.00004-37.692c0-1.8026 1.4615-3.2641 3.2643-3.2641z"/>
         </g>
         <g id="Rectangle-76-Copy-Clipped" fill-rule="nonzero" fill="url(#linearGradient-3)" transform="translate(304.17)">
          <path id="Rectangle-76-Copy" d="m12.031 0.49733h209.28c6.06 0 10.98 4.9159 10.98 10.98v18.5h-231.24l0.0016-18.5c0-6.0638 4.9158-10.98 10.979-10.98z"/>
         </g>
         <g id="Rectangle-77-Clipped" opacity=".5" fill-rule="nonzero" fill="#fff" transform="translate(366.7 10.598)">
          <path id="Rectangle-77" d="m3.949 1.0293h145.72c1.81 0 3.27 1.4614 3.27 3.2642v0.0895c0 1.8028-1.46 3.2642-3.27 3.2642h-145.72c-1.8038 0-3.2653-1.4614-3.2653-3.2642v-0.0895c0-1.8028 1.4615-3.2642 3.2643-3.2642z"/>
         </g>
         <g id="Oval-31-Clipped" fill-rule="nonzero" fill="#fff" transform="translate(313.71 11.658)">
          <ellipse id="Oval-31" cy="3.7297" cx="4.2761" rx="3.4535" ry="3.4594"/>
         </g>
         <g id="Oval-31-Copy-Clipped" fill-rule="nonzero" fill="#8EE988" transform="translate(329.61 11.658)">
          <ellipse id="Oval-31-Copy" cy="3.7297" cx="3.6942" rx="3.4535" ry="3.4594"/>
         </g>
         <g id="Oval-31-Copy-2-Clipped" fill-rule="nonzero" fill="#0D6574" transform="translate(344.44 11.658)">
          <ellipse id="Oval-31-Copy-2" cy="3.7297" cx="4.1721" rx="3.4535" ry="3.4594"/>
         </g>
         <g id="Group-56-Clipped" opacity="0.67" transform="translate(0 90.085)">
          <g id="Group-56">
           <g id="Group" transform="translate(1.0142 .95779)">
            <path id="Path-259" fill="#00A9AA" d="m53.034 71.725c0-3.603-31.336-12.455-29.065-23.156 2.272-10.7 1.494-22.695-16.194-14.811s1.4125-26.638-6.0854-33.758c23.374 1.0973 60.43 27.348 55.887 71.725-4.543 2.409-4.543 3.602-4.543 0z"/>
            <path id="Path-262" stroke="#0D6574" stroke-width="1.8802" d="m6.6067 3.309c29.95 20.481 45.365 45.148 46.246 74.001"/>
            <path id="Path-263" stroke="#0D6574" stroke-width="1.8802" d="m30.331 48.65c8.31-0.701 14.316 0.73 18.02 4.294-1.055-2.54-0.355-6.551 2.1-12.033"/>
            <path id="Path-264" stroke="#0D6574" stroke-width="1.8802" d="m13.514 19.553c8.928 0.66 14.935 2.365 18.018 5.114"/>
            <path id="Path-265" stroke="#0D6574" stroke-width="1.8802" d="m35.775 29.781c-0.186-6.307 0.302-9.717 1.463-10.228"/>
           </g>
          </g>
         </g>
         <g id="Group-56-Copy-Clipped" opacity="0.67" transform="translate(50.872 120.82)">
          <g id="Group-56-Copy">
           <g id="Group" transform="translate(29.336 38.988) scale(-1 1) translate(-28.615 -38.684)">
            <path id="Path-259" fill="#00A9AA" d="m51.532 71.725c0-3.603-31.336-12.455-29.064-23.156 2.271-10.7 5.53 8.011-9.25-8.065s-1.376-31.374-13.03-40.504c23.374 1.0973 60.431 27.348 55.888 71.725-4.544 2.409-4.544 3.602-4.544 0z"/>
            <path id="Path-262" stroke="#0D6574" stroke-width="1.8802" d="m5.1052 3.309c29.95 20.481 45.366 45.148 46.247 74.001"/>
            <path id="Path-263" stroke="#0D6574" stroke-width=".67303" d="m28.829 48.65c8.31-0.701 14.317 0.73 18.021 4.294-1.056-2.54-0.356-6.551 2.1-12.033"/>
            <path id="Path-264" stroke="#0D6574" stroke-width="1.8802" d="m12.012 19.553c8.929 0.66 14.935 2.365 18.018 5.114"/>
            <path id="Path-265" stroke="#0D6574" stroke-width="1.8802" d="m34.273 29.781c-0.186-6.307 0.302-9.717 1.463-10.228"/>
           </g>
          </g>
         </g>
         <g id="Path-72-Copy-6-Clipped" opacity=".59058" fill-rule="nonzero" fill="#fff" transform="translate(234.22 12.718)">
          <path id="Path-72-Copy-6" d="m22.15 32.669c-5.996-13.456-3.792-15.589 0-16.138 3.791-0.549 14.157 12.085 19.954 11.014 5.798-1.071 14.233-27.345 30.991-27.13 16.759 0.21552 9.855 24.97 14.967 24.97 5.111 0 2.604 1.113 10.267 1.113 7.661 0-3.707 11.515 12.571 11.515h-109.87c4.587-14.321 11.627-16.103 21.12-5.344z"/>
         </g>
         <g id="Oval-33-Clipped" fill-rule="nonzero" fill="url(#linearGradient-3)" transform="translate(446.19 75.248)">
          <path id="Oval-33" d="m4.1382 29.235l4.2052-3.202c2.3396 3.083 5.9686 4.927 9.9076 4.927 6.868 0 12.435-5.578 12.435-12.457 0-6.88-5.567-12.457-12.435-12.457-6.095-0.0001-11.265 4.423-12.264 10.375l-5.2088-0.877c1.4237-8.4898 8.7878-14.789 17.473-14.789 9.785-0.00046 17.718 7.9457 17.718 17.748 0 9.802-7.933 17.748-17.718 17.748-5.608 0-10.784-2.63-14.113-7.016z"/>
         </g>
         <g id="Oval-34-Clipped" fill-rule="nonzero" fill="#00A9AA" transform="translate(472.68 83.726)">
          <ellipse id="Oval-34" cy="6.1135" cx="6.7153" rx="6.0061" ry="6.0163"/>
         </g>
         <g id="Rectangle-80-Clipped" transform="translate(474.8 80.547)">
          <g id="Rectangle-80" transform="translate(13.243 6.9079) rotate(-11) translate(-12.188 -3.7094)">
           <g id="path-5-link" fill-rule="nonzero" fill="#000">
            <path id="path-5" d="m3.6105 1.4832l16.88-1.4001c1.551-0.12871 2.914 1.0248 3.042 2.5765 0.007 0.0764 0.01 0.153 0.01 0.2297l0.002 1.7015c0.002 1.557-1.259 2.8206-2.816 2.8224-0.001 0-0.002 0.0001-0.003 0.0001h-16.881c-1.5574 0-2.8196-1.2622-2.8196-2.8192v-0.3014c0-1.4666 1.1245-2.6882 2.5861-2.8095z"/>
           </g>
           <g id="path-5-link" fill="#fff">
            <path id="path-5" d="m3.6105 1.4832l16.88-1.4001c1.551-0.12871 2.914 1.0248 3.042 2.5765 0.007 0.0764 0.01 0.153 0.01 0.2297l0.002 1.7015c0.002 1.557-1.259 2.8206-2.816 2.8224-0.001 0-0.002 0.0001-0.003 0.0001h-16.881c-1.5574 0-2.8196-1.2622-2.8196-2.8192v-0.3014c0-1.4666 1.1245-2.6882 2.5861-2.8095z"/>
           </g>
          </g>
         </g>
         <g id="Oval-35-Clipped" fill-rule="nonzero" fill="#2F9BAE" transform="translate(542.63 31.795)">
          <path id="Oval-35" d="m58.341 67.456l-2.745-3.95c8.46-5.899 13.605-15.547 13.605-26.067 0-17.527-14.185-31.736-31.682-31.736-17.498 0-31.682 14.209-31.682 31.736h-4.8053c0-20.185 16.335-36.549 36.487-36.549 20.151-0.00012 36.487 16.364 36.487 36.549 0 12.112-5.928 23.228-15.665 30.017z"/>
         </g>
         <g id="Rectangle-79-Clipped" transform="translate(484.34 45.573)">
          <g id="Rectangle-79" transform="translate(59.778 28.089) rotate(-13) translate(-57.761 -15.367)">
           <g id="path-7-link" fill-rule="nonzero" fill="#000">
            <path id="path-7" d="m9.7632 6.0235l89.603-4.9569c8.144-0.45078 15.124 5.7893 15.574 13.937 0.01 0.272 0.02 0.544 0.02 0.816 0 8.161-6.62 14.777-14.78 14.777-0.27 0-0.542-0.008-0.814-0.023l-89.603-4.957c-5.2003-0.287-9.2698-4.588-9.2698-9.797h0.00004c0-5.208 4.0695-9.5088 9.27-9.7965z"/>
           </g>
           <g id="path-7-link" fill="#00A9AA">
            <path id="path-7" d="m9.7632 6.0235l89.603-4.9569c8.144-0.45078 15.124 5.7893 15.574 13.937 0.01 0.272 0.02 0.544 0.02 0.816 0 8.161-6.62 14.777-14.78 14.777-0.27 0-0.542-0.008-0.814-0.023l-89.603-4.957c-5.2003-0.287-9.2698-4.588-9.2698-9.797h0.00004c0-5.208 4.0695-9.5088 9.27-9.7965z"/>
           </g>
          </g>
         </g>
         <g id="Combined-Shape-Clipped" transform="translate(528.85 68.889)">
          <g id="Combined-Shape" transform="translate(11.202 6.4011) rotate(-13) translate(-10.069 -4.2393)">
           <g id="path-9-link" fill-rule="nonzero" fill="#000">
            <path id="path-9" d="m1.2807 0.17794c0.4146 0 0.7508 0.3367 0.7508 0.75204v6.0163c0 0.4154-0.3362 0.7521-0.7508 0.7521-0.41462 0-0.75075-0.3367-0.75075-0.7521v-6.0163c0-0.41536 0.33613-0.75206 0.75075-0.75206zm3.0031 0c0.4146 0 0.7507 0.3367 0.7507 0.75204v6.0163c0 0.4154-0.3361 0.7521-0.7507 0.7521-0.4147 0-0.7508-0.3367-0.7508-0.7521v-6.0163c0-0.41536 0.3361-0.75206 0.7508-0.75206zm3.003 0c0.4146 0 0.7508 0.3367 0.7508 0.75204v6.0163c0 0.4154-0.3362 0.7521-0.7508 0.7521s-0.7508-0.3367-0.7508-0.7521v-6.0163c0-0.41536 0.3362-0.75206 0.7508-0.75206zm3.0032 0c0.414 0 0.751 0.3367 0.751 0.75204v6.0163c0 0.4154-0.337 0.7521-0.751 0.7521-0.4148 0-0.7509-0.3367-0.7509-0.7521v-6.0163c0-0.41536 0.3361-0.75206 0.7509-0.75206zm3.003 0c0.415 0 0.751 0.3367 0.751 0.75204v6.0163c0 0.4154-0.336 0.7521-0.751 0.7521s-0.751-0.3367-0.751-0.7521v-6.0163c0-0.41536 0.336-0.75206 0.751-0.75206zm3.003 0c0.415 0 0.751 0.3367 0.751 0.75204v6.0163c0 0.4154-0.336 0.7521-0.751 0.7521s-0.751-0.3367-0.751-0.7521v-6.0163c0-0.41536 0.336-0.75206 0.751-0.75206zm3.003 0c0.415 0 0.751 0.3367 0.751 0.75204v6.0163c0 0.4154-0.336 0.7521-0.751 0.7521s-0.751-0.3367-0.751-0.7521v-6.0163c0-0.41536 0.336-0.75206 0.751-0.75206z"/>
           </g>
           <g id="path-9-link" fill="#0D6574">
            <path id="path-9" d="m1.2807 0.17794c0.4146 0 0.7508 0.3367 0.7508 0.75204v6.0163c0 0.4154-0.3362 0.7521-0.7508 0.7521-0.41462 0-0.75075-0.3367-0.75075-0.7521v-6.0163c0-0.41536 0.33613-0.75206 0.75075-0.75206zm3.0031 0c0.4146 0 0.7507 0.3367 0.7507 0.75204v6.0163c0 0.4154-0.3361 0.7521-0.7507 0.7521-0.4147 0-0.7508-0.3367-0.7508-0.7521v-6.0163c0-0.41536 0.3361-0.75206 0.7508-0.75206zm3.003 0c0.4146 0 0.7508 0.3367 0.7508 0.75204v6.0163c0 0.4154-0.3362 0.7521-0.7508 0.7521s-0.7508-0.3367-0.7508-0.7521v-6.0163c0-0.41536 0.3362-0.75206 0.7508-0.75206zm3.0032 0c0.414 0 0.751 0.3367 0.751 0.75204v6.0163c0 0.4154-0.337 0.7521-0.751 0.7521-0.4148 0-0.7509-0.3367-0.7509-0.7521v-6.0163c0-0.41536 0.3361-0.75206 0.7509-0.75206zm3.003 0c0.415 0 0.751 0.3367 0.751 0.75204v6.0163c0 0.4154-0.336 0.7521-0.751 0.7521s-0.751-0.3367-0.751-0.7521v-6.0163c0-0.41536 0.336-0.75206 0.751-0.75206zm3.003 0c0.415 0 0.751 0.3367 0.751 0.75204v6.0163c0 0.4154-0.336 0.7521-0.751 0.7521s-0.751-0.3367-0.751-0.7521v-6.0163c0-0.41536 0.336-0.75206 0.751-0.75206zm3.003 0c0.415 0 0.751 0.3367 0.751 0.75204v6.0163c0 0.4154-0.336 0.7521-0.751 0.7521s-0.751-0.3367-0.751-0.7521v-6.0163c0-0.41536 0.336-0.75206 0.751-0.75206z"/>
           </g>
          </g>
         </g>
         <g id="Rectangle-78-Clipped" transform="translate(561.71 41.333)">
          <g id="Rectangle-78" transform="translate(60.399 90.796) rotate(-25) translate(-25.436 -87.436)">
           <g id="path-11-link" fill-rule="nonzero" fill="#000" transform="translate(2.1197)">
            <path id="path-11" d="m14.722 0.01925c7.027 0 12.944 5.254 13.775 12.232l15.729 132.03-44.219-20.62 2.1586-111.32c0.1326-6.8451 5.7154-12.321 12.556-12.321z"/>
           </g>
           <g id="path-11-link" fill="#007071" transform="translate(0)">
            <path id="path-11" d="m16.842 0.01925c7.027 0 12.944 5.254 13.775 12.232l19.981 161.8-49.948-23.29 3.6352-138.42c0.1326-6.8451 5.7158-12.321 12.557-12.321z"/>
           </g>
          </g>
         </g>
         <g id="Combined-Shape-Copy-7-Clipped" transform="translate(606.22 120.82)">
          <g id="Combined-Shape-Copy-7" transform="translate(9.5424 12.259) rotate(63) translate(-10.598 -4.7694)">
           <g id="path-13-link" fill-rule="nonzero" fill="#000">
            <path id="path-13" d="m1.5334 1.0476c0.4146 0 0.7507 0.3367 0.7507 0.752v6.0164c0 0.4153-0.3361 0.752-0.7507 0.752-0.4147 0-0.75079-0.3367-0.75079-0.752v-6.0164c0-0.4153 0.33609-0.752 0.75079-0.752zm3.003 0c0.4146 0 0.7508 0.3367 0.7508 0.752v6.0164c0 0.4153-0.3362 0.752-0.7508 0.752s-0.7507-0.3367-0.7507-0.752v-6.0164c0-0.4153 0.3361-0.752 0.7507-0.752zm3.0031 0c0.4146 0 0.7507 0.3367 0.7507 0.752v6.0164c0 0.4153-0.3361 0.752-0.7507 0.752-0.4147 0-0.7508-0.3367-0.7508-0.752v-6.0164c0-0.4153 0.3361-0.752 0.7508-0.752zm3.0035 0c0.414 0 0.75 0.3367 0.75 0.752v6.0164c0 0.4153-0.336 0.752-0.75 0.752-0.415 0-0.7513-0.3367-0.7513-0.752v-6.0164c0-0.4153 0.3363-0.752 0.7513-0.752zm3.003 0c0.414 0 0.75 0.3367 0.75 0.752v6.0164c0 0.4153-0.336 0.752-0.75 0.752-0.415 0-0.751-0.3367-0.751-0.752v-6.0164c0-0.4153 0.336-0.752 0.751-0.752zm3.003 0c0.414 0 0.75 0.3367 0.75 0.752v6.0164c0 0.4153-0.336 0.752-0.75 0.752-0.415 0-0.751-0.3367-0.751-0.752v-6.0164c0-0.4153 0.336-0.752 0.751-0.752zm3.003 0c0.414 0 0.75 0.3367 0.75 0.752v6.0164c0 0.4153-0.336 0.752-0.75 0.752-0.415 0-0.751-0.3367-0.751-0.752v-6.0164c0-0.4153 0.336-0.752 0.751-0.752z"/>
           </g>
           <g id="path-13-link" fill="#0D6574">
            <path id="path-13" d="m1.5334 1.0476c0.4146 0 0.7507 0.3367 0.7507 0.752v6.0164c0 0.4153-0.3361 0.752-0.7507 0.752-0.4147 0-0.75079-0.3367-0.75079-0.752v-6.0164c0-0.4153 0.33609-0.752 0.75079-0.752zm3.003 0c0.4146 0 0.7508 0.3367 0.7508 0.752v6.0164c0 0.4153-0.3362 0.752-0.7508 0.752s-0.7507-0.3367-0.7507-0.752v-6.0164c0-0.4153 0.3361-0.752 0.7507-0.752zm3.0031 0c0.4146 0 0.7507 0.3367 0.7507 0.752v6.0164c0 0.4153-0.3361 0.752-0.7507 0.752-0.4147 0-0.7508-0.3367-0.7508-0.752v-6.0164c0-0.4153 0.3361-0.752 0.7508-0.752zm3.0035 0c0.414 0 0.75 0.3367 0.75 0.752v6.0164c0 0.4153-0.336 0.752-0.75 0.752-0.415 0-0.7513-0.3367-0.7513-0.752v-6.0164c0-0.4153 0.3363-0.752 0.7513-0.752zm3.003 0c0.414 0 0.75 0.3367 0.75 0.752v6.0164c0 0.4153-0.336 0.752-0.75 0.752-0.415 0-0.751-0.3367-0.751-0.752v-6.0164c0-0.4153 0.336-0.752 0.751-0.752zm3.003 0c0.414 0 0.75 0.3367 0.75 0.752v6.0164c0 0.4153-0.336 0.752-0.75 0.752-0.415 0-0.751-0.3367-0.751-0.752v-6.0164c0-0.4153 0.336-0.752 0.751-0.752zm3.003 0c0.414 0 0.75 0.3367 0.75 0.752v6.0164c0 0.4153-0.336 0.752-0.75 0.752-0.415 0-0.751-0.3367-0.751-0.752v-6.0164c0-0.4153 0.336-0.752 0.751-0.752z"/>
           </g>
          </g>
         </g>
         <g id="Oval-32-Clipped" transform="translate(576.55 61.47)">
          <g id="Oval-32">
           <g id="path-15-link" fill-rule="nonzero" fill="#000">
            <ellipse id="path-15" cy="6.5607" cx="6.9075" rx="6.1562" ry="6.1667"/>
           </g>
           <g id="path-15-link" fill="#fff">
            <ellipse id="path-15" cy="6.5607" cx="6.9075" rx="6.1562" ry="6.1667"/>
           </g>
          </g>
         </g>
         <g id="Oval-32-Copy-2-Clipped" transform="translate(600.92 108.1)">
          <g id="Oval-32-Copy-2">
           <g id="path-17-link" fill-rule="nonzero" fill="#000">
            <ellipse id="path-17" cy="3.8475" cx="3.5528" rx="3.4535" ry="3.4594"/>
           </g>
           <g id="path-17-link" fill="#00A9AA">
            <ellipse id="path-17" cy="3.8475" cx="3.5528" rx="3.4535" ry="3.4594"/>
           </g>
          </g>
         </g>
         <g id="Oval-32-Copy-3-Clipped" transform="translate(591.38 90.085)">
          <g id="Oval-32-Copy-3">
           <g id="path-19-link" fill-rule="nonzero" fill="#000">
            <ellipse id="path-19" cy="3.5147" cx="4.3824" rx="3.4535" ry="3.4594"/>
           </g>
           <g id="path-19-link" fill="#00A9AA">
            <ellipse id="path-19" cy="3.5147" cx="4.3824" rx="3.4535" ry="3.4594"/>
           </g>
          </g>
         </g>
         <g id="Oval-32-Copy-Clipped" transform="translate(492.82 79.487)">
          <g id="Oval-32-Copy">
           <g id="path-21-link" fill-rule="nonzero" fill="#000">
            <ellipse id="path-21" cy="5.2389" cx="5.798" rx="4.8049" ry="4.8131"/>
           </g>
           <g id="path-21-link" fill="#fff">
            <ellipse id="path-21" cy="5.2389" cx="5.798" rx="4.8049" ry="4.8131"/>
           </g>
          </g>
         </g>
         <g id="Rectangle-81-Copy-2-Clipped" opacity="0.8" fill-rule="nonzero" fill="#004344" transform="translate(387.9 97.504)">
          <path id="Rectangle-81-Copy-2" transform="translate(33.069 23.435) rotate(-1) translate(-33.069 -23.435)" d="m3.7504 1.3249h58.638c1.803 0 3.264 1.4614 3.264 3.2642v37.692c0 1.802-1.461 3.264-3.264 3.264h-58.638c-1.8024 0-3.2639-1.462-3.2639-3.264l0.00002-37.692c0-1.8027 1.4615-3.2641 3.2643-3.2641z"/>
         </g>
         <g id="Rectangle-81-Clipped" fill-rule="nonzero" fill="#E0FCF9" transform="translate(396.38 87.966)">
          <path id="Rectangle-81" transform="translate(33.403 23.347) rotate(-1) translate(-33.403 -23.347)" d="m4.0838 1.2372h58.637c1.803 0 3.265 1.4614 3.265 3.2642v37.692c0 1.803-1.462 3.264-3.265 3.264h-58.637c-1.803 0-3.2644-1.461-3.2644-3.264l-0.00004-37.692c0-1.8024 1.4614-3.2638 3.2642-3.2638z"/>
         </g>
         <g id="Rectangle-4-Clipped" fill-rule="nonzero" fill="#00A9AA" transform="translate(404.85 96.444)">
          <rect id="Rectangle-4" y=".30621" x=".91314" height="28.962" width="9.654"/>
         </g>
         <g id="Rectangle-4-Copy-Clipped" fill-rule="nonzero" fill="#00A9AA" transform="translate(424.99 109.16)">
          <rect id="Rectangle-4-Copy" y=".46024" x=".084346" height="16.09" width="9.654"/>
         </g>
         <g id="Rectangle-4-Copy-2-Clipped" fill-rule="nonzero" fill="#00A9AA" transform="translate(444.07 115.52)">
          <rect id="Rectangle-4-Copy-2" y=".53725" x=".31538" height="9.654" width="9.654"/>
         </g>
         <g id="Oval-33-Copy-Clipped" fill-rule="nonzero" fill="url(#linearGradient-3)" transform="translate(449.37 100.68)">
          <path id="Oval-33-Copy" d="m0.95868 3.7993l4.2052-3.2023c2.3398 3.0832 5.9681 4.9267 9.9071 4.9267v5.2913c-5.6071 0-10.784-2.63-14.112-7.0157z"/>
         </g>
        </g>
        <path id="Path-72-Copy-8" opacity=".20359" d="m1023.5 164.14c7.9-4.5 7.2-7.27 12.1-7.98s6.2 2.74 13.7 1.35c7.5-1.38 7.4-18.33 29.1-18.05 21.8 0.28 20.9 21.77 27.6 21.77 6.6 0 6.3-5.07 16.2-5.07s14.3 14.88 35.5 14.88h-161.61c13.01-1.6 22.11-3.9 27.41-6.9z" fill-rule="nonzero" fill="#00A9AA"/>
        <g id="Group-62" fill-rule="evenodd" transform="translate(3.8854 169.49)" fill="none">
         <path id="Path-344-Copy" fill-rule="nonzero" fill="url(#linearGradient-9)" d="m42.467 121.72c-1.641 1.49-3.074 2.49-4.301 2.98-5.302 2.14-10.131 3.37-10.131 5.05 9.189 0.76 15.113 1.01 17.772 0.75s3.187-3.18 1.585-8.78h-4.925z"/>
         <polygon id="Path-347" fill-rule="nonzero" points="26.827 97.576 42.632 121.78 47.326 121.78 37.077 88.539 26.827 85.552" fill="#004344"/>
         <path id="Path-345-Copy" fill-rule="nonzero" fill="#EABB92" d="m39.701 75.96l-3.067 0.328c-2.036 0.456-3.535 0.346-4.496-0.328-0.962-0.675-2.21-0.042-3.745 1.898h-0.985c1.157-3.695 2.391-5.534 3.703-5.518 1.968 0.024 7.985 0.425 8.944-0.024 0.64-0.299 0.522 0.916-0.354 3.644z"/>
         <path id="Path-346" fill-rule="nonzero" fill="url(#linearGradient-10)" d="m57.56 69.375c-3.94 2.421-7.206 4.096-9.797 5.023-2.592 0.928-6.132 1.276-10.62 1.043l-2.2-4.992 21.599-9.455 1.018 8.381z"/>
         <path id="Path-345" fill-rule="nonzero" fill="#FFD7B3" d="m33.114 74.375l-3.067 0.328c-2.036 0.456-3.535 0.347-4.496-0.328-0.962-0.675-2.21-0.042-3.745 1.898h-0.985c1.157-3.695 2.391-5.534 3.703-5.518 1.968 0.025 7.985 0.425 8.944-0.024 0.64-0.299 0.522 0.916-0.354 3.644z"/>
         <path id="Path-344" fill-rule="nonzero" fill="url(#linearGradient-9)" d="m27.566 122.03c-8.888 2.98-13.332 5.64-13.332 7.98 9.485 0.78 15.599 1.04 18.344 0.77 2.744-0.26 3.29-3.28 1.636-9.06l-6.648 0.31z"/>
         <path id="Path-343" fill-rule="nonzero" fill="#004344" d="m60.374 78.28c-26.084-1.951-45.722-2.108-47.789 1.246-2.087 3.388 2.843 17.569 14.791 42.544l6.914-0.46c-2.584-17.61-4.121-28.336-4.613-32.184 8.726 6.789 21.277 12.924 35.948 9.557 3.998-1.17 6.415-7.655 7.25-19.457-8.16-0.818-12.327-1.233-12.501-1.246z"/>
         <polyline id="Path-348" stroke="#fff" stroke-width=".97216" points="31.32 103.94 29.772 92.035 36.975 95.527"/>
         <path id="Rectangle-73" fill-rule="nonzero" fill="#42D4C3" d="m8.5849 50.476h0.0125c0.5162 0 0.9348 0.418 0.9348 0.935v27.926c0 0.517-0.4186 0.935-0.9348 0.935h-0.0125c-0.5162 0-0.9347-0.418-0.9347-0.935v-27.926c0-0.517 0.4185-0.935 0.9347-0.935z" transform="translate(8.5912 65.374) rotate(-27) translate(-8.5912 -65.374)"/>
         <path id="Rectangle-73-Copy" fill-rule="nonzero" fill="#00A9AA" d="m29.31 61.521h0.012c0.516 0 0.935 0.419 0.935 0.935v27.927c0 0.516-0.419 0.934-0.935 0.934h-0.012c-0.517 0-0.935-0.418-0.935-0.934v-27.927c0-0.516 0.418-0.935 0.935-0.935z" transform="translate(29.316 76.419) rotate(85) translate(-29.316 -76.419)"/>
         <path id="Path-338" fill-rule="nonzero" fill="url(#linearGradient-12)" d="m63.166 29.557c3.12 0.231 5.753 0.594 7.897 1.09 1.729 0.401 4.948 6.949 2.026 19.126-0.135 0.563-0.81 1.153-2.026 1.772l-7.897-21.988z"/>
         <g id="Group-23" fill-rule="nonzero" transform="translate(52.707 19.232) rotate(-11) translate(-13.248 -16.957)">
          <polygon id="Path-157" points="11.884 24.763 11.884 32.915 19.674 31.963 17.88 22.154" fill="#FFD7B3"/>
          <path id="Path-156" fill="#FFD7B3" d="m4.7488 12.461c-1.4905 5.289-1.9353 8.745-1.3344 10.368 0.1564 0.422 1 0.37 1.327 0.81 0.5289 0.711 0.0165 2.107 1.1648 3.046 4.0062 3.274 12.816 0.221 15.241-1.456 1.024-0.708-0.012-4.5-4.874-7.684-1.874-1.227-5.716-2.922-11.524-5.084z"/>
          <path id="Path-154" fill="#004344" d="m3.3172 15.721c-3.0682 1.486-3.5606-3.085-1.5478-3.085-3.4149-2.448-1.7042-11.575 4.5036-12.283 11.407-1.3002 8.146 6.5784 12.534 5.6845 4.656-0.9483 7.933 5.6705 7.668 10.106-0.119 1.99-1.05 3.506-3.254 4.835 0.518 0 1.483 1.294 0.821 2.603-0.528 1.046-1.674 1.826-2.713 1.292 0.53 2.646-6.03 2.204-8.677-7.32-2.9653-2.066-6.8501 0.855-9.3348-1.833z"/>
          <polygon id="Path-336" points="16.27 5.0384 12.574 17.645 14.877 18.309 18.775 6.0645" fill="url(#linearGradient-13)"/>
          <path id="Path-336-Copy" fill="#fff" d="m13.52 17.917c0.243-0.023 0.406-0.023 0.488 0 0.083 0.024 1.398-4.039 3.946-12.189l-0.598-0.2446-3.836 12.434z"/>
          <ellipse id="Oval-17-Copy" rx="3.1367" ry="3.1698" cy="19.97" cx="12.86" fill="url(#linearGradient-14)"/>
          <ellipse id="Oval-17-Copy-3" rx="1.4832" ry="1.4989" cy="19.884" cx="12.775" fill="#fff"/>
         </g>
         <path id="Path-337" fill-rule="nonzero" fill="url(#linearGradient-12)" d="m50.757 40.954c-0.07-2.251 1.178-4.597 3.746-7.037s5.456-3.889 8.664-4.346c3.742 3.775 6.469 8.833 8.183 15.174 1.594 5.897 2.16 16.423 1.697 31.579-0.035 1.14 2.269 0 2.269 3.264-1.609 2.213-4.992 3.1-7.033 3.29-1.361 0.126-6.26-0.294-14.697-1.26-3.061-2.618-2.852-4.496 0.628-5.634-0.683-14.22-1.368-25.115-2.055-32.686-0.934 0-1.402-0.781-1.402-2.344z"/>
         <path id="Path-341" opacity="0.3" fill-rule="nonzero" fill="#004344" d="m54.272 75.628c7.272-10.306 11.028-19.671 11.269-28.095-3.024 1.721-7.118 7.301-12.282 16.739l1.013 11.356z"/>
         <path id="Path-339" fill-rule="nonzero" fill="url(#linearGradient-16)" d="m56.565 41.106l-6.263 18.078c-1.174 3.389-3.92 6.11-7.482 7.413l-11.293 4.134 1.18 4.289 10.1-1.303c7.128-0.92 13.419-4.805 17.098-10.559 1.151-1.8 1.837-2.915 2.057-3.344 0.477-0.931 1.675-4.31 3.594-10.137l-8.991-8.571z"/>
         <path id="Path-340" stroke-linejoin="round" d="m54.107 70.342c6.639-8.104 10.41-15.473 11.316-22.107" stroke="#004344" stroke-linecap="round" stroke-width=".93477"/>
         <path id="Path-342" stroke-linejoin="round" d="m52.765 50.318c2.28-6.709 4.119-10.108 5.516-10.198" stroke="#004344" stroke-linecap="round" stroke-width=".93477"/>
         <path id="Path-161" fill-rule="nonzero" fill="#00A9AA" d="m58.349 75.447c5.676-3.521 6.034-19.341 14.908-19.341 7.999 0 9.621 22.549 6.45 30.649-3.11 6.536-4.344 14.945-20.269 14.945-10.28 0-19.389-2.59-27.325-7.778 0.232-6.4 2.134-10.317 5.706-11.751 5.358-2.151 14.854-3.203 20.53-6.724z"/>
         <path id="Path-163" fill-rule="nonzero" fill="#004344" d="m37.66 93.424c0.642 0.108 1.085 0.7 1.009 1.346l-4.546 38.35c-0.04 0.35-0.351 0.59-0.695 0.55h-0.001c-0.347-0.04-0.598-0.35-0.566-0.7l3.547-38.582c0.054-0.592 0.579-1.029 1.172-0.974 0.027 0.002 0.053 0.006 0.08 0.01z" transform="translate(35.768 113.54) rotate(16) translate(-35.768 -113.54)"/>
         <path id="Path-163-Copy-6" fill-rule="nonzero" fill="#004344" d="m81.36 93.424c0.641 0.108 1.085 0.7 1.009 1.346l-4.546 38.35c-0.04 0.35-0.352 0.59-0.695 0.55h-0.001c-0.347-0.04-0.598-0.35-0.566-0.7l3.547-38.582c0.054-0.592 0.579-1.029 1.172-0.974 0.026 0.002 0.053 0.006 0.08 0.01z" transform="translate(79.468 113.54) scale(-1 1) rotate(16) translate(-79.468 -113.54)"/>
         <path id="Path-161-Copy-2" stroke-linejoin="round" d="m32.113 93.922c0.232-6.4 2.134-10.317 5.706-11.751 5.358-2.151 14.854-3.203 20.53-6.724s6.034-19.341 14.908-19.341" stroke="#004344" stroke-linecap="round" stroke-width=".93477"/>
        </g>
        <g id="Group-63" fill-rule="evenodd" transform="translate(316.02 72.954)" fill="none">
         <path id="Oval-28" stroke="url(#linearGradient-9)" stroke-width="2.2256" d="m38.057 29.352c0.731-1.819 1.133-3.807 1.133-5.888 0-8.722-7.059-15.793-15.766-15.793-8.708-0.0002-15.766 7.071-15.766 15.793-0.0002 4.81 2.1469 9.119 5.534 12.015"/>
         <path id="Oval-28-Copy" stroke="#56A096" stroke-width="1.7805" d="m33.334 23.464c0-2.586-0.987-4.941-2.604-6.707m-7.306-3.22c-2.74 0-5.22 1.113-7.014 2.913m-2.896 7.014c0 2.655 1.041 5.067 2.736 6.849 1.805 1.896 4.352 3.078 7.174 3.078"/>
         <path id="Oval-28-Copy-2" stroke="#0D6574" stroke-width="3.561" d="m0 23.464c0 6.482 2.6328 12.35 6.8889 16.597 4.2521 4.243 10.125 6.866 16.612 6.866 4.419 0 8.554-1.218 12.085-3.336m11.261-20.127c0-12.959-10.487-23.464-23.423-23.464"/>
        </g>
        <ellipse id="Oval-29" fill-rule="nonzero" rx="4.6547" cy="166.34" ry="4.6627" cx="139.8" fill="url(#linearGradient-18)"/>
        <path id="Path-350" stroke-linejoin="round" d="m42.046 172.62c29.595-23.62 58.984-28.02 88.164-13.19" stroke="#00A9AA" stroke-linecap="round" stroke-width="2.1197" fill="none"/>
        <g id="Group-66" fill-rule="nonzero" transform="translate(242.95 138.82)" fill="none">
         <path id="Path-358" fill="#004344" d="m15.932 153.66c-4.557 1.89-6.8359 3.53-6.8359 4.91s0.0493 2.19 0.1479 2.43h11.939v-7.34h-5.251z"/>
         <path id="Path-358-Copy" fill="#004344" d="m67.982 153.66c-4.557 1.89-6.836 3.53-6.836 4.91s0.049 2.19 0.148 2.43h11.939v-7.34h-5.251z" transform="translate(67.189 157.33) scale(-1 1) translate(-67.189 -157.33)"/>
         <path id="Path-357" fill="#FFD7B3" d="m20.744 107.91l-4.584 45.59c-0.121 1.2 0.753 2.27 1.953 2.39 0.072 0.01 0.145 0.01 0.218 0.01 1.404 0 2.615-0.99 2.896-2.36l9.328-45.63h-9.811z"/>
         <path id="Path-357-Copy" fill="#FFD7B3" d="m55.978 107.91l-11.949 44.38c-0.266 0.99 0.318 2 1.304 2.27 0.157 0.04 0.319 0.06 0.481 0.06 1.452 0 2.751-0.9 3.262-2.26l16.712-44.45h-9.81z" transform="translate(54.876 131.27) scale(-1 1) translate(-54.876 -131.27)"/>
         <polygon id="Path-356" points="21.67 82.643 19.63 112.86 32.377 112.86 36.002 95.035 38.085 95.035 43.099 112.86 55.202 111.83 47.994 82.643" fill="url(#linearGradient-3)"/>
         <path id="Path-354" fill="#FFD7B3" d="m51.433 35.047l8.026-3.043-1.717-27.073c1.345-3.113 2.291-4.6279 2.839-4.545 0.547 0.08293 0.821 1.5978 0.821 4.5447 5.493-3.8584 8.379-5.3733 8.656-4.5447 0.417 1.243-3.734 10.186-5.116 11.108-0.921 0.615-0.461 8.956 1.382 25.024l-10.983 6.816-3.908-8.287z"/>
         <path id="Path-353" fill="#004344" d="m26.393 38.25c-5.564-0.016-8.825 0.428-9.781 1.334s-3.597 4.657-7.9244 11.256l7.6784 6.404 3.797-4.573v32.067c14.414 1.848 23.72 1.406 27.921-1.328-2.358-9.792-3.821-21.417-4.389-34.875l12.152-4.984-3.304-8.853-12.675 3.552h-13.475z"/>
         <path id="Path-352" fill="#FFD7B3" d="m27.735 29.098l-1.392 9.085h-3.6c3.559 4.436 7.071 6.48 10.535 6.13 3.465-0.349 5.682-2.393 6.65-6.13h-4.41l-0.97-9.085h-6.813z"/>
         <path id="Combined-Shape" opacity="0.2" fill="#004344" d="m34.95 34.239c-0.021 0.009-0.042 0.019-0.063 0.029-1.312 0.599-2.458 0.941-3.438 1.027-0.968 0.085-2.141-0.05-3.518-0.403-0.352-0.09-0.696-0.201-1.029-0.331l0.833-5.463h6.813l0.402 5.141z"/>
         <g id="Group-65" transform="translate(30.734 22.39) rotate(-6) translate(-10.599 -12.188)">
          <path id="Rectangle-74" fill="#FFD7B3" d="m2.8061 3.6184h14.522v13.177c0 2.945-1.863 5.568-4.643 6.538-1.01 0.352-1.883 0.528-2.618 0.528-0.7348 0-1.6073-0.176-2.617-0.528-2.7809-0.97-4.6439-3.593-4.6439-6.538v-13.177z"/>
          <path id="Path-351" fill="#004344" d="m2.7839 17.987l1.0908-10.911c6.1633 2.0151 10.488 2.5361 12.974 1.5635-0.05 1.2907 0.132 3.9205 0.545 7.8905 2.396-5.109 3.482-10.568 3.259-16.375-3.286 2.1877-17.468-0.61426-18.276 0.79831-3.0886 1.8486-2.9529 7.5265 0.4069 17.034z"/>
          <path id="Oval-30" fill="#FFD7B3" d="m3.1834 14.761c0.5398 0 0.5381-1.334 0.5381-2.415 0-1.08 0.2016-1.584-0.3382-1.584s-1.624-0.071-1.624 1.01 0.8843 2.989 1.4241 2.989z"/>
          <path id="Oval-30-Copy" fill="#FFD7B3" d="m17.844 14.761c0.54 0 0.539-1.334 0.539-2.415 0-1.08 0.201-1.584-0.339-1.584-0.539 0-1.624-0.071-1.624 1.01s0.885 2.989 1.424 2.989z" transform="translate(17.42 12.761) scale(-1 1) translate(-17.42 -12.761)"/>
         </g>
         <path id="Path-355" fill="#FFD7B3" d="m8.9022 50.855l-8.7177 14.325 17.204 13.379c0.772 1.937 1.393 3.291 1.861 4.062 0.469 0.771 0.909 1.479 1.32 2.123v-6.984l2.803 2.358c0.431-0.917 0.185-2.01-0.599-2.652l-2.204-1.809-11.667-11.755 6.845-7.206-6.8448-5.841z"/>
        </g>
        <g id="Group-67" fill-rule="evenodd" transform="translate(314.12 250.42)" fill="none">
         <path id="Path-313" fill-rule="nonzero" fill="#007071" d="m59.308 48.394c-5.364-33.795-20.839-49.778-46.425-47.949-38.379 2.7444 24.645 15.203 18.501 21.315-6.143 6.111-13.063 10.482-9.694 16.547 2.246 4.044 14.785 7.406 37.618 10.087z"/>
         <path id="Combined-Shape" opacity="0.3" fill-rule="nonzero" fill="#004344" d="m47.184 15.219c5.092 6.912 8.82 16.226 11.184 27.943l-1.579 4.295-7.915-0.676c-4.77-16.404-5.333-26.925-1.69-31.562z"/>
         <path id="Path-315" stroke-linejoin="round" d="m16.31 7.1276c20.371 4.3154 32.257 16.335 35.659 36.06" stroke="#004344" stroke-linecap="round" stroke-width="1.1076"/>
         <polyline id="Path-316" stroke-linejoin="round" stroke="#004344" stroke-linecap="round" stroke-width="1.1076" points="35.917 30.397 48.499 30.397 48.499 20.315"/>
         <path id="Path-317" stroke-linejoin="round" d="m27.758 5.9946l4.778 7.0874" stroke="#004344" stroke-linecap="round" stroke-width="1.1076"/>
         <path id="Path-313-Copy" fill-rule="nonzero" fill="#00A9AA" d="m88.914 48.203c5.954-0.12 8.852-0.687 8.695-1.699-3.192-20.527-22.105-33.815-38.143-33.815-25.836 0 13.993 11.554 7.85 17.665-6.144 6.112-12.618 3.69-9.249 9.755 2.246 4.044 12.528 6.742 30.847 8.094z" transform="translate(74.136 30.446) scale(-1 1) translate(-74.136 -30.446)"/>
         <path id="Path-318" stroke-linejoin="round" d="m53.91 45.268c9.566-14.444 18.043-22.114 25.432-23.01" stroke="#004344" stroke-linecap="round" stroke-width="1.1076"/>
         <path id="Path-319" stroke-linejoin="round" d="m61.153 36.082c10.934-1.076 18.345 0.026 22.235 3.309" stroke="#004344" stroke-linecap="round" stroke-width="1.1076"/>
        </g>
        <path id="Path-359-Copy" stroke-linejoin="round" d="m428.54 289.23h33.26" stroke="#004344" stroke-linecap="round" stroke-width=".59350" fill="none"/>
        <g id="Group-68" fill-rule="evenodd" transform="translate(606.22 48.994)" fill="none">
         <g id="Rectangle-75" transform="translate(38.327 38.134) rotate(-29) translate(-27.555 -27.555)">
          <g id="path-32-link" fill-rule="nonzero" fill="#000">
           <path id="path-32" d="m0.53235 0.34083c12.984 10.715 24.362 13.32 34.134 7.8155-0.038 0.4247 0.032 0.8654-0.082 1.2777-3.761 13.604 3 25.177 20.284 34.72-14.682 11.161-27.726 12.91-39.132 5.245-11.407-7.665-16.475-24.017-15.204-49.058z"/>
          </g>
          <g id="path-32-link" fill="#E0FCF9">
           <path id="path-32" d="m0.53235 0.34083c12.984 10.715 24.362 13.32 34.134 7.8155-0.038 0.4247 0.032 0.8654-0.082 1.2777-3.761 13.604 3 25.177 20.284 34.72-14.682 11.161-27.726 12.91-39.132 5.245-11.407-7.665-16.475-24.017-15.204-49.058z"/>
          </g>
         </g>
         <g id="Rectangle-75-Copy-Clipped" transform="translate(10.598 10.598)">
          <mask id="mask-21" fill="white">
           <use xlink:href="#path-20"/>
          </mask>
          <g id="Rectangle-75-Copy" mask="url(#mask-21)">
           <g id="path-35-link" transform="translate(50.275 56.755) rotate(-29) translate(-5.829 -5.829)">
            <path id="path-35" fill-rule="nonzero" fill="#000" d="m11.395 1.3576c-4.4073 6.7888-8.0697 10.02-10.987 9.6954 2.8262-5.0792 2.3362-6.8114 2.4197-10.159 3.8458 2.1238 6.7016 2.2782 8.5673 0.4636z"/>
            <path id="path-35" fill="#00A9AA" d="m11.395 1.3576c-4.4073 6.7888-8.0697 10.02-10.987 9.6954 2.8262-5.0792 2.3362-6.8114 2.4197-10.159 3.8458 2.1238 6.7016 2.2782 8.5673 0.4636z"/>
           </g>
          </g>
         </g>
         <g id="Path-360-Clipped" transform="translate(10.598 10.598)">
          <mask id="mask-23" fill="white">
           <use xlink:href="#path-22"/>
          </mask>
          <g id="Path-360" mask="url(#mask-23)">
           <g id="path-37-link" transform="translate(15.897 42.393)">
            <path id="path-37" fill-rule="nonzero" fill="#000" d="m3.3075 8.8649c6.7685-0.4045 12.158-3.3134 16.17-8.7267 1.479 3.0486 4.796 5.4459 9.029 6.205 2.821 0.506 1.781 2.6933-3.122 6.5618-15.628 0.276-23.783-0.004-24.465-0.841-0.68132-0.836 0.1144-1.903 2.3875-3.1991z"/>
            <path id="path-37" fill="#00A9AA" d="m3.3075 8.8649c6.7685-0.4045 12.158-3.3134 16.17-8.7267 1.479 3.0486 4.796 5.4459 9.029 6.205 2.821 0.506 1.781 2.6933-3.122 6.5618-15.628 0.276-23.783-0.004-24.465-0.841-0.68132-0.836 0.1144-1.903 2.3875-3.1991z"/>
           </g>
          </g>
         </g>
        </g>
        <g id="Group-68-Copy" fill-rule="evenodd" transform="translate(338.24 190.31)" fill="none">
         <g id="Rectangle-75" transform="translate(30.755 30.711) rotate(-29) translate(-22.256 -22.256)">
          <g id="path-39-link" fill-rule="nonzero" fill="#000">
           <path id="path-39" d="m0.6175 0.54511c10.992 7.8855 22.248 9.6779 33.766 5.3766-4.964 12.609-1.767 22.59 9.592 29.942-11.716 8.997-22.125 10.407-31.227 4.228-9.1018-6.179-13.146-19.361-12.132-39.547z"/>
          </g>
          <g id="path-39-link" fill="#E0FCF9">
           <path id="path-39" d="m0.6175 0.54511c10.992 7.8855 22.248 9.6779 33.766 5.3766-4.964 12.609-1.767 22.59 9.592 29.942-11.716 8.997-22.125 10.407-31.227 4.228-9.1018-6.179-13.146-19.361-12.132-39.547z"/>
          </g>
         </g>
         <g id="Rectangle-75-Copy-Clipped" transform="translate(8.4786 8.4786)">
          <mask id="mask-25" fill="white">
           <use xlink:href="#path-24"/>
          </mask>
          <g id="Rectangle-75-Copy" mask="url(#mask-25)">
           <g id="path-42-link" transform="translate(40.755 45.918) rotate(-29) translate(-4.769 -4.769)">
            <path id="path-42" fill-rule="nonzero" fill="#000" d="m8.7718 1.0404c-3.5169 5.4725-6.4394 8.0776-8.7676 7.8154 2.2555-4.0942 1.8644-5.4907 1.9311-8.1888 3.0688 1.7117 5.3477 1.8361 6.8365 0.3734z"/>
            <path id="path-42" fill="#00A9AA" d="m8.7718 1.0404c-3.5169 5.4725-6.4394 8.0776-8.7676 7.8154 2.2555-4.0942 1.8644-5.4907 1.9311-8.1888 3.0688 1.7117 5.3477 1.8361 6.8365 0.3734z"/>
           </g>
          </g>
         </g>
         <g id="Path-360-Clipped" transform="translate(8.4786 8.4786)">
          <mask id="mask-27" fill="white">
           <use xlink:href="#path-26"/>
          </mask>
          <g id="Path-360" mask="url(#mask-27)">
           <g id="path-44-link" transform="translate(12.718 33.915)">
            <path id="path-44" fill-rule="nonzero" fill="#000" d="m2.7999 7.6761c5.4013-0.326 9.7021-2.671 12.903-7.0348 1.181 2.4576 3.828 4.3901 7.205 5.002 2.252 0.4079 1.422 2.1711-2.49 5.2897-12.472 0.223-18.979-0.003-19.523-0.678-0.54396-0.6743 0.09102-1.534 1.9049-2.5789z"/>
            <path id="path-44" fill="#00A9AA" d="m2.7999 7.6761c5.4013-0.326 9.7021-2.671 12.903-7.0348 1.181 2.4576 3.828 4.3901 7.205 5.002 2.252 0.4079 1.422 2.1711-2.49 5.2897-12.472 0.223-18.979-0.003-19.523-0.678-0.54396-0.6743 0.09102-1.534 1.9049-2.5789z"/>
           </g>
          </g>
         </g>
        </g>
        <polygon id="Triangle" fill-rule="nonzero" transform="translate(149.56 245.01) rotate(32) translate(-149.56 -245.01)" points="149.56 235.98 158.56 254.03 140.55 254.03" fill="#004344"/>
        <g id="Group-69" fill-rule="evenodd" transform="translate(416.83 140.93)" fill="none">
         <path id="Path-370" fill-rule="nonzero" fill="#FFD7B3" d="m16.677 108.85c-1.123 23.94-3.379 39.03-6.7704 45.26 2.2564 0.24 3.9524 0.24 5.0864 0 9.116-22.84 12.833-38.26 11.151-46.24-2.489-1.11-5.645-0.79-9.467 0.98z"/>
         <path id="Path-368" fill-rule="nonzero" fill="#FFD7B3" d="m32.118 108.17c4.816 25.03 7.224 40.29 7.224 45.8 2.968-0.1 4.925-0.1 5.869 0-0.248-8.66-0.484-14.77-0.708-18.33-1.19-18.88-2.454-28.67-3.048-29.7l-9.337 2.23z"/>
         <path id="Path-367" fill-rule="nonzero" fill="#004344" d="m10.237 75.234c-1.9589 7.562 4.142 26.086 4.495 27.546 0.235 0.98 0.353 3.38 0.353 7.22 6.226 1.35 10.875 1.95 13.947 1.81 3.072-0.15 7.623-1.17 13.651-3.09l-5.253-31.952-27.193-1.534z"/>
         <path id="Path-366" fill-rule="nonzero" fill="url(#linearGradient-3)" d="m53.368 15.798h8.279c-0.977-3.275-1.911-4.913-2.803-4.913h-3.843l-1.633 4.913z"/>
         <g id="Path-365" transform="translate(33.915 9.5385)">
          <g id="path-46-link" fill-rule="nonzero" fill="#000">
           <path id="path-46" d="m25.119 1.4714c-6.653 0-1.872 14.897-7.355 16.486-2.468 0.716-4.29 4.595-2.468 6.525 1.214 1.286 1.052 4.376-0.486 9.269l-11.671-0.989c-1.5968-4.851-2.395-8.933-2.395-12.243 0.00001-4.966 6.8401-2.458 6.0416-8.735-0.7985-6.2776-0.3061-9.1926 1.906-10.313 8.4454-0.67377 13.921-0.67377 16.427 0.0004z"/>
          </g>
          <g id="path-46-link" fill="#E0FCF9">
           <path id="path-46" d="m25.119 1.4714c-6.653 0-1.872 14.897-7.355 16.486-2.468 0.716-4.29 4.595-2.468 6.525 1.214 1.286 1.052 4.376-0.486 9.269l-11.671-0.989c-1.5968-4.851-2.395-8.933-2.395-12.243 0.00001-4.966 6.8401-2.458 6.0416-8.735-0.7985-6.2776-0.3061-9.1926 1.906-10.313 8.4454-0.67377 13.921-0.67377 16.427 0.0004z"/>
          </g>
         </g>
         <path id="Path-364" fill-rule="nonzero" fill="#FFD7B3" d="m50.097 32.449c-0.932-2.486-1.531-3.883-1.796-4.19-0.398-0.461-1.496-3.551-0.398-3.067 1.097 0.484 1.961 2.62 2.872 1.922 0.608-0.465 1.959-2.65 4.055-6.554 1.698 1.429 2.445 2.668 2.241 3.717s-1.298 3.085-3.283 6.108v2.801l-3.691-0.737z"/>
         <g id="Group-70" fill-rule="nonzero" fill="#FFD7B3" transform="translate(19.219 10.829)">
          <path id="Path-362" d="m14.032 5.7532e-14c2.526 7.1517 3.126 11.153 1.8 12.003-1.327 0.851-3.523 1.724-6.5896 2.62l2.7576 10.044h-7.7317l-4.2683-23.357 14.032-1.31z"/>
         </g>
         <path id="Path-363" fill-rule="nonzero" fill="#00A9AA" d="m12.469 36.699l-3.1855 40.022c7.5785 2.178 13.364 2.985 17.352 2.42 3.99-0.565 7.871-1.107 11.644-1.626l-2.983-25.873c3.799 8.082 7.146 11.829 10.041 11.242 2.813-0.57 5.852-10.179 9.115-28.827 0.222-1.265-0.625-2.471-1.89-2.693-0.133-0.023-0.267-0.034-0.401-0.034-1.616 0-3.025 1.1-3.415 2.668-2.376 9.536-3.967 14.304-4.775 14.304-1.484 0-4.901-19.689-14.896-16.605-3.691 1.138-9.227 2.806-16.607 5.002z"/>
         <path id="Path-361" fill-rule="nonzero" fill="#004344" d="m14.599 1.7508c-8.3952 5.3834-2.288 10.4-5.3572 12.641-4.0547 2.961-9.8493 2.492-7.7605 7.705 4.7571 11.873 3.5188 9.387 1.2307 13.308-6.9535 11.917 0.2076 21.75 13.032 21.75 12.509 0 15.478-15.832 10.75-23.077-2.376-3.639 4.673-2.479 5.958-10.346 1.285-7.868-6.585-8.942-3.979-9.34 5.237-0.8 4.982 1.171 8.172-6.1811 2.802-6.4601-15.268-10.806-22.046-6.4601z"/>
         <path id="Path-369" fill-rule="nonzero" fill="#004344" d="m39.658 152.95c-0.232 3.86-0.04 5.9 0.578 6.13s6.061 0.35 16.327 0.35c0.428-1.21 0.428-1.94 0-2.21-5.243-3.28-10.223-4.42-12.133-4.27-1.385 1.02-2.976 1.02-4.772 0z"/>
         <path id="Path-369-Copy" fill-rule="nonzero" fill="#004344" d="m10.643 152.95c-0.232 3.86-0.039 5.9 0.579 6.13s6.06 0.35 16.327 0.35c0.428-1.21 0.428-1.94 0-2.21-5.243-3.28-10.223-4.42-12.134-4.27-1.385 1.02-2.975 1.02-4.772 0z"/>
        </g>
        <path id="Path-72-Copy-7" opacity=".076869" d="m130.18 135.04c-6.61-14.82-4.18-17.17 0-17.78 4.17-0.6 15.59 13.32 21.97 12.14 6.39-1.18 15.68-30.125 34.14-29.887 18.46 0.237 10.86 27.507 16.49 27.507s2.86 1.22 11.3 1.22c8.45 0-4.08 12.69 13.85 12.69h-121.02c5.05-15.78 12.81-17.74 23.27-5.89z" fill-rule="nonzero" transform="translate(167.42 120.22) scale(-1 1) translate(-167.42 -120.22)" fill="#00A9AA"/>
        <path id="Path-371" opacity=".068080" d="m972.28 203.79c-18.97 17.7-43.01 63.31-14.67 69.49 28.34 6.17 62.29-35.29 62.29-58.11 0-22.81-35.44-22.74-47.62-11.38z" fill-rule="nonzero" fill="#00A9AA"/>
        <path id="Path-372" stroke-linejoin="round" d="m531.47 64.079c77.08 21.214 140.14 15.787 189.19-16.28" stroke="#00A9AA" stroke-linecap="round" stroke-width="2.1197" fill="none"/>
        <g id="Rectangle-83" fill-rule="evenodd" transform="translate(729.16 29.675)">
         <g id="path-48-link" fill-rule="nonzero" fill="#000">
          <rect id="path-48" y=".83499" x=".47801" height="12.033" width="12.012"/>
         </g>
         <g id="path-48-link" fill="#00A9AA">
          <rect id="path-48" y=".83499" x=".47801" height="12.033" width="12.012"/>
         </g>
        </g>
        <g id="Group-72" fill-rule="evenodd" transform="translate(779.41 .012836)" fill="none">
         <path id="Path-383" fill-rule="nonzero" fill="#FFD7B3" d="m45.033 65.858l-2.118 1.915-1.292 0.44c-1.937 0.66-3.556 2.024-4.535 3.821l-1.713 3.145h2.27c1.838 0 3.57-0.86 4.681-2.324l1.808-2.382v3.236c0.627 0.58 1.007 0.695 1.14 0.344 0.133-0.352 0.961-2.445 2.483-6.28l-2.724-1.915z"/>
         <path id="Path-382" fill-rule="nonzero" fill="#FFD7B3" d="m143.07 46.192l2.57-8.916c1.06 0.191 1.59 0.572 1.57 1.143-0.03 0.856 0.03 4.115 0 3.315-0.02-0.533 2.04-2.501 6.16-5.904 1.08 3.23 1.24 5.495 0.49 6.795-0.76 1.301-3.5 3.427-8.22 6.378l-2.57-2.811z"/>
         <path id="Path-379" fill-rule="nonzero" fill="url(#linearGradient-29)" d="m64.947 80.933l-15.099 26.877c-1.697 3.03-5.382 4.31-8.587 2.99l-25.343-10.44-2.622 5.49 25.477 14.64c3.61 2.07 8.092 1.88 11.512-0.5l20.352-14.14 11.659 13.19c2.511 2.84 2.736 7.03 0.543 10.12l-17.719 24.98 5.517 3.4 24.927-27.16c1.996-2.18 2.662-5.26 1.742-8.06l-10.722-32.689-21.637-8.698z"/>
         <g id="Group-71" transform="translate(94.731 61.256) rotate(21) translate(-45.043 -48.222)">
          <path id="Path-375" fill-rule="nonzero" fill="#004344" d="m44.916 32.921l9.76 1.793c7.897 1.45 15.953-1.542 20.988-7.796l7.436-9.236c1.078-1.339 2.911-1.806 4.499-1.145 1.207 0.503 1.778 1.888 1.275 3.096-0.061 0.147-0.137 0.288-0.227 0.42l-9.989 14.708c-4.024 5.925-10.695 9.505-17.857 9.582l-7.782 0.083c0.317 5.934 0.58 10.714 0.789 14.339 0.208 3.625 2.159 9.641 5.852 18.046-1.441 1.231-3.167 2.08-5.177 2.547-2.009 0.466-4.813 0.87-8.411 1.21l-3.137-43.888 1.981-3.759z"/>
          <g id="Group-28" fill-rule="nonzero" transform="translate(42.057 21.509) scale(-1 1) rotate(11) translate(-11.128 -19.607)">
           <path id="Path-252" fill="#FFD7B3" d="m1.4724 6.9501c-1.0559 6.5789-1.3795 10.539-0.97084 11.881 0.40865 1.342 1.6095 3.928 3.6026 7.759l4.6545-0.345 0.2762 7.1c2.6391 3.39 3.6371 5.027 2.9931 4.914-0.644-0.114 1.403-1.85 6.14-5.207l-3.574-11.926 2.378-10.942-15.5-3.2339z"/>
           <path id="Path-251" fill="#004344" d="m8.077 0.30913c7.218 0.63808 11.02 2.5479 11.406 5.7294 0.579 4.7725 3.486 3.2293 2.52 7.6285-0.967 4.4-4.479 7.494-6.365 11.892-2.326-4.211-2.116-5.51-0.891-8.414 2.053-4.866-0.996-4.558-1.327-2.171-0.33 2.387-0.235 10.154-2.887 12.398-2.6517 2.243-5.9795 2.146-6.8726 1.732-1.6617-0.769-4.6192-2.464-2.633-10.301 1.4171-0.519 5.7182 0.052 8.1243 2.9 0.9953-0.934 1.8813-4.029 2.6593-9.285-9.4617-2.334-13.121-4.9362-10.979-7.8053 2.1417-2.869 4.5568-4.3036 7.245-4.3036z"/>
          </g>
          <path id="Path-374" fill-rule="nonzero" fill="#C8E8E5" d="m37.494 32.828l7.047 4.604 2.082-3.041c0.72 0.526 1.178 1.097 1.372 1.713 0.604 1.911 0.21 6.073 0.27 6.851 0.019 0.254-1.845-1.892-1.831-0.584 1.851 4.193 2.93 17.01 3.238 38.451-1.89 2.293-4.075 3.439-6.552 3.439-1.64 0-3.824-1.146-6.553-3.439l0.927-47.994z"/>
          <path id="Path-377" fill-rule="nonzero" fill="#00A9AA" d="m42.746 42.229l1.392 2.826c-1.77 3.962-1.77 7.671 0 11.127 2.655 5.184 11.575 2.378 15.025 6.54 3.071 3.702 6.668 4.12 10.792 1.251-0.529-0.902-1.002-1.707-1.419-2.415-1.003-1.703-2.345-4.225-4.767-5.376-5.9-2.804-13.904 0.273-16.082-1.793-1.452-1.376-2.073-4.375-1.862-8.997l1.862-2.776-2.987-2.456-1.954 2.069z"/>
          <polyline id="Path-376" stroke="#004344" stroke-width=".65285" points="42.273 42.876 44.692 40.19 49.088 44.084"/>
          <path id="Path-373" fill-rule="nonzero" fill="#004344" d="m37.671 31.455c2.786 2.331 4.572 5.313 5.357 8.944 3.618 16.734 4.06 35.087 1.327 55.059-7.764-1.257-13.606-3.583-17.527-6.978-3.92-3.395-7.033-7.754-9.338-13.078 5.818-2.648 9.506-6.155 11.064-10.521 1.558-4.365 2.105-10.46 1.642-18.283l-7.866 1.255c-4.228 0.674-7.879 3.331-9.82 7.147l-8.1693 16.053c-0.5336 1.048-1.702 1.611-2.8546 1.375-0.988-0.202-1.6248-1.167-1.4223-2.155 0.010573-0.052 0.023424-0.103 0.03848-0.154l6.7408-22.678c1.1737-3.948 4.1009-7.136 7.9349-8.643 6.43-2.526 11.273-4.437 14.529-5.733 4.212-1.676 7-2.213 8.364-1.61z"/>
          <path id="Path-378" fill-rule="nonzero" fill="#1B998A" d="m59.381 62.817c5.01 0.928 8.204-0.833 9.583-5.284 3.257-0.516 5.451-1.416 6.581-2.699l1.051 5.119c-3.058 3.941-6.976 5.911-11.754 5.911-1.512 0-3.333-1.016-5.461-3.047z"/>
         </g>
         <path id="Path-381" fill-rule="nonzero" fill="#004344" d="m65.925 153.02l-3.57 3.61 1.113 4.51 0.675 13.48c1.867 0 3.47-1.33 3.82-3.16l2.729-14.3-4.767-4.14z"/>
         <path id="Path-380" fill-rule="nonzero" fill="#004344" d="m15.044 104.66l-12.584 11.27c-2.46-0.99-3.0751-2.18-1.8449-3.56 1.2301-1.38 4.8396-6.27 10.829-14.665l5.178 3.015-1.578 3.94z"/>
        </g>
        <g id="Group-29" fill-rule="evenodd" transform="translate(1077.2 247.55) scale(-1 1) translate(-33.9 -54.59)" fill="none">
         <path id="Path-261" fill-rule="nonzero" fill="#1D9F90" d="m47.012 48.303c0.565-17.833-2.288-30.21-8.558-37.131-3.12 1.333-5.86 15.214-1.949 18.565 2.608 2.234 4.049 8.965 4.323 20.192l6.184-1.626z"/>
         <path id="Path-268" stroke="#0D6574" stroke-width=".71221" d="m39.975 20.467c2.292 11.972 3.184 19.305 2.677 22"/>
         <path id="Path-260" fill-rule="nonzero" fill="#2CB0A0" d="m41.614 43.136c6.096-16.612 14.729-24.994 25.898-25.145 0.58 11.553-2.166 15.192-10.829 17.477-8.664 2.286 3.827 5.111 0 9.672-2.552 3.041-6.669 7.034-12.351 11.978l-4.313-7.044 1.595-6.938z"/>
         <path id="Path-266" stroke="#0D6574" stroke-width=".71221" d="m43.96 53.678c2.139-17.45 7.618-28.001 16.437-31.652"/>
         <path id="Path-259" fill-rule="nonzero" fill="#00A9AA" d="m39.655 53.711c0-2.681-23.413-9.265-21.716-17.225 1.697-7.961 1.116-16.883-12.1-11.018s1.0552-19.816-4.547-25.113c17.464 0.8164 45.152 20.344 41.758 53.356-3.395 1.792-3.395 2.68-3.395 0z"/>
         <path id="Path-262" stroke="#0D6574" stroke-width=".71221" d="m4.8955 2.7887c22.464 15.234 34.026 33.581 34.686 55.041"/>
         <polygon id="Rectangle-45" fill-rule="nonzero" points="34.656 51.981 54.391 51.981 54.391 108.29 34.656 108.29" fill="#00A9AA"/>
         <path id="Combined-Shape" fill-rule="nonzero" fill="#fff" d="m34.656 58.238h19.735v0.963h-19.735v-0.963zm0 2.888h19.735v0.963h-19.735v-0.963z"/>
         <path id="Combined-Shape-Copy-4" fill-rule="nonzero" fill="#fff" d="m34.656 96.261h19.735v0.963h-19.735v-0.963zm0 2.888h19.735v0.961h-19.735v-0.961z"/>
         <polygon id="Rectangle-45-Copy-3" opacity="0.2" fill-rule="nonzero" points="47.171 51.981 54.391 51.981 54.391 108.29 47.171 108.29" fill="#004344"/>
         <path id="Path-263" stroke="#0D6574" stroke-width=".71221" d="m22.763 36.456c6.204-0.523 10.689 0.545 13.454 3.203-0.787-1.894-0.265-4.886 1.568-8.975"/>
         <path id="Path-264" stroke="#0D6574" stroke-width=".71221" d="m10.219 14.743c6.639 0.504 11.105 1.805 13.397 3.904"/>
         <path id="Path-265" stroke="#0D6574" stroke-width=".71221" d="m26.761 22.474c-0.126-4.727 0.204-7.283 0.991-7.666"/>
         <path id="Path-267" stroke="#0D6574" stroke-width=".71221" d="m49.657 33.171c4.354-2.468 7.778-3.085 10.274-1.851"/>
        </g>
        <path id="Path-384" stroke-linejoin="round" d="m888.82 196.3c61.84-3.97 50.44-52.4 32.85-55.47-17.58-3.06-22.46 19.26-11.11 24.72 18.51 8.89 82.16-32 122.24-90.451" stroke="#2F8F83" stroke-linecap="round" stroke-dasharray="7.249230930947851,4.748034208248824" stroke-width="2.1197" fill="none"/>
        <g id="Group-73" fill-rule="nonzero" transform="translate(1050.7 48.103) rotate(-11) translate(-37.6 -25.436)">
         <polygon id="Path-387" points="22.166 49.07 58.195 20.441 24.833 26.173" fill="url(#linearGradient-30)"/>
         <polygon id="Path-385" points="0.19028 15.783 51.488 42.626 74.353 0.25902" fill="url(#linearGradient-29)"/>
         <polygon id="Path-386" points="18.23 25.319 56.563 11.259 29.419 30.947 22.01 50.089" fill="#004344"/>
        </g>
       </g>
      </g>
     </g>
    </g>
   </g>
  </g>
 </g>
</svg>
