<?xml version="1.0" encoding="UTF-8"?>
<svg width="247px" height="262px" viewBox="0 0 247 262" version="1.1" xmlns="http://www.w3.org/2000/svg" xmlns:xlink="http://www.w3.org/1999/xlink">
    <!-- Generator: Sketch 54.1 (76490) - https://sketchapp.com -->
    <title>Illustration</title>
    <desc>Created with Sketch.</desc>
    <defs>
        <filter x="-119.6%" y="-110.4%" width="340.2%" height="321.0%" filterUnits="objectBoundingBox" id="filter-1">
            <feOffset dx="0" dy="50" in="SourceAlpha" result="shadowOffsetOuter1"></feOffset>
            <feGaussianBlur stdDeviation="25" in="shadowOffsetOuter1" result="shadowBlurOuter1"></feGaussianBlur>
            <feColorMatrix values="0 0 0 0 0   0 0 0 0 0.388235294   0 0 0 0 0.443137255  0 0 0 0.3 0" type="matrix" in="shadowBlurOuter1" result="shadowMatrixOuter1"></feColorMatrix>
            <feMerge>
                <feMergeNode in="shadowMatrixOuter1"></feMergeNode>
                <feMergeNode in="SourceGraphic"></feMergeNode>
            </feMerge>
        </filter>
        <linearGradient x1="100%" y1="87.9144647%" x2="21.1109004%" y2="34.8171892%" id="linearGradient-2">
            <stop stop-color="#00A9AA" offset="0%"></stop>
            <stop stop-color="#D5FFF1" offset="100%"></stop>
        </linearGradient>
        <linearGradient x1="100%" y1="99.8024108%" x2="21.1109004%" y2="30.0566727%" id="linearGradient-3">
            <stop stop-color="#00A9AA" offset="0%"></stop>
            <stop stop-color="#D5FFF1" offset="100%"></stop>
        </linearGradient>
        <linearGradient x1="67.3194672%" y1="-9.78243212%" x2="43.1413235%" y2="92.763762%" id="linearGradient-4">
            <stop stop-color="#007071" offset="0%"></stop>
            <stop stop-color="#00D9C4" offset="61.950434%"></stop>
            <stop stop-color="#00ABCB" offset="100%"></stop>
        </linearGradient>
        <linearGradient x1="67.3194672%" y1="-9.78243212%" x2="43.1413235%" y2="92.763762%" id="linearGradient-5">
            <stop stop-color="#007071" offset="0%"></stop>
            <stop stop-color="#00D9C4" offset="61.950434%"></stop>
            <stop stop-color="#00ABCB" offset="100%"></stop>
        </linearGradient>
        <radialGradient cx="142.46275%" cy="26.9575312%" fx="142.46275%" fy="26.9575312%" r="98.9417317%" gradientTransform="translate(1.424628,0.269575),scale(1.000000,0.583247),rotate(140.063428),translate(-1.424628,-0.269575)" id="radialGradient-6">
            <stop stop-color="#007071" offset="0%"></stop>
            <stop stop-color="#008978" offset="56.4512546%"></stop>
            <stop stop-color="#00323A" offset="100%"></stop>
        </radialGradient>
        <radialGradient cx="136.686989%" cy="2.1419605e-05%" fx="136.686989%" fy="2.1419605e-05%" r="78.3968594%" gradientTransform="translate(1.366870,0.000000),scale(0.765839,1.000000),rotate(124.582832),translate(-1.366870,-0.000000)" id="radialGradient-7">
            <stop stop-color="#007071" offset="0%"></stop>
            <stop stop-color="#008978" offset="56.4512546%"></stop>
            <stop stop-color="#00323A" offset="100%"></stop>
        </radialGradient>
        <linearGradient x1="88.7666041%" y1="21.5779227%" x2="19.403474%" y2="79.5040003%" id="linearGradient-8">
            <stop stop-color="#90FF89" offset="0%"></stop>
            <stop stop-color="#2EBE88" offset="58.6096631%"></stop>
            <stop stop-color="#2FBDAB" offset="100%"></stop>
        </linearGradient>
        <linearGradient x1="100.198373%" y1="32.401838%" x2="10.3809551%" y2="68.2680587%" id="linearGradient-9">
            <stop stop-color="#90FF89" offset="0%"></stop>
            <stop stop-color="#2EBE88" offset="58.6096631%"></stop>
            <stop stop-color="#2FBDAB" offset="100%"></stop>
        </linearGradient>
        <radialGradient cx="88.476494%" cy="28.4756118%" fx="88.476494%" fy="28.4756118%" r="62.2001038%" gradientTransform="translate(0.884765,0.284756),scale(1.000000,0.924218),rotate(147.313194),translate(-0.884765,-0.284756)" id="radialGradient-10">
            <stop stop-color="#007071" offset="0%"></stop>
            <stop stop-color="#008978" offset="56.4512546%"></stop>
            <stop stop-color="#00323A" offset="100%"></stop>
        </radialGradient>
        <linearGradient x1="67.3881815%" y1="-10.0196167%" x2="43.114112%" y2="92.9334256%" id="linearGradient-11">
            <stop stop-color="#007071" offset="0%"></stop>
            <stop stop-color="#00D9C4" offset="61.950434%"></stop>
            <stop stop-color="#00ABCB" offset="100%"></stop>
        </linearGradient>
        <path d="M12.6718768,39.2329283 C12.045872,37.3193412 10.9314891,36.0096027 9.3287281,35.3037127 C6.92458657,34.2448776 5.82143853,35.6101733 3.84500701,33.0677595 C1.86857552,30.5253456 -2.02024894,19.0569286 1.51703765,11.5220956 C5.05432424,3.98726264 12.5350365,0.0862736602 19.9220504,0.0862736602 C27.3090642,0.0862736602 31.8429927,6.79110898 31.8429927,14.3948284 C31.8429927,19.4639746 28.9085671,25.4390617 23.039716,32.3200895 L12.6718768,39.2329283 Z" id="path-12"></path>
        <radialGradient cx="2.74487662e-05%" cy="-122.439207%" fx="2.74487662e-05%" fy="-122.439207%" r="228.467274%" gradientTransform="translate(0.000000,-1.224392),scale(0.959043,1.000000),rotate(76.809119),translate(-0.000000,1.224392)" id="radialGradient-14">
            <stop stop-color="#007071" offset="0%"></stop>
            <stop stop-color="#008978" offset="56.4512546%"></stop>
            <stop stop-color="#00424C" offset="100%"></stop>
        </radialGradient>
        <linearGradient x1="88.2304152%" y1="0.197589216%" x2="50%" y2="93.4138801%" id="linearGradient-15">
            <stop stop-color="#004344" offset="0%"></stop>
            <stop stop-color="#8AE0C4" offset="100%"></stop>
        </linearGradient>
        <path d="M69.1692843,20.4910456 C62.7869759,11.2302527 57.4485161,5.27218751 53.1539038,2.61684988 C46.7119854,-1.36615654 35.3334431,-0.502392872 29.553021,4.08876779 C25.6994062,7.14954158 20.1801872,15.8652651 12.9953639,30.2359384 L8.13744808,17.989189 C6.53666236,17.3352597 4.78135394,17.3352597 2.87152281,17.989189 C0.961691696,18.6431183 0.0301185166,20.424691 0.0768032771,23.333907 C1.85468243,34.9719252 3.38524809,42.2751614 4.66850027,45.2436158 C6.59337854,49.6962972 12.7656055,50.4019639 17.6339386,46.2447046 C20.879494,43.4731984 24.8525215,38.136943 29.553021,30.2359384 C34.1080647,36.4148009 37.349376,41.4173601 39.2769551,45.2436158 C41.2045341,49.0698715 43.8111642,54.4574795 47.0968455,61.4064399 C48.8948571,63.3959236 50.7256292,63.3959236 52.5891614,61.4064399 C54.4526936,59.4169561 58.9837629,55.5980713 66.1823697,49.9497852 C75.0648116,44.6040763 80.3735584,41.9312219 82.108611,41.9312219 C83.8436637,41.9312219 79.5305551,34.7844964 69.1692843,20.4910456 Z" id="path-16"></path>
        <path d="M69.1692843,20.4910456 C62.7869759,11.2302527 57.4485161,5.27218751 53.1539038,2.61684988 C46.7119854,-1.36615654 35.3334431,-0.502392872 29.553021,4.08876779 C25.6994062,7.14954158 20.1801872,15.8652651 12.9953639,30.2359384 L8.13744808,17.989189 C6.53666236,17.3352597 4.78135394,17.3352597 2.87152281,17.989189 C0.961691696,18.6431183 0.0301185166,20.424691 0.0768032771,23.333907 C1.85468243,34.9719252 3.38524809,42.2751614 4.66850027,45.2436158 C6.59337854,49.6962972 12.7656055,50.4019639 17.6339386,46.2447046 C20.879494,43.4731984 24.8525215,38.136943 29.553021,30.2359384 C34.1080647,36.4148009 37.349376,41.4173601 39.2769551,45.2436158 C41.2045341,49.0698715 43.8111642,54.4574795 47.0968455,61.4064399 C48.8948571,63.3959236 50.7256292,63.3959236 52.5891614,61.4064399 C54.4526936,59.4169561 58.9837629,55.5980713 66.1823697,49.9497852 C75.0648116,44.6040763 80.3735584,41.9312219 82.108611,41.9312219 C83.8436637,41.9312219 79.5305551,34.7844964 69.1692843,20.4910456 Z" id="path-18"></path>
        <linearGradient x1="72.6765823%" y1="-9.14481112%" x2="42.9172755%" y2="105.784202%" id="linearGradient-20">
            <stop stop-color="#007071" offset="0%"></stop>
            <stop stop-color="#00D9C4" offset="61.950434%"></stop>
            <stop stop-color="#00ABCB" offset="100%"></stop>
        </linearGradient>
        <linearGradient x1="85.4321599%" y1="13.3791733%" x2="38.933243%" y2="84.5400309%" id="linearGradient-21">
            <stop stop-color="#007071" offset="0%"></stop>
            <stop stop-color="#00D9C4" offset="61.950434%"></stop>
            <stop stop-color="#00ABCB" offset="100%"></stop>
        </linearGradient>
        <path d="M7.19974034,1.0624438 C5.39101012,1.45781813 3.38615731,2.01364068 3.38615731,3.55508496 C3.38615731,5.30681687 9.87157592,6.01617924 11.6754404,6.52862719 C13.4793049,7.04107509 12.9538519,9.41614534 12.9538519,12.2824935 C12.9538519,15.1488417 12.9538519,16.1199726 9.87157592,16.1199726 C6.78930001,16.1199726 1.28838964,14.4105806 0.597447521,11.7626529 C-0.0934945946,9.11472514 -0.049341708,6.27290726 0.597447521,3.55508496 C0.995563179,1.88219438 3.28873455,0.716232482 7.47696165,0.0571992602 C7.38824622,0.352877466 7.29583914,0.687958982 7.19974034,1.0624438 Z" id="path-22"></path>
        <linearGradient x1="43.1046821%" y1="32.8458461%" x2="75.2170904%" y2="93.9877711%" id="linearGradient-24">
            <stop stop-color="#007071" offset="0%"></stop>
            <stop stop-color="#00D9C4" offset="61.950434%"></stop>
            <stop stop-color="#00ABCB" offset="100%"></stop>
        </linearGradient>
        <linearGradient x1="88.2304152%" y1="37.7904423%" x2="50%" y2="60.6433457%" id="linearGradient-25">
            <stop stop-color="#004344" offset="0%"></stop>
            <stop stop-color="#8AE0C4" offset="100%"></stop>
        </linearGradient>
        <linearGradient x1="88.2304152%" y1="0.197589216%" x2="50%" y2="93.4138801%" id="linearGradient-26">
            <stop stop-color="#004344" offset="0%"></stop>
            <stop stop-color="#8AE0C4" offset="100%"></stop>
        </linearGradient>
        <path d="M8.82237277,13.9074931 L35.141941,7.37503894 C35.5284733,7.27910258 35.7638936,6.88860424 35.6677671,6.50283652 C35.6250171,6.33127548 35.5204982,6.18141668 35.3741381,6.08183282 L30.4623559,2.7398385 C29.2803744,1.9356141 27.8998407,1.47069923 26.4712789,1.39578518 L0.0645465263,0.0110109678 L8.82237277,13.9074931 Z" id="path-27"></path>
        <linearGradient x1="67.3194672%" y1="-39.6578757%" x2="43.1413235%" y2="114.134361%" id="linearGradient-29">
            <stop stop-color="#007071" offset="0%"></stop>
            <stop stop-color="#00D9C4" offset="61.950434%"></stop>
            <stop stop-color="#00ABCB" offset="100%"></stop>
        </linearGradient>
        <linearGradient x1="67.3194672%" y1="-9.78243212%" x2="43.1413235%" y2="92.763762%" id="linearGradient-30">
            <stop stop-color="#007071" offset="0%"></stop>
            <stop stop-color="#00D9C4" offset="61.950434%"></stop>
            <stop stop-color="#00ABCB" offset="100%"></stop>
        </linearGradient>
        <path d="M13.5353789,23.2021064 C10.4479185,20.4317862 7.92266615,17.5821084 4.0221918,11.5751218 C0.121717456,5.56813522 -1.1942066,0.784590446 1.60013709,0.200208203 C4.39448079,-0.384174042 11.3756973,1.12162278 19.0997508,7.38029877 C21.278723,9.14588484 23.4038809,10.8883245 24.3322093,12.1078141 C26.6946331,15.2111892 25.2807459,19.61207 22.4698333,22.1432121 C18.6543922,25.5789021 15.0435321,24.6898744 13.5353789,23.2021064 Z" id="path-31"></path>
        <radialGradient cx="-35.013245%" cy="23.9536704%" fx="-35.013245%" fy="23.9536704%" r="94.7862399%" gradientTransform="translate(-0.350132,0.239537),scale(1.000000,0.903796),rotate(8.909456),translate(0.350132,-0.239537)" id="radialGradient-33">
            <stop stop-color="#007071" offset="0%"></stop>
            <stop stop-color="#008978" offset="56.4512546%"></stop>
            <stop stop-color="#00424C" offset="100%"></stop>
        </radialGradient>
        <path d="M13.5353789,23.2021064 C10.4479185,20.4317862 7.92266615,17.5821084 4.0221918,11.5751218 C0.121717456,5.56813522 -1.1942066,0.784590446 1.60013709,0.200208203 C4.39448079,-0.384174042 11.3756973,1.12162278 19.0997508,7.38029877 C21.278723,9.14588484 23.4038809,10.8883245 24.3322093,12.1078141 C26.6946331,15.2111892 25.2807459,19.61207 22.4698333,22.1432121 C18.6543922,25.5789021 15.0435321,24.6898744 13.5353789,23.2021064 Z" id="path-34"></path>
        <path d="M13.5353789,23.2021064 C10.4479185,20.4317862 7.92266615,17.5821084 4.0221918,11.5751218 C0.121717456,5.56813522 -1.1942066,0.784590446 1.60013709,0.200208203 C4.39448079,-0.384174042 11.3756973,1.12162278 19.0997508,7.38029877 C21.278723,9.14588484 23.4038809,10.8883245 24.3322093,12.1078141 C26.6946331,15.2111892 25.2807459,19.61207 22.4698333,22.1432121 C18.6543922,25.5789021 15.0435321,24.6898744 13.5353789,23.2021064 Z" id="path-36"></path>
        <radialGradient cx="-7.07903569e-06%" cy="34.4728488%" fx="-7.07903569e-06%" fy="34.4728488%" r="94.5967409%" gradientTransform="translate(-0.000000,0.344728),scale(1.000000,0.989980),rotate(8.144721),translate(0.000000,-0.344728)" id="radialGradient-38">
            <stop stop-color="#007071" offset="0%"></stop>
            <stop stop-color="#008978" offset="56.4512546%"></stop>
            <stop stop-color="#00424C" offset="100%"></stop>
        </radialGradient>
        <path d="M13.5353789,23.2021064 C10.4479185,20.4317862 7.92266615,17.5821084 4.0221918,11.5751218 C0.121717456,5.56813522 -1.1942066,0.784590446 1.60013709,0.200208203 C4.39448079,-0.384174042 11.3756973,1.12162278 19.0997508,7.38029877 C21.278723,9.14588484 23.4038809,10.8883245 24.3322093,12.1078141 C26.6946331,15.2111892 25.2807459,19.61207 22.4698333,22.1432121 C18.6543922,25.5789021 15.0435321,24.6898744 13.5353789,23.2021064 Z" id="path-39"></path>
        <radialGradient cx="-158.26268%" cy="-8.79694947%" fx="-158.26268%" fy="-8.79694947%" r="94.7104066%" gradientTransform="translate(-1.582627,-0.087969),scale(1.000000,0.935526),rotate(8.611884),translate(1.582627,0.087969)" id="radialGradient-41">
            <stop stop-color="#007071" offset="0%"></stop>
            <stop stop-color="#008978" offset="56.4512546%"></stop>
            <stop stop-color="#00424C" offset="100%"></stop>
        </radialGradient>
        <radialGradient cx="-42.7895093%" cy="44.3413202%" fx="-42.7895093%" fy="44.3413202%" r="118.964807%" gradientTransform="translate(-0.427895,0.443413),scale(0.993212,1.000000),rotate(5.497894),translate(0.427895,-0.443413)" id="radialGradient-42">
            <stop stop-color="#007071" offset="0%"></stop>
            <stop stop-color="#008978" offset="56.4512546%"></stop>
            <stop stop-color="#00424C" offset="100%"></stop>
        </radialGradient>
        <linearGradient x1="-8.67398895%" y1="-39.0056315%" x2="75.3551592%" y2="89.7890824%" id="linearGradient-43">
            <stop stop-color="#88FFF6" offset="0%"></stop>
            <stop stop-color="#17AE9C" offset="100%"></stop>
        </linearGradient>
        <linearGradient x1="-13.4134622%" y1="-5.10981853%" x2="77.4032576%" y2="74.6362963%" id="linearGradient-44">
            <stop stop-color="#88FFF6" offset="0%"></stop>
            <stop stop-color="#17AE9C" offset="100%"></stop>
        </linearGradient>
        <path d="M20.753121,47.9090632 C20.5303897,47.597038 20.3410363,47.3313527 20.1850609,47.1120078 C10.7386382,33.8276952 4.60167432,24.2214539 1.77416921,18.2932841 C-2.72842044,8.85311863 2.26668612,1.448297 11.0403824,0.232492068 C19.8140788,-0.983312862 24.1767937,5.80329452 33.9704926,18.2932841 C39.3815806,25.1940918 43.4577888,30.474914 46.1991172,34.1357506 C46.3742249,34.3695937 46.5776785,34.6427838 46.8094782,34.955321 L46.8094831,34.9553173 C47.2439329,35.5410893 47.1203211,36.3674458 46.5333881,36.8010363 C46.4779797,36.8419687 46.4194486,36.8785138 46.3583301,36.9103371 L45.7647131,37.2194239 L25.457122,47.7932566 L23.8230254,48.6441065 C22.75931,49.1979656 21.4492656,48.8842948 20.753121,47.9090632 Z" id="path-45"></path>
        <linearGradient x1="78.8292165%" y1="-30.752971%" x2="50%" y2="120.394179%" id="linearGradient-47">
            <stop stop-color="#004344" offset="0%"></stop>
            <stop stop-color="#8AE0C4" offset="100%"></stop>
        </linearGradient>
        <linearGradient x1="88.382093%" y1="0%" x2="50%" y2="93.5861231%" id="linearGradient-48">
            <stop stop-color="#004344" offset="0%"></stop>
            <stop stop-color="#8AE0C4" offset="100%"></stop>
        </linearGradient>
        <path d="M12.1706249,34.8749341 C7.16560576,25.0795334 3.75150847,18.1416154 1.92833307,14.06118 C-0.806430023,7.94052699 -0.636056441,4.0870333 2.91720734,1.45619787 C6.47047114,-1.17463756 8.57399349,-0.267067066 14.1790912,5.11887204 C17.2258381,8.04649162 21.7815514,13.1787064 27.846231,20.5155162 L27.8462309,20.5155164 C28.9761629,21.8824635 29.7886177,23.4822721 30.2251945,25.1999448 C30.2360904,25.2428136 30.2497973,25.2888593 30.2663151,25.3380821 C29.1153852,26.1643776 23.0834885,29.3433283 12.1706249,34.8749341 Z" id="path-49"></path>
        <path d="M12.1706249,34.8749341 C7.16560576,25.0795334 3.75150847,18.1416154 1.92833307,14.06118 C-0.806430023,7.94052699 -0.636056441,4.0870333 2.91720734,1.45619787 C6.47047114,-1.17463756 8.57399349,-0.267067066 14.1790912,5.11887204 C17.2258381,8.04649162 21.7815514,13.1787064 27.846231,20.5155162 L27.8462309,20.5155164 C28.9761629,21.8824635 29.7886177,23.4822721 30.2251945,25.1999448 C30.2360904,25.2428136 30.2497973,25.2888593 30.2663151,25.3380821 C29.1153852,26.1643776 23.0834885,29.3433283 12.1706249,34.8749341 Z" id="path-51"></path>
        <path d="M12.1706249,34.8749341 C7.16560576,25.0795334 3.75150847,18.1416154 1.92833307,14.06118 C-0.806430023,7.94052699 -0.636056441,4.0870333 2.91720734,1.45619787 C6.47047114,-1.17463756 8.57399349,-0.267067066 14.1790912,5.11887204 C17.2258381,8.04649162 21.7815514,13.1787064 27.846231,20.5155162 L27.8462309,20.5155164 C28.9761629,21.8824635 29.7886177,23.4822721 30.2251945,25.1999448 C30.2360904,25.2428136 30.2497973,25.2888593 30.2663151,25.3380821 C29.1153852,26.1643776 23.0834885,29.3433283 12.1706249,34.8749341 Z" id="path-53"></path>
        <path d="M12.1706249,34.8749341 C7.16560576,25.0795334 3.75150847,18.1416154 1.92833307,14.06118 C-0.806430023,7.94052699 -0.636056441,4.0870333 2.91720734,1.45619787 C6.47047114,-1.17463756 8.57399349,-0.267067066 14.1790912,5.11887204 C17.2258381,8.04649162 21.7815514,13.1787064 27.846231,20.5155162 L27.8462309,20.5155164 C28.9761629,21.8824635 29.7886177,23.4822721 30.2251945,25.1999448 C30.2360904,25.2428136 30.2497973,25.2888593 30.2663151,25.3380821 C29.1153852,26.1643776 23.0834885,29.3433283 12.1706249,34.8749341 Z" id="path-55"></path>
        <linearGradient x1="-13.4134622%" y1="-5.10981853%" x2="77.4032576%" y2="74.6362963%" id="linearGradient-57">
            <stop stop-color="#88FFF6" offset="0%"></stop>
            <stop stop-color="#17AE9C" offset="100%"></stop>
        </linearGradient>
        <path d="M12.1706249,34.8749341 C7.16560576,25.0795334 3.75150847,18.1416154 1.92833307,14.06118 C-0.806430023,7.94052699 -0.636056441,4.0870333 2.91720734,1.45619787 C6.47047114,-1.17463756 8.57399349,-0.267067066 14.1790912,5.11887204 C17.2258381,8.04649162 21.7815514,13.1787064 27.846231,20.5155162 L27.8462309,20.5155164 C28.9761629,21.8824635 29.7886177,23.4822721 30.2251945,25.1999448 C30.2360904,25.2428136 30.2497973,25.2888593 30.2663151,25.3380821 C29.1153852,26.1643776 23.0834885,29.3433283 12.1706249,34.8749341 Z" id="path-58"></path>
        <radialGradient cx="1.09286019e-05%" cy="-24.9611121%" fx="1.09286019e-05%" fy="-24.9611121%" r="143.102226%" gradientTransform="translate(0.000000,-0.249611),scale(0.811993,1.000000),rotate(47.890195),translate(-0.000000,0.249611)" id="radialGradient-60">
            <stop stop-color="#007071" offset="0%"></stop>
            <stop stop-color="#008978" offset="56.4512546%"></stop>
            <stop stop-color="#00424C" offset="100%"></stop>
        </radialGradient>
        <path d="M12.1706249,34.8749341 C7.16560576,25.0795334 3.75150847,18.1416154 1.92833307,14.06118 C-0.806430023,7.94052699 -0.636056441,4.0870333 2.91720734,1.45619787 C6.47047114,-1.17463756 8.57399349,-0.267067066 14.1790912,5.11887204 C17.2258381,8.04649162 21.7815514,13.1787064 27.846231,20.5155162 L27.8462309,20.5155164 C28.9761629,21.8824635 29.7886177,23.4822721 30.2251945,25.1999448 C30.2360904,25.2428136 30.2497973,25.2888593 30.2663151,25.3380821 C29.1153852,26.1643776 23.0834885,29.3433283 12.1706249,34.8749341 Z" id="path-61"></path>
        <radialGradient cx="3.67186442%" cy="-127.669114%" fx="3.67186442%" fy="-127.669114%" r="231.145542%" gradientTransform="translate(0.036719,-1.276691),scale(0.795652,1.000000),rotate(74.224434),translate(-0.036719,1.276691)" id="radialGradient-63">
            <stop stop-color="#007071" offset="0%"></stop>
            <stop stop-color="#008978" offset="56.4512546%"></stop>
            <stop stop-color="#00424C" offset="100%"></stop>
        </radialGradient>
        <path d="M12.1706249,34.8749341 C7.16560576,25.0795334 3.75150847,18.1416154 1.92833307,14.06118 C-0.806430023,7.94052699 -0.636056441,4.0870333 2.91720734,1.45619787 C6.47047114,-1.17463756 8.57399349,-0.267067066 14.1790912,5.11887204 C17.2258381,8.04649162 21.7815514,13.1787064 27.846231,20.5155162 L27.8462309,20.5155164 C28.9761629,21.8824635 29.7886177,23.4822721 30.2251945,25.1999448 C30.2360904,25.2428136 30.2497973,25.2888593 30.2663151,25.3380821 C29.1153852,26.1643776 23.0834885,29.3433283 12.1706249,34.8749341 Z" id="path-64"></path>
        <linearGradient x1="-13.1628659%" y1="-4.89203641%" x2="77.2949658%" y2="74.538939%" id="linearGradient-66">
            <stop stop-color="#88FFF6" offset="0%"></stop>
            <stop stop-color="#17AE9C" offset="100%"></stop>
        </linearGradient>
        <path d="M12.1706249,34.8749341 C7.16560576,25.0795334 3.75150847,18.1416154 1.92833307,14.06118 C-0.806430023,7.94052699 -0.636056441,4.0870333 2.91720734,1.45619787 C6.47047114,-1.17463756 8.57399349,-0.267067066 14.1790912,5.11887204 C17.2258381,8.04649162 21.7815514,13.1787064 27.846231,20.5155162 L27.8462309,20.5155164 C28.9761629,21.8824635 29.7886177,23.4822721 30.2251945,25.1999448 C30.2360904,25.2428136 30.2497973,25.2888593 30.2663151,25.3380821 C29.1153852,26.1643776 23.0834885,29.3433283 12.1706249,34.8749341 Z" id="path-67"></path>
        <radialGradient cx="1.6808549e-05%" cy="-122.439217%" fx="1.6808549e-05%" fy="-122.439217%" r="177.348358%" gradientTransform="translate(0.000000,-1.224392),scale(0.701549,1.000000),rotate(54.545356),translate(-0.000000,1.224392)" id="radialGradient-69">
            <stop stop-color="#007071" offset="0%"></stop>
            <stop stop-color="#008978" offset="56.4512546%"></stop>
            <stop stop-color="#00424C" offset="100%"></stop>
        </radialGradient>
        <linearGradient x1="32.2196123%" y1="89.1465077%" x2="52.9204757%" y2="-17.7888019%" id="linearGradient-70">
            <stop stop-color="#FFFFFF" stop-opacity="0" offset="0%"></stop>
            <stop stop-color="#FFFFFF" offset="100%"></stop>
        </linearGradient>
        <linearGradient x1="32.2196123%" y1="83.1920581%" x2="52.9204757%" y2="-7.47766489%" id="linearGradient-71">
            <stop stop-color="#FFFFFF" stop-opacity="0" offset="0%"></stop>
            <stop stop-color="#FFFFFF" offset="100%"></stop>
        </linearGradient>
        <path d="M10.9931212,2.06073251 L51.523843,40.5517927 C32.6980535,47.429627 11.3379973,41.6749191 10.1206628,40.7742622 C8.90332842,39.8736052 5.57456605,28.9856522 0.134375751,8.11040296 L0.00286432418,7.77380793 C1.80897731,3.83507963 3.92337566,1.40654319 6.34605938,0.488198621 C8.73832519,-0.418615727 10.2815556,0.106512853 10.9757506,2.06358436 L10.9931212,2.06073251 Z" id="path-72"></path>
        <radialGradient cx="-158.26268%" cy="-8.79694627%" fx="-158.26268%" fy="-8.79694627%" r="101.225246%" gradientTransform="translate(-1.582627,-0.087969),scale(0.933141,1.000000),rotate(7.531436),translate(1.582627,0.087969)" id="radialGradient-74">
            <stop stop-color="#007071" offset="0%"></stop>
            <stop stop-color="#008978" offset="56.4512546%"></stop>
            <stop stop-color="#00424C" offset="100%"></stop>
        </radialGradient>
        <linearGradient x1="64.7087839%" y1="-30.752971%" x2="50%" y2="120.394179%" id="linearGradient-75">
            <stop stop-color="#004344" offset="0%"></stop>
            <stop stop-color="#8AE0C4" offset="100%"></stop>
        </linearGradient>
        <linearGradient x1="88.382093%" y1="0%" x2="50%" y2="93.5861231%" id="linearGradient-76">
            <stop stop-color="#004344" offset="0%"></stop>
            <stop stop-color="#8AE0C4" offset="100%"></stop>
        </linearGradient>
        <path d="M12.3237018,0.0211710392 L0.567155892,28.0948075 C-0.058827272,29.5896023 -0.132674249,31.2576648 0.358775034,32.8017341 L2.21870682,38.6453962 C2.33929205,39.0242592 2.74478351,39.233828 3.12439733,39.1134813 C3.24727345,39.0745266 3.35743991,39.0034101 3.44342677,38.9075361 L24.065953,15.9137491 L12.3237018,0.0211710392 Z" id="path-77"></path>
        <linearGradient x1="59.4994035%" y1="-46.9352473%" x2="46.2381443%" y2="119.340033%" id="linearGradient-79">
            <stop stop-color="#007071" offset="0%"></stop>
            <stop stop-color="#00D9C4" offset="61.950434%"></stop>
            <stop stop-color="#00ABCB" offset="100%"></stop>
        </linearGradient>
        <linearGradient x1="67.3881815%" y1="-10.0196167%" x2="43.114112%" y2="92.9334256%" id="linearGradient-80">
            <stop stop-color="#007071" offset="0%"></stop>
            <stop stop-color="#00D9C4" offset="61.950434%"></stop>
            <stop stop-color="#00ABCB" offset="100%"></stop>
        </linearGradient>
        <path d="M23.2004027,20.238456 C19.5601499,14.0437973 15.7565044,9.15115756 11.7894661,5.56053674 C5.83890887,0.174605472 1.98606551,-0.502667312 0.992200755,1.03832024 C-0.00166400231,2.57930785 -0.683444134,9.43681003 2.60992668,17.6126138 C5.90329752,25.7884175 7.61001237,27.4499264 9.21572911,30.0430126 C10.8214459,32.6360989 15.653519,33.4853809 20.2691393,29.5907458 C23.3462195,26.9943225 24.3233074,23.8768925 23.2004027,20.238456 Z" id="path-81"></path>
        <radialGradient cx="-35.0132453%" cy="23.9536689%" fx="-35.0132453%" fy="23.9536689%" r="94.6970885%" gradientTransform="translate(-0.350132,0.239537),scale(1.000000,0.941449),rotate(8.558514),translate(0.350132,-0.239537)" id="radialGradient-83">
            <stop stop-color="#007071" offset="0%"></stop>
            <stop stop-color="#008978" offset="56.4512546%"></stop>
            <stop stop-color="#00424C" offset="100%"></stop>
        </radialGradient>
        <path d="M23.2004027,20.238456 C19.5601499,14.0437973 15.7565044,9.15115756 11.7894661,5.56053674 C5.83890887,0.174605472 1.98606551,-0.502667312 0.992200755,1.03832024 C-0.00166400231,2.57930785 -0.683444134,9.43681003 2.60992668,17.6126138 C5.90329752,25.7884175 7.61001237,27.4499264 9.21572911,30.0430126 C10.8214459,32.6360989 15.653519,33.4853809 20.2691393,29.5907458 C23.3462195,26.9943225 24.3233074,23.8768925 23.2004027,20.238456 Z" id="path-84"></path>
        <radialGradient cx="-18.0507029%" cy="26.7883804%" fx="-18.0507029%" fy="26.7883804%" r="108.856532%" gradientTransform="translate(-0.180507,0.267884),scale(0.983900,1.000000),rotate(20.113856),translate(0.180507,-0.267884)" id="radialGradient-86">
            <stop stop-color="#007071" offset="0%"></stop>
            <stop stop-color="#008978" offset="56.4512546%"></stop>
            <stop stop-color="#00424C" offset="100%"></stop>
        </radialGradient>
        <path d="M23.2004027,20.238456 C19.5601499,14.0437973 15.7565044,9.15115756 11.7894661,5.56053674 C5.83890887,0.174605472 1.98606551,-0.502667312 0.992200755,1.03832024 C-0.00166400231,2.57930785 -0.683444134,9.43681003 2.60992668,17.6126138 C5.90329752,25.7884175 7.61001237,27.4499264 9.21572911,30.0430126 C10.8214459,32.6360989 15.653519,33.4853809 20.2691393,29.5907458 C23.3462195,26.9943225 24.3233074,23.8768925 23.2004027,20.238456 Z" id="path-87"></path>
        <radialGradient cx="-128.948745%" cy="-21.8869815%" fx="-128.948745%" fy="-21.8869815%" r="94.7104721%" gradientTransform="translate(-1.289487,-0.218870),scale(1.000000,0.935497),rotate(8.612146),translate(1.289487,0.218870)" id="radialGradient-89">
            <stop stop-color="#007071" offset="0%"></stop>
            <stop stop-color="#008978" offset="56.4512546%"></stop>
            <stop stop-color="#00424C" offset="100%"></stop>
        </radialGradient>
        <path d="M23.2004027,20.238456 C19.5601499,14.0437973 15.7565044,9.15115756 11.7894661,5.56053674 C5.83890887,0.174605472 1.98606551,-0.502667312 0.992200755,1.03832024 C-0.00166400231,2.57930785 -0.683444134,9.43681003 2.60992668,17.6126138 C5.90329752,25.7884175 7.61001237,27.4499264 9.21572911,30.0430126 C10.8214459,32.6360989 15.653519,33.4853809 20.2691393,29.5907458 C23.3462195,26.9943225 24.3233074,23.8768925 23.2004027,20.238456 Z" id="path-90"></path>
        <linearGradient x1="74.5529539%" y1="83.6990223%" x2="-18.0857779%" y2="-52.2379768%" id="linearGradient-92">
            <stop stop-color="#FFFFFF" stop-opacity="0" offset="0%"></stop>
            <stop stop-color="#FFFFFF" offset="100%"></stop>
        </linearGradient>
        <linearGradient x1="74.5529539%" y1="70.8655%" x2="-18.0857779%" y2="-13.3029197%" id="linearGradient-93">
            <stop stop-color="#FFFFFF" stop-opacity="0" offset="0%"></stop>
            <stop stop-color="#FFFFFF" offset="100%"></stop>
        </linearGradient>
        <linearGradient x1="74.5529539%" y1="82.8294068%" x2="-18.0857779%" y2="-49.5996886%" id="linearGradient-94">
            <stop stop-color="#FFFFFF" stop-opacity="0" offset="0%"></stop>
            <stop stop-color="#FFFFFF" offset="100%"></stop>
        </linearGradient>
        <path d="M22.3593034,35.0651864 C21.8814417,35.1254094 1.85301777,7.36980072 1.33289152,7.04535921 C0.867496902,6.75505794 0.412916992,5.98090675 0.412916992,4.90330875 C0.412916992,2.62138437 2.20838494,-0.277610142 4.77439473,0.0213709274 C5.43032398,0.0977971132 5.90900616,0.331438801 6.24391627,0.662528526 C7.21918196,1.62666925 36.2714904,21.63716 35.6350317,22.7781262 C34.7800106,24.3109041 23.2647424,34.9510782 22.3593034,35.0651864 Z" id="path-95"></path>
        <linearGradient x1="39.693699%" y1="-94.0460029%" x2="35.5941913%" y2="236.811907%" id="linearGradient-97">
            <stop stop-color="#FFFFFF" stop-opacity="0" offset="0%"></stop>
            <stop stop-color="#FFFFFF" offset="100%"></stop>
        </linearGradient>
        <linearGradient x1="39.2305517%" y1="-39.18929%" x2="34.9468192%" y2="165.668752%" id="linearGradient-98">
            <stop stop-color="#FFFFFF" stop-opacity="0" offset="0%"></stop>
            <stop stop-color="#FFFFFF" offset="100%"></stop>
        </linearGradient>
        <linearGradient x1="63.8143333%" y1="21.5779227%" x2="39.0970433%" y2="79.5040003%" id="linearGradient-99">
            <stop stop-color="#90FF89" offset="0%"></stop>
            <stop stop-color="#2EBE88" offset="58.6096631%"></stop>
            <stop stop-color="#2FBDAB" offset="100%"></stop>
        </linearGradient>
        <linearGradient x1="100.198373%" y1="32.401838%" x2="10.3809551%" y2="68.2680587%" id="linearGradient-100">
            <stop stop-color="#90FF89" offset="0%"></stop>
            <stop stop-color="#2EBE88" offset="58.6096631%"></stop>
            <stop stop-color="#2FBDAB" offset="100%"></stop>
        </linearGradient>
    </defs>
    <g id="Home" stroke="none" stroke-width="1" fill="none" fill-rule="evenodd">
        <g id="Launch" transform="translate(-185.000000, -4722.000000)">
            <g id="Footer" transform="translate(0.000000, 4657.000000)">
                <g id="Newsletter" transform="translate(170.000000, 0.000000)">
                    <g id="Illustration/Jetpack" transform="translate(58.000000, 59.000000)">
                        <g id="Jetpacks" filter="url(#filter-1)">
                            <g id="Illustration" transform="translate(9.312378, 36.629133)">
                                <g id="Oval-Copy-48-Clipped">
                                    <g id="Oval-Copy-48" transform="translate(0.071564, 0.144143)">
                                        <g id="path-348-link" fill="#000000" fill-rule="nonzero">
                                            <ellipse id="path-348" cx="0.563219157" cy="0.631622815" rx="1" ry="1"></ellipse>
                                        </g>
                                        <g id="path-348-link" fill="#FFFFFF">
                                            <ellipse id="path-348" cx="0.563219157" cy="0.631622815" rx="1" ry="1"></ellipse>
                                        </g>
                                    </g>
                                </g>
                            </g>
                            <g id="Flying-man" transform="translate(0.484030, 0.229849)">
                                <g id="Group-21">
                                    <g id="Rectangle" transform="translate(44.655615, 40.535432) rotate(-30.000000) translate(-44.655615, -40.535432) translate(7.953891, 15.387072)">
                                        <g id="path-352-link" transform="translate(0.002432, -0.002857)" fill="#000000" fill-rule="nonzero">
                                            <path d="M2.18637031,0.436260978 L71.2632727,9.74435098 C72.2349345,9.87528209 72.9523465,10.7147735 72.9285692,11.6930247 L72.0825142,46.5017138 C72.057572,47.527892 71.2280604,48.352857 70.1997675,48.3741413 L1.98930567,49.7860062 C0.927385434,49.8079862 0.0486750653,48.9666511 0.0266512051,47.9068314 C0.0263814909,47.8938525 0.0262437297,47.8808717 0.0262379213,47.8678899 L0.0058523941,2.33924598 C0.0053777478,1.27919826 0.86603446,0.419475753 1.928183,0.419002045 C2.01453607,0.418963524 2.10079373,0.424729591 2.18637031,0.436260978 Z" id="path-352"></path>
                                        </g>
                                        <g id="path-352-link" style="mix-blend-mode: hard-light;" transform="translate(0.002432, -0.002857)" fill="url(#linearGradient-3)">
                                            <path d="M2.18637031,0.436260978 L71.2632727,9.74435098 C72.2349345,9.87528209 72.9523465,10.7147735 72.9285692,11.6930247 L72.0825142,46.5017138 C72.057572,47.527892 71.2280604,48.352857 70.1997675,48.3741413 L1.98930567,49.7860062 C0.927385434,49.8079862 0.0486750653,48.9666511 0.0266512051,47.9068314 C0.0263814909,47.8938525 0.0262437297,47.8808717 0.0262379213,47.8678899 L0.0058523941,2.33924598 C0.0053777478,1.27919826 0.86603446,0.419475753 1.928183,0.419002045 C2.01453607,0.418963524 2.10079373,0.424729591 2.18637031,0.436260978 Z" id="path-352"></path>
                                        </g>
                                    </g>
                                    <polygon id="Path-169-Copy" fill="url(#linearGradient-4)" fill-rule="nonzero" opacity="0.229999989" points="32.1181863 40.2746328 35.8487675 47.2062869 54.9254363 37.7457489 51.8541646 31.8489155"></polygon>
                                    <path d="M19.1025914,58.3643771 C19.1992428,58.77022 21.5430199,63.5693986 26.1339226,72.7619126 L48.6252553,61.6010341 L41.8390409,49.7258554 C26.5847566,55.0790268 19.0059401,57.9585337 19.1025914,58.3643771 Z" id="Path-170-Copy" fill="url(#linearGradient-5)" fill-rule="nonzero" opacity="0.229999989"></path>
                                    <g id="Group-20" transform="translate(29.711360, 6.053331)">
                                        <path d="M81.0706786,71.1378959 C85.803328,74.4096404 89.1273572,80.1820684 91.042767,88.4551804 C92.4957304,94.7308776 93.6773055,103.133248 94.5874919,113.662292 C94.7353836,115.373102 103.329283,124.140305 102.407446,128.10199 C102.219467,128.909847 98.8938329,128.249944 92.4305437,126.122281 L69.0579736,78.8259181 L81.0706786,71.1378959 Z" id="Path-62" fill="url(#radialGradient-6)" fill-rule="nonzero"></path>
                                        <path d="M93.2014357,134.24439 C100.863997,143.402222 105.195514,148.453203 106.195986,149.397331 C107.696695,150.813523 113.079549,147.136024 113.39773,145.472837 C113.609851,144.364046 106.877752,140.621231 93.2014357,134.24439 Z" id="Path-139" fill="url(#radialGradient-7)" fill-rule="nonzero"></path>
                                        <g id="Group-79" transform="translate(100.547460, 142.490925)">
                                            <g id="Path-175">
                                                <g id="path-357-link" fill="#000000" fill-rule="nonzero">
                                                    <path d="M0.427248438,15.0461799 C0.225172137,12.8756286 0.784954959,10.9382172 2.1065969,9.23394554 C4.08905981,6.67753806 5.73756787,1.5824704 7.81625273,0.684889765 C9.2020426,0.086502676 11.0955503,0.452583825 13.4967758,1.78313321 L0.427248438,15.0461799 Z" id="path-357"></path>
                                                </g>
                                                <g id="path-357-link" fill="url(#linearGradient-9)">
                                                    <path d="M0.427248438,15.0461799 C0.225172137,12.8756286 0.784954959,10.9382172 2.1065969,9.23394554 C4.08905981,6.67753806 5.73756787,1.5824704 7.81625273,0.684889765 C9.2020426,0.086502676 11.0955503,0.452583825 13.4967758,1.78313321 L0.427248438,15.0461799 Z" id="path-357"></path>
                                                </g>
                                            </g>
                                            <path d="M14.0512977,2.71748323 C11.3616312,2.71748323 9.81591672,2.02395464 6.35530662,7.98059789 C2.89469655,13.9372411 -0.394994635,13.5046443 0.639611449,15.8526967 C1.67421754,18.2007491 7.73015101,18.4251443 9.88647128,16.1811927 C12.0427916,13.9372411 12.6962429,10.0329317 14.9846494,7.98059789 C17.2730559,5.92826402 15.6763025,2.71748323 14.0512977,2.71748323 Z" id="Path-174" fill="#0B4651" fill-rule="nonzero"></path>
                                        </g>
                                        <path d="M53.4725291,92.1761443 C61.3586746,108.340737 68.5871074,119.645185 75.1578278,126.089489 C78.7740041,129.636093 108.602343,146.404051 114.268674,147.002438 C115.028544,142.100455 116.309279,140.35225 118.955669,137.661503 C113.530757,131.444374 99.5537603,124.690806 94.3025519,118.306766 C87.5543771,110.102822 83.7122766,97.0684136 82.4944596,93.0051199 C80.3289769,85.7799039 76.8485664,80.161518 72.0532288,76.1499623 L53.4725291,92.1761443 Z" id="Path-61" fill="url(#radialGradient-10)" fill-rule="nonzero"></path>
                                        <path d="M20.3505803,13.1489219 C20.3315835,15.9341819 20.2172978,17.9411347 20.0077232,19.1697802 C19.7981485,20.3984257 17.8488865,19.9013464 14.159937,17.6785423 L14.159937,15.4082588 L15.4424816,13.9867414 L20.3505803,13.1489219 Z" id="Path-69" fill="url(#linearGradient-11)" fill-rule="nonzero"></path>
                                        <g id="Group-18" transform="translate(17.810517, 0.000000)">
                                            <g id="Path-66" fill="#FFFFFF" fill-rule="nonzero">
                                                <path d="M12.6718768,39.2329283 C12.045872,37.3193412 10.9314891,36.0096027 9.3287281,35.3037127 C6.92458657,34.2448776 5.82143853,35.6101733 3.84500701,33.0677595 C1.86857552,30.5253456 -2.02024894,19.0569286 1.51703765,11.5220956 C5.05432424,3.98726264 12.5350365,0.0862736602 19.9220504,0.0862736602 C27.3090642,0.0862736602 31.8429927,6.79110898 31.8429927,14.3948284 C31.8429927,19.4639746 28.9085671,25.4390617 23.039716,32.3200895 L12.6718768,39.2329283 Z" id="path-360"></path>
                                            </g>
                                            <g id="Path-65-Clipped">
                                                <mask id="mask-13" fill="white">
                                                    <use xlink:href="#path-12"></use>
                                                </mask>
                                                <g id="path-360"></g>
                                                <path d="M15.9107035,34.6160103 C13.7064436,33.6265715 12.0983424,32.1369174 11.0863998,30.147048 C9.56848594,27.1622439 9.41395641,27.2717111 11.7920847,27.2717111 C14.1702129,27.2717111 15.8364209,24.2733925 15.0033169,21.528335 C14.4479143,19.6982967 12.7508908,19.5018865 9.91224641,20.9391045 L9.91224641,15.0481504 C7.63117355,16.0022715 5.53390948,16.3503139 3.62045427,16.0922778 C1.70699905,15.8342417 -0.323392565,14.5060403 -2.47072056,12.1076738 C-0.86806452,6.01080245 3.41167958,1.90252359 10.3685117,-0.21716273 C20.80376,-3.39669221 30.4112258,-0.380810041 33.3131827,3.98524645 C36.2151396,8.35130294 35.7102463,21.7987872 32.5282051,24.5352491 C30.4068442,26.3595571 27.9372036,29.5314699 25.1192833,34.0509874 L15.9107035,34.6160103 Z" id="Path-65" fill="url(#radialGradient-14)" fill-rule="nonzero" mask="url(#mask-13)"></path>
                                            </g>
                                        </g>
                                        <path d="M5.81770698,54.8358621 C3.20796,52.0113942 1.48385706,49.8982627 0.645398157,48.4964675 C-0.612290198,46.3937753 0.615798384,43.5629499 1.0946301,42.6589568 C1.41385125,42.0562948 2.03453246,41.7087235 2.95667372,41.616243 C3.14173852,41.335322 3.53208088,41.0281021 4.12770083,40.6945837 C4.72332076,40.3610651 5.14241598,40.3610651 5.38498647,40.6945837 C5.65359937,36.4697927 6.12538356,34.3573973 6.80033894,34.3573973 C7.81277202,34.3573973 8.09809773,35.8919572 7.8566683,38.277712 C7.61523882,40.6634668 7.3176302,43.2570016 8.20421395,44.1591879 C9.09079764,45.0613742 9.03441713,45.0029549 9.80703161,44.5966298 C10.5796461,44.1903047 10.4566158,42.0807867 10.4566158,40.6945837 C10.4566158,39.3083806 12.0024489,38.6358563 12.4832942,41.616243 C12.9641395,44.5966298 12.742846,45.8380896 11.8864661,47.9646716 C11.3155462,49.3823932 11.3155462,51.1684968 11.8864661,53.3229839 L5.81770698,54.8358621 Z" id="Path-63" fill="#FFFFFF" fill-rule="nonzero"></path>
                                        <path d="M28.8543533,45.5143428 C28.1216483,43.1759805 28.5794534,40.501018 30.2277684,37.4894552 C32.700241,32.9721112 38.0797667,30.1302901 41.6594299,30.8570978 C44.045872,31.3416364 46.5485276,32.6954251 49.1673967,34.918464 L45.7983816,36.6485854 L28.8543533,45.5143428 Z" id="Path-64" fill="url(#linearGradient-15)" fill-rule="nonzero"></path>
                                        <g id="Group-51" transform="translate(4.452629, 34.074168)">
                                            <g id="Path-60" fill="#0B4651" fill-rule="nonzero">
                                                <path d="M69.1692843,20.4910456 C62.7869759,11.2302527 57.4485161,5.27218751 53.1539038,2.61684988 C46.7119854,-1.36615654 35.3334431,-0.502392872 29.553021,4.08876779 C25.6994062,7.14954158 20.1801872,15.8652651 12.9953639,30.2359384 L8.13744808,17.989189 C6.53666236,17.3352597 4.78135394,17.3352597 2.87152281,17.989189 C0.961691696,18.6431183 0.0301185166,20.424691 0.0768032771,23.333907 C1.85468243,34.9719252 3.38524809,42.2751614 4.66850027,45.2436158 C6.59337854,49.6962972 12.7656055,50.4019639 17.6339386,46.2447046 C20.879494,43.4731984 24.8525215,38.136943 29.553021,30.2359384 C34.1080647,36.4148009 37.349376,41.4173601 39.2769551,45.2436158 C41.2045341,49.0698715 43.8111642,54.4574795 47.0968455,61.4064399 C48.8948571,63.3959236 50.7256292,63.3959236 52.5891614,61.4064399 C54.4526936,59.4169561 58.9837629,55.5980713 66.1823697,49.9497852 C75.0648116,44.6040763 80.3735584,41.9312219 82.108611,41.9312219 C83.8436637,41.9312219 79.5305551,34.7844964 69.1692843,20.4910456 Z" id="path-363"></path>
                                            </g>
                                            <g id="Path-99-Clipped">
                                                <mask id="mask-17" fill="white">
                                                    <use xlink:href="#path-16"></use>
                                                </mask>
                                                <g id="path-363"></g>
                                                <path d="M30.4005425,10.8039206 C29.1474444,14.3715852 28.2429939,18.7048401 27.687191,23.8036855 C26.8534868,31.4519536 15.3051781,46.9950779 7.14559928,49.5127467 C1.70588008,51.191193 5.2911437,52.4108793 17.9013902,53.1718056 L39.2578154,51.0481827 L43.7813793,32.5214597 L30.4005425,10.8039206 Z" id="Path-99" fill="#000000" fill-rule="nonzero" opacity="0.57686942" style="mix-blend-mode: soft-light;" mask="url(#mask-17)"></path>
                                            </g>
                                            <g id="Path-109-Clipped">
                                                <mask id="mask-19" fill="white">
                                                    <use xlink:href="#path-18"></use>
                                                </mask>
                                                <g id="path-363"></g>
                                                <path d="M12.9686501,30.377916 C12.2388936,31.8551815 11.566364,33.1384855 10.9510611,34.2278281 C10.0281067,35.861842 9.3865089,31.6601106 9.70730778,28.5418096 C9.92117372,26.4629423 9.79551621,23.1079515 9.33033524,18.4768374 L12.9686501,26.5348245 L12.9686501,30.377916 Z" id="Path-109" fill="#000000" fill-rule="nonzero" opacity="0.57686942" style="mix-blend-mode: soft-light;" mask="url(#mask-19)"></path>
                                            </g>
                                        </g>
                                        <g id="Group-19" transform="translate(11.312085, 12.717823)">
                                            <g id="Path-Copy-2" fill="url(#linearGradient-21)" fill-rule="nonzero">
                                                <path d="M7.19974034,1.0624438 C5.39101012,1.45781813 3.38615731,2.01364068 3.38615731,3.55508496 C3.38615731,5.30681687 9.87157592,6.01617924 11.6754404,6.52862719 C13.4793049,7.04107509 12.9538519,9.41614534 12.9538519,12.2824935 C12.9538519,15.1488417 12.9538519,16.1199726 9.87157592,16.1199726 C6.78930001,16.1199726 1.28838964,14.4105806 0.597447521,11.7626529 C-0.0934945946,9.11472514 -0.049341708,6.27290726 0.597447521,3.55508496 C0.995563179,1.88219438 3.28873455,0.716232482 7.47696165,0.0571992602 C7.38824622,0.352877466 7.29583914,0.687958982 7.19974034,1.0624438 Z" id="path-366"></path>
                                            </g>
                                            <g id="Path-68-Clipped">
                                                <mask id="mask-23" fill="white">
                                                    <use xlink:href="#path-22"></use>
                                                </mask>
                                                <g id="path-366"></g>
                                                <path d="M12.2173607,15.5876861 C7.61733316,15.2338287 4.52704316,14.4615747 2.9464907,13.2709241 C0.575662019,11.4849482 4.01253546,9.23125191 6.6940867,8.67465015 C6.58384289,7.10801609 6.58384289,6.80138979 6.58384289,4.53001559 C6.58384289,3.47546947 6.95951708,1.78357539 7.71086541,-0.545666665 L-0.490485084,1.13931319 L-3.68716093,11.7745923 L1.55353567,16.7390264 L11.792275,19.1113313 L12.2173607,15.5876861 Z" id="Path-68" fill="url(#linearGradient-24)" fill-rule="nonzero" mask="url(#mask-23)"></path>
                                            </g>
                                        </g>
                                        <g id="Group-17" transform="translate(75.900105, 68.954874) rotate(-4.000000) translate(-75.900105, -68.954874) translate(30.707684, 29.045520)">
                                            <g id="Group-16" transform="translate(39.244223, 12.717823)">
                                                <g id="Group-50" transform="translate(0.000000, 5.279096)">
                                                    <g id="Path-59" fill="url(#linearGradient-26)" fill-rule="nonzero">
                                                        <path d="M8.82237277,13.9074931 L35.141941,7.37503894 C35.5284733,7.27910258 35.7638936,6.88860424 35.6677671,6.50283652 C35.6250171,6.33127548 35.5204982,6.18141668 35.3741381,6.08183282 L30.4623559,2.7398385 C29.2803744,1.9356141 27.8998407,1.47069923 26.4712789,1.39578518 L0.0645465263,0.0110109678 L8.82237277,13.9074931 Z" id="path-369"></path>
                                                    </g>
                                                    <g id="Path-98-Clipped">
                                                        <mask id="mask-28" fill="white">
                                                            <use xlink:href="#path-27"></use>
                                                        </mask>
                                                        <g id="path-369"></g>
                                                        <path d="M7.50745725,-1.47661379 C8.0430218,4.19882019 7.79324964,7.75998785 6.75814072,9.20688919 C5.72303179,10.6537905 8.37707336,13.9471219 14.7202654,19.0868834 C20.4575852,15.0866467 23.0374055,12.7108548 22.4597265,11.9595075 C21.8820475,11.2081603 17.6116128,6.37865161 9.64842232,-2.52901841 L7.50745725,-1.47661379 Z" id="Path-98" fill="#000000" fill-rule="nonzero" opacity="0.57686942" style="mix-blend-mode: soft-light;" mask="url(#mask-28)"></path>
                                                    </g>
                                                </g>
                                                <g id="Group-15" transform="translate(7.822187, 0.000000)">
                                                    <g id="Path-56" fill="url(#linearGradient-30)" fill-rule="nonzero">
                                                        <path d="M13.5353789,23.2021064 C10.4479185,20.4317862 7.92266615,17.5821084 4.0221918,11.5751218 C0.121717456,5.56813522 -1.1942066,0.784590446 1.60013709,0.200208203 C4.39448079,-0.384174042 11.3756973,1.12162278 19.0997508,7.38029877 C21.278723,9.14588484 23.4038809,10.8883245 24.3322093,12.1078141 C26.6946331,15.2111892 25.2807459,19.61207 22.4698333,22.1432121 C18.6543922,25.5789021 15.0435321,24.6898744 13.5353789,23.2021064 Z" id="path-371"></path>
                                                    </g>
                                                    <g id="Path-58-Clipped">
                                                        <mask id="mask-32" fill="white">
                                                            <use xlink:href="#path-31"></use>
                                                        </mask>
                                                        <g id="path-371"></g>
                                                        <path d="M10.0773187,20.9243013 C9.49237395,17.968981 10.3210456,14.9357585 12.5633337,11.8246337 C15.9267657,7.15794649 21.7704308,7.26531224 25.2355296,9.80413995 C27.5455954,11.4966918 27.9477649,16.3273499 26.4420382,24.2961144 C19.3228018,26.5487935 15.505082,27.5583198 14.9888787,27.3246932 C14.4726754,27.0910666 12.8354888,24.9576027 10.0773187,20.9243013 Z" id="Path-58" fill="url(#radialGradient-33)" fill-rule="nonzero" mask="url(#mask-32)"></path>
                                                    </g>
                                                    <g id="Path-95-Clipped">
                                                        <mask id="mask-35" fill="white">
                                                            <use xlink:href="#path-34"></use>
                                                        </mask>
                                                        <g id="path-371"></g>
                                                        <path d="M0.0180812586,-0.942617791 C0.108115369,3.42312334 5.42781636,10.1652055 15.9771843,19.2836288 C31.8012361,32.9612636 14.9921538,27.5335615 14.456434,27.496213 C14.0992875,27.471314 8.06940165,19.4962859 -3.6332236,3.57112865 L0.0180812586,-0.942617791 Z" id="Path-95" fill="#000000" fill-rule="nonzero" opacity="0.57686942" style="mix-blend-mode: soft-light;" mask="url(#mask-35)"></path>
                                                    </g>
                                                    <g id="Path-57-Clipped">
                                                        <mask id="mask-37" fill="white">
                                                            <use xlink:href="#path-36"></use>
                                                        </mask>
                                                        <g id="path-371"></g>
                                                        <path d="M15.2285904,24.207964 C13.5045936,23.5174925 12.8659245,21.7691361 13.3125833,18.9628948 C13.9825714,14.7535329 19.2757429,8.78956964 24.782607,12.5022148 C30.2894711,16.2148601 25.9821291,24.9064418 25.1160351,25.6527178 C24.5386391,26.1502352 21.2428242,25.6686505 15.2285904,24.207964 Z" id="Path-57" fill="url(#radialGradient-38)" fill-rule="nonzero" mask="url(#mask-37)"></path>
                                                    </g>
                                                    <g id="Path-55-Copy-2-Clipped">
                                                        <mask id="mask-40" fill="white">
                                                            <use xlink:href="#path-39"></use>
                                                        </mask>
                                                        <g id="path-371"></g>
                                                        <path d="M18.9642601,21.4272293 C18.0588211,21.5413378 16.4867622,21.5321404 16.4867622,19.250216 C16.4867622,16.9682916 18.409266,14.1202739 20.9752758,14.4192549 C23.5412856,14.718236 23.3947216,17.4232293 22.5397005,18.9560075 C21.6846793,20.4887858 19.8696991,21.3131209 18.9642601,21.4272293 Z" id="Path-55-Copy-2" fill="url(#radialGradient-41)" fill-rule="nonzero" mask="url(#mask-40)"></path>
                                                    </g>
                                                </g>
                                            </g>
                                            <g id="Group-13" transform="translate(5.067285, 0.000000)">
                                                <path d="M2.5160367,7.77745206 C0.633195902,11.985527 -0.146042136,15.4242056 0.178322584,18.093488 C0.664869664,22.0974115 8.34379654,35.6290697 13.7240983,43.9794222 C16.3365268,48.0339713 18.8294878,51.5002066 21.2029813,54.3781278 C21.2029813,54.3781278 21.2029813,54.3781278 21.2029813,54.3781278 L21.2029813,54.3781278 C22.6870411,56.1775876 25.1814126,56.786454 27.3301297,55.8737398 C27.3553202,55.8630333 27.3800824,55.8525092 27.4044141,55.8421622 C34.2558998,52.9285557 39.5054438,50.4830019 43.1530462,48.5055004 C47.414525,46.1951931 49.328375,41.9961953 48.8945961,35.9085068 L2.5160367,7.77745206 Z" id="Path-50" fill="url(#radialGradient-42)" fill-rule="nonzero"></path>
                                                <g id="Group-48" transform="translate(1.805120, 0.000000)">
                                                    <g id="Path-49" fill="url(#linearGradient-44)" fill-rule="nonzero">
                                                        <path d="M20.753121,47.9090632 C20.5303897,47.597038 20.3410363,47.3313527 20.1850609,47.1120078 C10.7386382,33.8276952 4.60167432,24.2214539 1.77416921,18.2932841 C-2.72842044,8.85311863 2.26668612,1.448297 11.0403824,0.232492068 C19.8140788,-0.983312862 24.1767937,5.80329452 33.9704926,18.2932841 C39.3815806,25.1940918 43.4577888,30.474914 46.1991172,34.1357506 C46.3742249,34.3695937 46.5776785,34.6427838 46.8094782,34.955321 L46.8094831,34.9553173 C47.2439329,35.5410893 47.1203211,36.3674458 46.5333881,36.8010363 C46.4779797,36.8419687 46.4194486,36.8785138 46.3583301,36.9103371 L45.7647131,37.2194239 L25.457122,47.7932566 L23.8230254,48.6441065 C22.75931,49.1979656 21.4492656,48.8842948 20.753121,47.9090632 Z" id="path-377"></path>
                                                    </g>
                                                    <g id="Path-94-Clipped">
                                                        <mask id="mask-46" fill="white">
                                                            <use xlink:href="#path-45"></use>
                                                        </mask>
                                                        <g id="path-377"></g>
                                                        <path d="M15.2191205,18.2467569 C16.1426904,31.0051869 18.7986053,41.8256993 23.1868651,50.7082941 C27.575125,59.590889 30.4940446,56.5725184 31.9436242,41.6531827 L15.2191205,18.2467569 Z" id="Path-94" fill="#000000" fill-rule="nonzero" opacity="0.57686942" style="mix-blend-mode: soft-light;" mask="url(#mask-46)"></path>
                                                    </g>
                                                </g>
                                                <g id="Group-12" transform="translate(16.607104, 12.117926)">
                                                    <g id="Path-43" fill="url(#linearGradient-48)" fill-rule="nonzero">
                                                        <path d="M12.1706249,34.8749341 C7.16560576,25.0795334 3.75150847,18.1416154 1.92833307,14.06118 C-0.806430023,7.94052699 -0.636056441,4.0870333 2.91720734,1.45619787 C6.47047114,-1.17463756 8.57399349,-0.267067066 14.1790912,5.11887204 C17.2258381,8.04649162 21.7815514,13.1787064 27.846231,20.5155162 L27.8462309,20.5155164 C28.9761629,21.8824635 29.7886177,23.4822721 30.2251945,25.1999448 C30.2360904,25.2428136 30.2497973,25.2888593 30.2663151,25.3380821 C29.1153852,26.1643776 23.0834885,29.3433283 12.1706249,34.8749341 Z" id="path-379"></path>
                                                    </g>
                                                    <g id="Path-127-Clipped">
                                                        <mask id="mask-50" fill="white">
                                                            <use xlink:href="#path-49"></use>
                                                        </mask>
                                                        <g id="path-379"></g>
                                                        <path d="M11.6459546,24.5653961 C12.0551605,23.65682 12.4116934,22.9877555 12.7155535,22.5582029 C13.0194136,22.1286501 13.2461755,21.8526046 13.3958393,21.7300663 L9.45822438,14.5869332 L14.0517737,21.7757957 L11.6459546,24.5653961 Z" id="Path-127" fill="#FFFFFF" fill-rule="nonzero" mask="url(#mask-50)"></path>
                                                    </g>
                                                    <g id="Path-125-Clipped">
                                                        <mask id="mask-52" fill="white">
                                                            <use xlink:href="#path-51"></use>
                                                        </mask>
                                                        <g id="path-379"></g>
                                                        <path d="M2.35301365,9.00945754 L5.65237343,14.2532223 C6.10473455,12.9854235 6.76471925,12.1282798 7.63232759,11.681791 C7.16159823,12.5224783 6.56432684,13.7270123 5.84051343,15.2953929 L2.60568333,10.1334011 L2.35301365,9.00945754 Z" id="Path-125" fill="#FFFFFF" fill-rule="nonzero" mask="url(#mask-52)"></path>
                                                    </g>
                                                    <g id="Path-122-Clipped">
                                                        <mask id="mask-54" fill="white">
                                                            <use xlink:href="#path-53"></use>
                                                        </mask>
                                                        <g id="path-379"></g>
                                                        <path d="M15.8209633,12.1126059 C14.9053978,10.4907608 13.8768989,8.89599259 12.7354667,7.32830145 C11.5940346,5.76061026 10.1338218,4.13574448 8.35482845,2.45370412 L15.5358318,12.0927276 L15.8209633,12.1126059 Z" id="Path-122" fill="#FFFFFF" fill-rule="nonzero" mask="url(#mask-54)"></path>
                                                    </g>
                                                    <g id="Path-47-Clipped">
                                                        <mask id="mask-56" fill="white">
                                                            <use xlink:href="#path-55"></use>
                                                        </mask>
                                                        <g id="path-379"></g>
                                                        <path d="M7.91847621,12.1267518 C7.63059557,12.3811295 7.32852678,12.7715013 7.01752956,13.2982809 C6.61597705,13.9784466 6.34530944,14.7942079 6.20716161,15.7473772 L6.08899402,16.56269 L5.65368588,15.8625047 C3.9481766,13.1192236 2.62027642,10.7763466 1.66965632,8.83267258 C0.696057566,6.8420155 0.404349659,4.72631969 0.795086678,2.49479237 L1.38782909,2.59795741 C1.01874374,4.70583049 1.29278004,6.69335787 2.21049207,8.56974681 C3.07445854,10.3362455 4.25696434,12.4423475 5.75775451,14.8871221 C5.92430969,14.1805403 6.17116456,13.5492489 6.49898046,12.9939812 C6.94348192,12.2410667 7.38707883,11.7209066 7.8409882,11.4343832 L8.09919167,11.2713963 L14.9516851,22.4455303 L14.4383262,22.7584552 L7.91847621,12.1267518 Z" id="Path-47" fill="url(#linearGradient-57)" fill-rule="nonzero" mask="url(#mask-56)"></path>
                                                    </g>
                                                    <g id="Path-45-Copy-Clipped">
                                                        <mask id="mask-59" fill="white">
                                                            <use xlink:href="#path-58"></use>
                                                        </mask>
                                                        <g id="path-379"></g>
                                                        <path d="M9.18007771,32.443458 C9.60244636,26.6688125 12.1782059,22.2666146 16.9073562,19.2368643 C21.6365066,16.2071141 26.2846292,16.5244595 30.851724,20.1889005 L34.6229147,28.6956807 L11.2047889,37.8394092 L9.18007771,32.443458 Z" id="Path-45-Copy" fill="url(#radialGradient-60)" fill-rule="nonzero" mask="url(#mask-59)"></path>
                                                    </g>
                                                    <g id="Path-44-Copy-Clipped">
                                                        <mask id="mask-62" fill="white">
                                                            <use xlink:href="#path-61"></use>
                                                        </mask>
                                                        <g id="path-379"></g>
                                                        <path d="M11.8347975,36.3555521 C11.6790698,32.1475111 13.2527621,28.1512954 16.5558746,24.3669051 C21.5105434,18.6903196 27.4204957,19.1439865 30.2866951,24.3669051 C32.1974948,27.8488508 32.5386387,28.9113149 31.3101269,27.5542974 L11.8347975,36.3555521 Z" id="Path-44-Copy" fill="url(#radialGradient-63)" fill-rule="nonzero" mask="url(#mask-62)"></path>
                                                    </g>
                                                    <g id="Path-46-Clipped">
                                                        <mask id="mask-65" fill="white">
                                                            <use xlink:href="#path-64"></use>
                                                        </mask>
                                                        <g id="path-379"></g>
                                                        <path d="M24.3130211,14.7724812 L24.0248228,15.2990904 C22.0800297,14.2411515 19.8345626,14.0676397 17.2720355,14.7853328 L17.0662764,14.8429602 L16.9439597,14.6682263 C12.5713316,8.42176774 9.61520893,4.52925169 8.09177519,3.0077414 C6.60092777,1.51877625 5.10630576,0.753187344 3.6047643,0.694175003 L3.628465,0.0947432371 C5.29654983,0.160300931 6.92731575,0.995626701 8.5176178,2.58392087 C10.0609472,4.12530176 12.9884942,7.9756575 17.3159978,14.1515828 C19.9390294,13.4597266 22.276424,13.6646022 24.3130211,14.7724812 Z" id="Path-46" fill="url(#linearGradient-66)" fill-rule="nonzero" mask="url(#mask-65)"></path>
                                                    </g>
                                                    <g id="Path-48-Clipped">
                                                        <mask id="mask-68" fill="white">
                                                            <use xlink:href="#path-67"></use>
                                                        </mask>
                                                        <g id="path-379"></g>
                                                        <path d="M16.0082612,30.6898855 L27.007216,25.0550095 C26.3260599,23.036176 24.77414,22.4859316 22.3514563,23.4042762 C19.9287726,24.3226208 17.8143742,26.7511572 16.0082612,30.6898855 Z" id="Path-48" fill="url(#radialGradient-69)" fill-rule="nonzero" mask="url(#mask-68)"></path>
                                                    </g>
                                                </g>
                                                <g id="Group-72" transform="translate(32.612500, 35.034003)">
                                                    <g id="Path" fill="url(#linearGradient-71)" fill-rule="nonzero">
                                                        <path d="M10.9931212,2.06073251 L51.523843,40.5517927 C32.6980535,47.429627 11.3379973,41.6749191 10.1206628,40.7742622 C8.90332842,39.8736052 5.57456605,28.9856522 0.134375751,8.11040296 L0.00286432418,7.77380793 C1.80897731,3.83507963 3.92337566,1.40654319 6.34605938,0.488198621 C8.73832519,-0.418615727 10.2815556,0.106512853 10.9757506,2.06358436 L10.9931212,2.06073251 Z" id="path-385"></path>
                                                    </g>
                                                    <g id="Path-165-Clipped">
                                                        <mask id="mask-73" fill="white">
                                                            <use xlink:href="#path-72"></use>
                                                        </mask>
                                                        <g id="path-385"></g>
                                                    </g>
                                                </g>
                                                <polygon id="Path-67" fill="url(#radialGradient-74)" fill-rule="nonzero" points="5.26943593 13.2768132 7.77114653 17.0573089 11.1018932 15.1670611 8.5544914 11.614804"></polygon>
                                            </g>
                                            <g id="Group-14" transform="translate(0.000000, 30.834722)">
                                                <g id="Group-49">
                                                    <g id="Path-51" fill="url(#linearGradient-76)" fill-rule="nonzero">
                                                        <path d="M12.3237018,0.0211710392 L0.567155892,28.0948075 C-0.058827272,29.5896023 -0.132674249,31.2576648 0.358775034,32.8017341 L2.21870682,38.6453962 C2.33929205,39.0242592 2.74478351,39.233828 3.12439733,39.1134813 C3.24727345,39.0745266 3.35743991,39.0034101 3.44342677,38.9075361 L24.065953,15.9137491 L12.3237018,0.0211710392 Z" id="path-390"></path>
                                                    </g>
                                                    <g id="Path-97-Clipped">
                                                        <mask id="mask-78" fill="white">
                                                            <use xlink:href="#path-77"></use>
                                                        </mask>
                                                        <g id="path-390"></g>
                                                        <path d="M11.1460202,-0.893719033 C13.9337612,6.45347075 14.4584455,10.7461641 12.7200731,11.9843611 C10.9817008,13.2225581 15.0916677,18.1366939 25.0499741,26.7267686 C28.1367747,19.0461536 29.680175,15.2058461 29.680175,15.2058461 C29.680175,15.2058461 24.3652129,9.30715021 13.7352888,-2.49024167 L11.1460202,-0.893719033 Z" id="Path-97" fill="#000000" fill-rule="nonzero" opacity="0.57686942" style="mix-blend-mode: soft-light;" mask="url(#mask-78)"></path>
                                                    </g>
                                                </g>
                                                <g id="Path-52" transform="translate(1.405249, 5.142389)" fill="url(#linearGradient-80)" fill-rule="nonzero">
                                                    <path d="M23.2004027,20.238456 C19.5601499,14.0437973 15.7565044,9.15115756 11.7894661,5.56053674 C5.83890887,0.174605472 1.98606551,-0.502667312 0.992200755,1.03832024 C-0.00166400231,2.57930785 -0.683444134,9.43681003 2.60992668,17.6126138 C5.90329752,25.7884175 7.61001237,27.4499264 9.21572911,30.0430126 C10.8214459,32.6360989 15.653519,33.4853809 20.2691393,29.5907458 C23.3462195,26.9943225 24.3233074,23.8768925 23.2004027,20.238456 Z" id="path-392"></path>
                                                </g>
                                                <g id="Path-54-Clipped" transform="translate(1.405249, 5.142389)">
                                                    <mask id="mask-82" fill="white">
                                                        <use xlink:href="#path-81"></use>
                                                    </mask>
                                                    <g id="path-392"></g>
                                                    <path d="M6.79805288,27.9299204 C5.64899877,23.7502716 6.74221034,20.0261707 10.0776876,16.7576174 C15.0809035,11.8547876 20.2110942,14.4018265 21.7431111,15.5722346 C22.7644557,16.3525067 23.9343131,18.5524267 25.2526833,22.1719945 L22.7834675,30.5543502 L13.6214889,33.9316988 L7.52905953,31.0805474 L6.79805288,27.9299204 Z" id="Path-54" fill="url(#radialGradient-83)" fill-rule="nonzero" mask="url(#mask-82)"></path>
                                                </g>
                                                <g id="Path-53-Clipped" transform="translate(1.405249, 5.142389)">
                                                    <mask id="mask-85" fill="white">
                                                        <use xlink:href="#path-84"></use>
                                                    </mask>
                                                    <g id="path-392"></g>
                                                    <path d="M10.5956389,31.7101652 C8.95849293,30.2008657 8.63456746,27.9171528 9.62386245,24.8590266 C11.107805,20.2718372 16.793563,17.1434188 20.2691393,18.1308671 C22.5861902,18.789166 24.4242727,20.7904511 25.7833868,24.1347224 L23.004772,29.2800242 L16.3268076,34.3976202 L10.5956389,31.7101652 Z" id="Path-53" fill="url(#radialGradient-86)" fill-rule="nonzero" mask="url(#mask-85)"></path>
                                                </g>
                                                <g id="Path-55-Copy-3-Clipped" transform="translate(1.405249, 5.142389)">
                                                    <mask id="mask-88" fill="white">
                                                        <use xlink:href="#path-87"></use>
                                                    </mask>
                                                    <g id="path-392"></g>
                                                    <path d="M15.9419015,28.676848 C15.0364533,28.7911955 13.4644329,28.7824083 13.4650304,26.5004316 C13.465628,24.218455 15.3888336,21.36987 17.9547065,21.668188 C20.5205794,21.9665059 20.3733104,24.6715995 19.5179074,26.2046361 C18.6625044,27.7376727 16.8473497,28.5625005 15.9419015,28.676848 Z" id="Path-55-Copy-3" fill="url(#radialGradient-89)" fill-rule="nonzero" mask="url(#mask-88)" transform="translate(16.770852, 25.180327) rotate(5.000000) translate(-16.770852, -25.180327) "></path>
                                                </g>
                                                <g id="Path-96-Clipped" transform="translate(1.405249, 5.142389)">
                                                    <mask id="mask-91" fill="white">
                                                        <use xlink:href="#path-90"></use>
                                                    </mask>
                                                    <g id="path-392"></g>
                                                    <path d="M-0.526353515,-0.827297131 C-0.153595338,8.65223185 4.55089314,18.1229809 13.5871119,27.5849502 C27.1414401,41.777904 5.87538197,33.0111921 4.03755212,31.3828347 C2.8123322,30.2972631 -0.230737996,23.1376354 -5.09165844,9.90395166 L-0.526353515,-0.827297131 Z" id="Path-96" fill="#000000" fill-rule="nonzero" opacity="0.57686942" style="mix-blend-mode: soft-light;" mask="url(#mask-91)"></path>
                                                </g>
                                            </g>
                                        </g>
                                        <g id="Group-73" transform="translate(46.478303, 54.540944)">
                                            <g id="Path-55-Copy-4" transform="translate(47.310053, 0.000000)" fill="url(#linearGradient-93)" fill-rule="nonzero">
                                                <path d="M21.9463865,35.0651865 C21.4685249,35.1254093 1.44010099,7.36980072 0.919974726,7.04535921 C0.454580101,6.75505794 3.05592534e-17,5.98090675 0,4.90330875 C0,2.62138436 1.79546812,-0.277610127 4.36147793,0.0213709236 C5.01740717,0.0977971355 5.49608935,0.331438782 5.83099947,0.662528521 C6.80626516,1.62666925 35.8585736,21.6371601 35.2221149,22.778126 C34.3670938,24.3109043 22.8518256,34.951078 21.9463865,35.0651865 Z" id="path-398"></path>
                                            </g>
                                            <g id="Path-55-Copy" transform="translate(0.000000, 33.659274)" fill="url(#linearGradient-93)" fill-rule="nonzero">
                                                <path d="M22.3593034,35.0651864 C21.8814417,35.1254094 1.85301777,7.36980072 1.33289152,7.04535921 C0.867496902,6.75505794 0.412916992,5.98090675 0.412916992,4.90330875 C0.412916992,2.62138437 2.20838494,-0.277610142 4.77439473,0.0213709274 C5.43032398,0.0977971132 5.90900616,0.331438801 6.24391627,0.662528526 C7.21918196,1.62666925 36.2714904,21.63716 35.6350317,22.7781262 C34.7800106,24.3109041 23.2647424,34.9510782 22.3593034,35.0651864 Z" id="path-400"></path>
                                            </g>
                                            <g id="Path-166-Clipped" transform="translate(0.000000, 33.659274)">
                                                <mask id="mask-96" fill="white">
                                                    <use xlink:href="#path-95"></use>
                                                </mask>
                                                <g id="path-400"></g>
                                                <g id="Path-166" mask="url(#mask-96)">
                                                    <g transform="translate(45.904804, -35.529233)" id="path-402-link">
                                                        <g>
                                                            <path d="M0.349851693,7.14969922 L20.6868034,21.0588856 L4.47663864,0.11478522 C1.72544734,3.26133962 0.349851693,5.15481661 0.349851693,5.79521619 C0.349851693,6.43561577 0.349851693,6.88711014 0.349851693,7.14969922 Z" id="path-402" fill="#000000" fill-rule="nonzero"></path>
                                                        </g>
                                                        <g>
                                                            <path d="M0.349851693,7.14969922 L20.6868034,21.0588856 L4.47663864,0.11478522 C1.72544734,3.26133962 0.349851693,5.15481661 0.349851693,5.79521619 C0.349851693,6.43561577 0.349851693,6.88711014 0.349851693,7.14969922 Z" id="path-402" fill="url(#linearGradient-98)"></path>
                                                        </g>
                                                    </g>
                                                </g>
                                            </g>
                                        </g>
                                    </g>
                                    <polygon id="Path-169-Copy-2" fill="url(#linearGradient-4)" fill-rule="nonzero" opacity="0.5" points="8.53128549 41.4744274 12.2618668 48.4060814 31.3385357 38.9455436 28.2672637 33.0487102"></polygon>
                                </g>
                                <g id="Path-184" transform="translate(141.461743, 143.131127)">
                                    <g id="path-404-link" fill="#000000" fill-rule="nonzero">
                                        <path d="M2.50854109,28.1936845 C0.651366686,25.5919676 0.0435407067,22.6765995 0.685063154,19.4475803 C1.64734683,14.6040515 1.74021365,11.2197579 2.50854109,6.73185473 C3.27686853,2.24395158 6.53217118,0.239075276 8.42503985,0.411391122 C9.68695261,0.526268353 11.8531699,2.11735344 14.9236912,5.18464544 L2.50854109,28.1936845 Z" id="path-404"></path>
                                    </g>
                                    <g id="path-404-link" fill="url(#linearGradient-100)">
                                        <path d="M2.50854109,28.1936845 C0.651366686,25.5919676 0.0435407067,22.6765995 0.685063154,19.4475803 C1.64734683,14.6040515 1.74021365,11.2197579 2.50854109,6.73185473 C3.27686853,2.24395158 6.53217118,0.239075276 8.42503985,0.411391122 C9.68695261,0.526268353 11.8531699,2.11735344 14.9236912,5.18464544 L2.50854109,28.1936845 Z" id="path-404"></path>
                                    </g>
                                </g>
                                <path d="M154.322858,147.13433 C152.275403,147.13433 149.059642,146.480101 146.084366,156.866853 C143.10909,167.253606 142.935925,168.681289 144.085581,171.281476 C145.235237,173.881663 151.870448,173.881663 153.096653,165.80842 C154.322858,157.735178 155.894952,156.176382 156.741719,153.228909 C157.588485,150.281436 156.370313,147.13433 154.322858,147.13433 Z" id="Path-183" fill="#0B4651" fill-rule="nonzero"></path>
                            </g>
                        </g>
                    </g>
                </g>
            </g>
        </g>
    </g>
</svg>